STARTFONT 2.1
COMMENT
COMMENT Converted from OpenType font "Nasalization Rg.otf" by "otf2bdf 3.0".
COMMENT
FONT -FreeType-Nasalization-Medium-R-Normal--20-200-72-72-P-117-ISO10646-1
SIZE 20 72 72
FONTBOUNDINGBOX 40 31 -12 -6
STARTPROPERTIES 19
FOUNDRY "FreeType"
FAMILY_NAME "Nasalization"
WEIGHT_NAME "Medium"
SLANT "R"
SETWIDTH_NAME "Normal"
ADD_STYLE_NAME ""
PIXEL_SIZE 20
POINT_SIZE 200
RESOLUTION_X 72
RESOLUTION_Y 72
SPACING "P"
AVERAGE_WIDTH 117
CHARSET_REGISTRY "ISO10646"
CHARSET_ENCODING "1"
FONT_ASCENT 18
FONT_DESCENT 5
COPYRIGHT "© 1999-2024 Typodermic Fonts Inc."
_OTF_FONTFILE "Nasalization Rg.otf"
_OTF_PSNAME "Nasalization-Regular"
ENDPROPERTIES
CHARS 758
STARTCHAR 0000
ENCODING 0
SWIDTH 0 0
DWIDTH 0 0
BBX 0 0 0 0
BITMAP
ENDCHAR
STARTCHAR 0017
ENCODING 23
SWIDTH 250 0
DWIDTH 5 0
BBX 0 0 0 0
BITMAP
ENDCHAR
STARTCHAR 0020
ENCODING 32
SWIDTH 250 0
DWIDTH 5 0
BBX 0 0 0 0
BITMAP
ENDCHAR
STARTCHAR 0021
ENCODING 33
SWIDTH 250 0
DWIDTH 5 0
BBX 3 14 1 0
BITMAP
E0
E0
E0
C0
C0
C0
C0
C0
C0
00
00
E0
E0
E0
ENDCHAR
STARTCHAR 0022
ENCODING 34
SWIDTH 400 0
DWIDTH 8 0
BBX 6 6 1 9
BITMAP
CC
CC
CC
CC
C8
C8
ENDCHAR
STARTCHAR 0023
ENCODING 35
SWIDTH 600 0
DWIDTH 12 0
BBX 11 14 1 0
BITMAP
3100
3100
3100
3100
FFE0
3100
3100
3100
3100
FFE0
3100
3100
3100
3100
ENDCHAR
STARTCHAR 0024
ENCODING 36
SWIDTH 600 0
DWIDTH 12 0
BBX 10 16 1 -1
BITMAP
0400
0400
0400
3FC0
7FC0
E000
C000
7F00
3FC0
00C0
00C0
00C0
FFC0
FF80
0400
0400
ENDCHAR
STARTCHAR 0025
ENCODING 37
SWIDTH 850 0
DWIDTH 17 0
BBX 15 14 1 0
BITMAP
7808
CC10
8430
8460
8440
8480
CDBC
7B66
0642
0442
0C42
1842
3066
203C
ENDCHAR
STARTCHAR 0026
ENCODING 38
SWIDTH 750 0
DWIDTH 15 0
BBX 13 15 1 0
BITMAP
0F80
1FC0
38E0
3060
38E0
19C0
1F80
1E00
7F18
E3B0
C1F0
C0E0
E1E0
FFB0
7F18
ENDCHAR
STARTCHAR 0027
ENCODING 39
SWIDTH 200 0
DWIDTH 4 0
BBX 2 6 1 9
BITMAP
C0
C0
C0
C0
C0
C0
ENDCHAR
STARTCHAR 0028
ENCODING 40
SWIDTH 400 0
DWIDTH 8 0
BBX 5 23 2 -5
BITMAP
38
70
C0
C0
80
80
80
80
80
80
80
80
80
80
80
80
80
80
80
80
C0
60
78
ENDCHAR
STARTCHAR 0029
ENCODING 41
SWIDTH 400 0
DWIDTH 8 0
BBX 5 23 1 -5
BITMAP
E0
70
18
18
08
08
08
08
08
08
08
08
08
08
08
08
08
08
08
08
18
30
E0
ENDCHAR
STARTCHAR 002A
ENCODING 42
SWIDTH 550 0
DWIDTH 11 0
BBX 9 10 1 5
BITMAP
0800
0800
C880
6B00
1E00
1E00
6B80
C880
0800
0800
ENDCHAR
STARTCHAR 002B
ENCODING 43
SWIDTH 600 0
DWIDTH 12 0
BBX 11 11 1 1
BITMAP
0C00
0C00
0C00
0C00
0C00
FFE0
0C00
0C00
0C00
0C00
0C00
ENDCHAR
STARTCHAR 002C
ENCODING 44
SWIDTH 250 0
DWIDTH 5 0
BBX 3 6 1 -3
BITMAP
60
60
60
60
E0
C0
ENDCHAR
STARTCHAR 002D
ENCODING 45
SWIDTH 400 0
DWIDTH 8 0
BBX 7 2 1 5
BITMAP
FE
FE
ENDCHAR
STARTCHAR 002E
ENCODING 46
SWIDTH 250 0
DWIDTH 5 0
BBX 3 3 1 0
BITMAP
E0
E0
E0
ENDCHAR
STARTCHAR 002F
ENCODING 47
SWIDTH 450 0
DWIDTH 9 0
BBX 8 19 1 -4
BITMAP
03
06
06
06
0C
0C
0C
18
18
18
30
30
30
60
60
60
C0
C0
C0
ENDCHAR
STARTCHAR 0030
ENCODING 48
SWIDTH 750 0
DWIDTH 15 0
BBX 12 14 1 0
BITMAP
0F80
3FC0
79E0
6070
E030
E030
C030
C030
E030
E030
6070
79E0
3FC0
1F80
ENDCHAR
STARTCHAR 0031
ENCODING 49
SWIDTH 350 0
DWIDTH 7 0
BBX 4 14 1 0
BITMAP
E0
F0
70
30
30
30
30
30
30
30
30
30
30
30
ENDCHAR
STARTCHAR 0032
ENCODING 50
SWIDTH 750 0
DWIDTH 15 0
BBX 13 14 1 0
BITMAP
7FE0
7FF0
0070
0038
0038
00F0
0FF0
3FC0
7C00
E000
E000
E000
FFF0
FFF0
ENDCHAR
STARTCHAR 0033
ENCODING 51
SWIDTH 700 0
DWIDTH 14 0
BBX 11 14 1 0
BITMAP
FFC0
FFE0
00E0
0060
0060
00E0
1FC0
1FC0
0060
0060
0060
00E0
FFE0
FFC0
ENDCHAR
STARTCHAR 0034
ENCODING 52
SWIDTH 700 0
DWIDTH 14 0
BBX 11 14 1 0
BITMAP
07E0
0FE0
0E60
1C60
3860
7060
E060
E060
C060
FFE0
FFE0
0060
0060
0060
ENDCHAR
STARTCHAR 0035
ENCODING 53
SWIDTH 700 0
DWIDTH 14 0
BBX 11 14 2 0
BITMAP
FFC0
FFC0
C000
C000
C000
C000
FF80
FFC0
00E0
00E0
00E0
01C0
FFC0
FF80
ENDCHAR
STARTCHAR 0036
ENCODING 54
SWIDTH 700 0
DWIDTH 14 0
BBX 12 14 1 0
BITMAP
1FE0
3FE0
7800
6000
E000
E000
FFE0
FFF0
E030
E030
6030
7870
3FE0
1FC0
ENDCHAR
STARTCHAR 0037
ENCODING 55
SWIDTH 650 0
DWIDTH 13 0
BBX 11 14 1 0
BITMAP
FFC0
FFE0
00E0
0060
00E0
01C0
01C0
0380
0700
0700
0E00
1C00
3800
3800
ENDCHAR
STARTCHAR 0038
ENCODING 56
SWIDTH 750 0
DWIDTH 15 0
BBX 12 14 1 0
BITMAP
3FC0
7FF0
F070
E030
E030
E070
7FE0
7FE0
E030
C030
E030
E070
7FF0
3FE0
ENDCHAR
STARTCHAR 0039
ENCODING 57
SWIDTH 700 0
DWIDTH 14 0
BBX 12 14 1 0
BITMAP
3F80
7FE0
F1E0
C070
C070
E030
7FF0
3FF0
0030
0070
0070
01E0
3FC0
3F80
ENDCHAR
STARTCHAR 003A
ENCODING 58
SWIDTH 250 0
DWIDTH 5 0
BBX 2 10 2 0
BITMAP
C0
C0
C0
00
00
00
00
C0
C0
C0
ENDCHAR
STARTCHAR 003B
ENCODING 59
SWIDTH 250 0
DWIDTH 5 0
BBX 3 13 1 -3
BITMAP
60
60
60
00
00
00
00
60
60
60
60
E0
C0
ENDCHAR
STARTCHAR 003C
ENCODING 60
SWIDTH 600 0
DWIDTH 12 0
BBX 11 11 1 1
BITMAP
0060
01E0
0F00
3C00
E000
8000
F000
3C00
0780
01E0
0020
ENDCHAR
STARTCHAR 003D
ENCODING 61
SWIDTH 600 0
DWIDTH 12 0
BBX 11 6 1 4
BITMAP
FFE0
0000
0000
0000
0000
FFE0
ENDCHAR
STARTCHAR 003E
ENCODING 62
SWIDTH 600 0
DWIDTH 12 0
BBX 11 10 1 1
BITMAP
8000
F000
3C00
0780
01C0
0060
01C0
0F00
3C00
E000
ENDCHAR
STARTCHAR 003F
ENCODING 63
SWIDTH 550 0
DWIDTH 11 0
BBX 10 14 1 0
BITMAP
FF00
FF80
01C0
00C0
01C0
1F80
1F00
3000
3000
0000
0000
3800
3800
3800
ENDCHAR
STARTCHAR 0040
ENCODING 64
SWIDTH 750 0
DWIDTH 15 0
BBX 12 16 2 -4
BITMAP
7FC0
FFE0
C030
8030
87F0
8FF0
9830
9830
9830
9830
8FE0
8FE0
8000
C000
FFF0
7FF0
ENDCHAR
STARTCHAR 0041
ENCODING 65
SWIDTH 800 0
DWIDTH 16 0
BBX 14 14 1 0
BITMAP
0780
0FC0
0FC0
1CC0
1CE0
1860
3870
3070
3030
7038
6038
E018
E01C
C00C
ENDCHAR
STARTCHAR 0042
ENCODING 66
SWIDTH 700 0
DWIDTH 14 0
BBX 11 14 2 0
BITMAP
FF80
FFE0
C0E0
C060
C060
C0E0
FFC0
FFC0
C0E0
C060
C060
C0E0
FFE0
FF80
ENDCHAR
STARTCHAR 0043
ENCODING 67
SWIDTH 700 0
DWIDTH 14 0
BBX 11 14 1 0
BITMAP
1FE0
3FE0
7800
6000
E000
E000
E000
E000
E000
E000
6000
7800
3FE0
1FE0
ENDCHAR
STARTCHAR 0044
ENCODING 68
SWIDTH 750 0
DWIDTH 15 0
BBX 12 14 2 0
BITMAP
FF00
FFC0
C1E0
C0E0
C060
C070
C070
C070
C070
C060
C0E0
C1E0
FFC0
FF00
ENDCHAR
STARTCHAR 0045
ENCODING 69
SWIDTH 700 0
DWIDTH 14 0
BBX 11 14 1 0
BITMAP
3FE0
7FE0
F000
E000
E000
E000
7FE0
7FE0
E000
E000
E000
F000
7FE0
3FE0
ENDCHAR
STARTCHAR 0046
ENCODING 70
SWIDTH 650 0
DWIDTH 13 0
BBX 10 14 2 0
BITMAP
3FC0
7FC0
F000
C000
C000
C000
FFC0
FFC0
C000
C000
C000
C000
C000
C000
ENDCHAR
STARTCHAR 0047
ENCODING 71
SWIDTH 750 0
DWIDTH 15 0
BBX 13 14 1 0
BITMAP
1FF0
3FF0
7800
6000
E000
E000
E3E0
E3F0
E030
E038
6030
7870
3FF0
1FE0
ENDCHAR
STARTCHAR 0048
ENCODING 72
SWIDTH 750 0
DWIDTH 15 0
BBX 11 14 2 0
BITMAP
C060
C060
C060
C060
C060
C060
FFE0
FFE0
C060
C060
C060
C060
C060
C060
ENDCHAR
STARTCHAR 0049
ENCODING 73
SWIDTH 300 0
DWIDTH 6 0
BBX 2 14 2 0
BITMAP
C0
C0
C0
C0
C0
C0
C0
C0
C0
C0
C0
C0
C0
C0
ENDCHAR
STARTCHAR 004A
ENCODING 74
SWIDTH 600 0
DWIDTH 12 0
BBX 9 14 1 0
BITMAP
0180
0180
0180
0180
0180
0180
0180
0180
0180
0180
0180
0780
FF00
FE00
ENDCHAR
STARTCHAR 004B
ENCODING 75
SWIDTH 700 0
DWIDTH 14 0
BBX 12 14 2 0
BITMAP
C060
C0E0
C0C0
C1C0
C180
C380
FF00
FF00
C380
C1C0
C1C0
C0E0
C0E0
C070
ENDCHAR
STARTCHAR 004C
ENCODING 76
SWIDTH 600 0
DWIDTH 12 0
BBX 11 14 1 0
BITMAP
E000
E000
E000
E000
E000
E000
E000
E000
E000
6000
6000
7000
7FE0
1FE0
ENDCHAR
STARTCHAR 004D
ENCODING 77
SWIDTH 1100 0
DWIDTH 22 0
BBX 18 14 2 0
BITMAP
780780
FC0FC0
CC0CC0
CC0CC0
CE1CC0
CE1CC0
C618C0
C618C0
C718C0
C738C0
C330C0
C330C0
C3F0C0
C1E0C0
ENDCHAR
STARTCHAR 004E
ENCODING 78
SWIDTH 900 0
DWIDTH 18 0
BBX 14 14 2 0
BITMAP
780C
FC0C
DC0C
CE0C
CE0C
C60C
C70C
C30C
C38C
C18C
C1CC
C0DC
C0FC
C078
ENDCHAR
STARTCHAR 004F
ENCODING 79
SWIDTH 800 0
DWIDTH 16 0
BBX 14 14 1 0
BITMAP
1FE0
3FF0
7878
601C
E01C
E00C
E00C
E00C
E00C
E01C
601C
7878
3FF0
1FE0
ENDCHAR
STARTCHAR 0050
ENCODING 80
SWIDTH 700 0
DWIDTH 14 0
BBX 11 14 2 0
BITMAP
FF80
FFC0
01E0
00E0
00E0
00E0
FFC0
FF80
C000
C000
C000
C000
C000
C000
ENDCHAR
STARTCHAR 0051
ENCODING 81
SWIDTH 800 0
DWIDTH 16 0
BBX 14 16 1 -2
BITMAP
1FE0
3FF0
7878
601C
E01C
E00C
E00C
E00C
E00C
E19C
61DC
78F8
3FF0
1FE0
0070
0030
ENDCHAR
STARTCHAR 0052
ENCODING 82
SWIDTH 700 0
DWIDTH 14 0
BBX 11 14 2 0
BITMAP
FF80
FFC0
00E0
0060
0060
00E0
FFE0
FFC0
C380
C380
C1C0
C0C0
C0E0
C060
ENDCHAR
STARTCHAR 0053
ENCODING 83
SWIDTH 700 0
DWIDTH 14 0
BBX 12 14 1 0
BITMAP
3FE0
7FE0
E000
C000
C000
E000
7FE0
3FF0
0070
0030
0030
0070
FFE0
FFC0
ENDCHAR
STARTCHAR 0054
ENCODING 84
SWIDTH 550 0
DWIDTH 11 0
BBX 10 14 1 0
BITMAP
FFC0
FFC0
0C00
0C00
0C00
0C00
0C00
0C00
0C00
0C00
0C00
0C00
0C00
0C00
ENDCHAR
STARTCHAR 0055
ENCODING 85
SWIDTH 750 0
DWIDTH 15 0
BBX 11 14 2 0
BITMAP
C060
C060
C060
C060
C060
C060
C060
C060
C060
C060
C060
E0E0
FFC0
7F80
ENDCHAR
STARTCHAR 0056
ENCODING 86
SWIDTH 800 0
DWIDTH 16 0
BBX 14 14 1 0
BITMAP
C01C
E01C
E018
6038
7038
7030
3070
3860
18E0
18E0
1CC0
0DC0
0F80
0780
ENDCHAR
STARTCHAR 0057
ENCODING 87
SWIDTH 1050 0
DWIDTH 21 0
BBX 19 14 1 0
BITMAP
C0E060
C1F060
C3B860
C3B8E0
E318E0
E318E0
E318E0
E718C0
671CC0
661CC0
660CC0
660DC0
7E0FC0
3C0780
ENDCHAR
STARTCHAR 0058
ENCODING 88
SWIDTH 800 0
DWIDTH 16 0
BBX 14 14 1 0
BITMAP
E01C
7038
3870
1CE0
0CC0
0FC0
0780
0780
0FC0
1CE0
3860
7070
7038
E01C
ENDCHAR
STARTCHAR 0059
ENCODING 89
SWIDTH 700 0
DWIDTH 14 0
BBX 12 14 1 0
BITMAP
C070
E060
70E0
31C0
3980
1F80
0F00
0E00
0600
0600
0600
0600
0600
0600
ENDCHAR
STARTCHAR 005A
ENCODING 90
SWIDTH 750 0
DWIDTH 15 0
BBX 13 14 1 0
BITMAP
7FF0
7FF0
0038
0038
0070
01F0
07C0
1F00
7C00
F000
E000
E000
FFF0
7FF0
ENDCHAR
STARTCHAR 005B
ENCODING 91
SWIDTH 400 0
DWIDTH 8 0
BBX 5 23 2 -5
BITMAP
F8
80
80
80
80
80
80
80
80
80
80
80
80
80
80
80
80
80
80
80
80
80
F8
ENDCHAR
STARTCHAR 005C
ENCODING 92
SWIDTH 450 0
DWIDTH 9 0
BBX 9 19 0 -4
BITMAP
C000
6000
6000
6000
3000
3000
3000
1800
1800
1800
0C00
0C00
0E00
0600
0600
0700
0300
0300
0180
ENDCHAR
STARTCHAR 005D
ENCODING 93
SWIDTH 400 0
DWIDTH 8 0
BBX 5 23 1 -5
BITMAP
F8
08
08
08
08
08
08
08
08
08
08
08
08
08
08
08
08
08
08
08
08
08
F8
ENDCHAR
STARTCHAR 005E
ENCODING 94
SWIDTH 550 0
DWIDTH 11 0
BBX 9 8 1 7
BITMAP
1C00
1400
3400
2600
6200
6300
4100
C180
ENDCHAR
STARTCHAR 005F
ENCODING 95
SWIDTH 500 0
DWIDTH 10 0
BBX 10 2 0 -4
BITMAP
FFC0
FFC0
ENDCHAR
STARTCHAR 0060
ENCODING 96
SWIDTH 350 0
DWIDTH 7 0
BBX 4 4 2 11
BITMAP
C0
60
60
30
ENDCHAR
STARTCHAR 0061
ENCODING 97
SWIDTH 650 0
DWIDTH 13 0
BBX 11 11 1 0
BITMAP
7F80
7FC0
00E0
0060
0060
7FE0
7FE0
C060
E060
7FE0
3FE0
ENDCHAR
STARTCHAR 0062
ENCODING 98
SWIDTH 700 0
DWIDTH 14 0
BBX 11 16 2 0
BITMAP
C000
C000
C000
C000
C000
FF80
FFC0
C0C0
C0E0
C060
C060
C060
C0E0
C0C0
FFC0
7F80
ENDCHAR
STARTCHAR 0063
ENCODING 99
SWIDTH 600 0
DWIDTH 12 0
BBX 10 11 1 0
BITMAP
3FC0
7FC0
6000
C000
C000
C000
C000
C000
6000
7FC0
3FC0
ENDCHAR
STARTCHAR 0064
ENCODING 100
SWIDTH 700 0
DWIDTH 14 0
BBX 11 16 1 0
BITMAP
0060
0060
0060
0060
0060
3FE0
7FE0
6060
C060
C060
C060
C060
C060
6060
7FE0
3FC0
ENDCHAR
STARTCHAR 0065
ENCODING 101
SWIDTH 650 0
DWIDTH 13 0
BBX 11 11 1 0
BITMAP
3FC0
7FE0
E060
C060
C060
FFC0
FF80
C000
E000
7FC0
3FC0
ENDCHAR
STARTCHAR 0066
ENCODING 102
SWIDTH 400 0
DWIDTH 8 0
BBX 7 15 0 0
BITMAP
1E
3E
30
30
FE
FE
30
30
30
30
30
30
30
30
30
ENDCHAR
STARTCHAR 0067
ENCODING 103
SWIDTH 700 0
DWIDTH 14 0
BBX 11 15 1 -4
BITMAP
3FC0
7FE0
60E0
C060
C060
C060
C060
C060
6060
7FE0
3FE0
0060
0060
7FE0
7FC0
ENDCHAR
STARTCHAR 0068
ENCODING 104
SWIDTH 700 0
DWIDTH 14 0
BBX 11 16 2 0
BITMAP
C000
C000
C000
C000
C000
FF00
FFC0
C1C0
C0E0
C060
C060
C060
C060
C060
C060
C060
ENDCHAR
STARTCHAR 0069
ENCODING 105
SWIDTH 250 0
DWIDTH 5 0
BBX 2 14 2 0
BITMAP
C0
C0
00
00
C0
C0
C0
C0
C0
C0
C0
C0
C0
C0
ENDCHAR
STARTCHAR 006A
ENCODING 106
SWIDTH 250 0
DWIDTH 5 0
BBX 5 18 -1 -4
BITMAP
18
18
00
18
18
18
18
18
18
18
18
18
18
18
18
18
F8
F0
ENDCHAR
STARTCHAR 006B
ENCODING 107
SWIDTH 600 0
DWIDTH 12 0
BBX 9 15 2 0
BITMAP
C000
C000
C000
C000
C000
C180
C300
C700
C600
FC00
FE00
C700
C300
C380
C180
ENDCHAR
STARTCHAR 006C
ENCODING 108
SWIDTH 250 0
DWIDTH 5 0
BBX 2 15 2 0
BITMAP
C0
C0
C0
C0
C0
C0
C0
C0
C0
C0
C0
C0
C0
C0
C0
ENDCHAR
STARTCHAR 006D
ENCODING 109
SWIDTH 1050 0
DWIDTH 21 0
BBX 17 11 2 0
BITMAP
FFFE00
FFFF00
C18380
C18180
C18180
C18180
C18180
C18180
C18180
C18180
C18180
ENDCHAR
STARTCHAR 006E
ENCODING 110
SWIDTH 700 0
DWIDTH 14 0
BBX 11 11 2 0
BITMAP
FF00
FFC0
C1C0
C0E0
C060
C060
C060
C060
C060
C060
C060
ENDCHAR
STARTCHAR 006F
ENCODING 111
SWIDTH 650 0
DWIDTH 13 0
BBX 11 11 1 0
BITMAP
3F80
7FC0
60E0
C060
C060
C060
C060
C060
60E0
7FC0
3F80
ENDCHAR
STARTCHAR 0070
ENCODING 112
SWIDTH 700 0
DWIDTH 14 0
BBX 12 15 1 -4
BITMAP
3FC0
7FE0
6060
6070
E030
E030
E030
E070
E060
FFE0
FFC0
E000
E000
E000
E000
ENDCHAR
STARTCHAR 0071
ENCODING 113
SWIDTH 700 0
DWIDTH 14 0
BBX 11 15 1 -4
BITMAP
3FC0
7FE0
6060
C060
C060
C060
C060
C060
6060
7FE0
3FE0
0060
0060
0060
0060
ENDCHAR
STARTCHAR 0072
ENCODING 114
SWIDTH 450 0
DWIDTH 9 0
BBX 8 11 1 0
BITMAP
7F
7F
60
E0
E0
E0
E0
E0
E0
E0
E0
ENDCHAR
STARTCHAR 0073
ENCODING 115
SWIDTH 600 0
DWIDTH 12 0
BBX 10 11 1 0
BITMAP
7F80
FF80
C000
C000
C000
7F80
3F80
00C0
00C0
FF80
FF00
ENDCHAR
STARTCHAR 0074
ENCODING 116
SWIDTH 400 0
DWIDTH 8 0
BBX 7 14 0 0
BITMAP
30
30
30
FE
FE
30
30
30
30
30
30
30
3E
1E
ENDCHAR
STARTCHAR 0075
ENCODING 117
SWIDTH 700 0
DWIDTH 14 0
BBX 12 11 1 0
BITMAP
E070
E070
E070
E070
E070
E070
E070
E070
6060
7FE0
1F80
ENDCHAR
STARTCHAR 0076
ENCODING 118
SWIDTH 700 0
DWIDTH 14 0
BBX 12 11 1 0
BITMAP
C030
C070
E060
60E0
60C0
30C0
3180
3980
1B80
1F00
0E00
ENDCHAR
STARTCHAR 0077
ENCODING 119
SWIDTH 1000 0
DWIDTH 20 0
BBX 18 11 1 0
BITMAP
C1E0C0
C3E1C0
C331C0
C33180
C63180
C63180
E63980
661980
6E1980
7C1F80
380F00
ENDCHAR
STARTCHAR 0078
ENCODING 120
SWIDTH 700 0
DWIDTH 14 0
BBX 12 11 1 0
BITMAP
E070
70E0
39C0
1B80
0F00
0E00
1F00
1B80
31C0
60E0
C070
ENDCHAR
STARTCHAR 0079
ENCODING 121
SWIDTH 650 0
DWIDTH 13 0
BBX 11 15 1 -4
BITMAP
C060
C060
E0E0
60C0
61C0
3180
3180
3B00
1F00
1F00
0600
0E00
0C00
0C00
1800
ENDCHAR
STARTCHAR 007A
ENCODING 122
SWIDTH 600 0
DWIDTH 12 0
BBX 10 11 1 0
BITMAP
FFC0
FFC0
00C0
00C0
07C0
1F00
7800
E000
C000
FFC0
7FC0
ENDCHAR
STARTCHAR 007B
ENCODING 123
SWIDTH 400 0
DWIDTH 8 0
BBX 6 23 1 -5
BITMAP
1C
18
30
30
30
30
30
30
30
30
30
E0
60
30
30
30
30
30
30
30
30
10
1C
ENDCHAR
STARTCHAR 007C
ENCODING 124
SWIDTH 300 0
DWIDTH 6 0
BBX 2 19 2 -3
BITMAP
C0
C0
C0
C0
C0
C0
C0
C0
C0
C0
C0
C0
C0
C0
C0
C0
C0
C0
C0
ENDCHAR
STARTCHAR 007D
ENCODING 125
SWIDTH 400 0
DWIDTH 8 0
BBX 6 23 1 -5
BITMAP
C0
60
20
20
20
20
20
20
20
20
30
1C
30
30
20
20
20
20
20
20
20
20
E0
ENDCHAR
STARTCHAR 007E
ENCODING 126
SWIDTH 600 0
DWIDTH 12 0
BBX 11 3 1 5
BITMAP
F820
8F60
03C0
ENDCHAR
STARTCHAR 00A0
ENCODING 160
SWIDTH 250 0
DWIDTH 5 0
BBX 0 0 0 0
BITMAP
ENDCHAR
STARTCHAR 00A1
ENCODING 161
SWIDTH 250 0
DWIDTH 5 0
BBX 3 14 1 -3
BITMAP
E0
E0
E0
00
00
C0
C0
C0
C0
C0
C0
E0
E0
E0
ENDCHAR
STARTCHAR 00A2
ENCODING 162
SWIDTH 600 0
DWIDTH 12 0
BBX 10 16 1 -1
BITMAP
0600
0600
0600
3FC0
7FC0
6000
E000
C000
C000
C000
E000
6000
7FC0
3FC0
0600
0600
ENDCHAR
STARTCHAR 00A3
ENCODING 163
SWIDTH 650 0
DWIDTH 13 0
BBX 11 14 1 0
BITMAP
07E0
1FE0
1C00
3800
3800
3800
FFC0
FFC0
3800
3800
3800
3800
FFE0
FFE0
ENDCHAR
STARTCHAR 00A4
ENCODING 164
SWIDTH 650 0
DWIDTH 13 0
BBX 11 10 1 2
BITMAP
C060
7FC0
60C0
60C0
4040
4040
60C0
60C0
7FC0
C060
ENDCHAR
STARTCHAR 00A5
ENCODING 165
SWIDTH 700 0
DWIDTH 14 0
BBX 12 14 1 0
BITMAP
C070
E060
70E0
31C0
3980
1F80
0F00
FFF0
0600
0600
0600
FFF0
0600
0600
ENDCHAR
STARTCHAR 00A6
ENCODING 166
SWIDTH 300 0
DWIDTH 6 0
BBX 2 19 2 -3
BITMAP
C0
C0
C0
C0
C0
C0
C0
C0
00
00
00
C0
C0
C0
C0
C0
C0
C0
C0
ENDCHAR
STARTCHAR 00A7
ENCODING 167
SWIDTH 650 0
DWIDTH 13 0
BBX 11 18 1 -4
BITMAP
7FE0
FFE0
C000
C000
C000
FF00
7F80
3180
3180
3180
3180
3FC0
1FE0
0060
0060
0060
FFE0
FFC0
ENDCHAR
STARTCHAR 00A8
ENCODING 168
SWIDTH 450 0
DWIDTH 9 0
BBX 7 2 1 12
BITMAP
C6
C6
ENDCHAR
STARTCHAR 00A9
ENCODING 169
SWIDTH 800 0
DWIDTH 16 0
BBX 14 14 1 0
BITMAP
1FE0
3830
6018
47CC
CC04
C804
8804
8804
C804
C7CC
400C
6018
3830
0FE0
ENDCHAR
STARTCHAR 00AA
ENCODING 170
SWIDTH 450 0
DWIDTH 9 0
BBX 7 7 1 7
BITMAP
7C
06
02
7E
C2
C2
FE
ENDCHAR
STARTCHAR 00AB
ENCODING 171
SWIDTH 400 0
DWIDTH 8 0
BBX 7 11 1 0
BITMAP
26
64
4C
C8
98
90
98
C8
4C
64
26
ENDCHAR
STARTCHAR 00AC
ENCODING 172
SWIDTH 600 0
DWIDTH 12 0
BBX 11 8 1 0
BITMAP
FFE0
0060
0060
0060
0060
0060
0060
0060
ENDCHAR
STARTCHAR 00AD
ENCODING 173
SWIDTH 400 0
DWIDTH 8 0
BBX 7 2 1 5
BITMAP
FE
FE
ENDCHAR
STARTCHAR 00AE
ENCODING 174
SWIDTH 800 0
DWIDTH 16 0
BBX 14 14 1 0
BITMAP
1FE0
3830
6018
4FCC
C044
8044
8FC4
8884
C884
C84C
400C
6018
3830
1FE0
ENDCHAR
STARTCHAR 00AF
ENCODING 175
SWIDTH 550 0
DWIDTH 11 0
BBX 9 2 1 12
BITMAP
FF80
FF80
ENDCHAR
STARTCHAR 00B0
ENCODING 176
SWIDTH 400 0
DWIDTH 8 0
BBX 6 6 1 8
BITMAP
78
CC
84
84
84
FC
ENDCHAR
STARTCHAR 00B1
ENCODING 177
SWIDTH 600 0
DWIDTH 12 0
BBX 11 13 1 1
BITMAP
0C00
0C00
0C00
0C00
0C00
FFE0
0C00
0C00
0C00
0C00
0C00
0000
FFE0
ENDCHAR
STARTCHAR 00B2
ENCODING 178
SWIDTH 400 0
DWIDTH 8 0
BBX 6 7 1 7
BITMAP
FC
04
04
7C
E0
80
FC
ENDCHAR
STARTCHAR 00B3
ENCODING 179
SWIDTH 400 0
DWIDTH 8 0
BBX 6 7 1 7
BITMAP
F8
0C
04
78
0C
04
FC
ENDCHAR
STARTCHAR 00B4
ENCODING 180
SWIDTH 350 0
DWIDTH 7 0
BBX 4 4 1 11
BITMAP
70
60
C0
C0
ENDCHAR
STARTCHAR 00B6
ENCODING 182
SWIDTH 750 0
DWIDTH 15 0
BBX 12 19 1 -4
BITMAP
7FE0
FFF0
C030
C030
C030
FC30
7E30
0630
0630
0630
0630
0630
0630
0630
0630
0630
0630
0630
0630
ENDCHAR
STARTCHAR 00B7
ENCODING 183
SWIDTH 250 0
DWIDTH 5 0
BBX 3 3 1 5
BITMAP
E0
E0
E0
ENDCHAR
STARTCHAR 00B8
ENCODING 184
SWIDTH 250 0
DWIDTH 5 0
BBX 3 5 1 -5
BITMAP
60
60
60
E0
C0
ENDCHAR
STARTCHAR 00B9
ENCODING 185
SWIDTH 400 0
DWIDTH 8 0
BBX 4 7 2 7
BITMAP
E0
30
30
30
30
30
30
ENDCHAR
STARTCHAR 00BA
ENCODING 186
SWIDTH 500 0
DWIDTH 10 0
BBX 8 7 1 7
BITMAP
7C
E6
C2
83
C2
C2
7E
ENDCHAR
STARTCHAR 00BB
ENCODING 187
SWIDTH 400 0
DWIDTH 8 0
BBX 7 11 1 0
BITMAP
98
C8
4C
64
26
26
26
64
4C
C8
98
ENDCHAR
STARTCHAR 00BC
ENCODING 188
SWIDTH 850 0
DWIDTH 17 0
BBX 14 14 2 0
BITMAP
E030
2020
2040
20C0
2180
2300
2200
263C
0C6C
18CC
118C
31FC
600C
C00C
ENDCHAR
STARTCHAR 00BD
ENCODING 189
SWIDTH 850 0
DWIDTH 17 0
BBX 15 14 1 0
BITMAP
E010
3030
3060
30C0
3080
3180
3300
367E
0402
0C06
187C
3040
2040
607E
ENDCHAR
STARTCHAR 00BE
ENCODING 190
SWIDTH 850 0
DWIDTH 17 0
BBX 15 14 1 0
BITMAP
F80C
0C18
0430
7820
0C60
04C0
0D80
F91E
0312
0632
0C62
087E
1802
3002
ENDCHAR
STARTCHAR 00BF
ENCODING 191
SWIDTH 550 0
DWIDTH 11 0
BBX 10 14 1 -3
BITMAP
0600
0600
0600
0000
0000
0600
0600
7E00
FC00
C000
C000
C000
FFC0
7FC0
ENDCHAR
STARTCHAR 00C0
ENCODING 192
SWIDTH 800 0
DWIDTH 16 0
BBX 14 19 1 0
BITMAP
0600
0600
0300
0380
0000
0780
0FC0
0FC0
1CC0
1CE0
1860
3870
3070
3030
7038
6038
E018
E01C
C00C
ENDCHAR
STARTCHAR 00C1
ENCODING 193
SWIDTH 800 0
DWIDTH 16 0
BBX 14 19 1 0
BITMAP
0180
0380
0300
0600
0000
0780
0FC0
0FC0
1CC0
1CE0
1860
3870
3070
3030
7038
6038
E018
E01C
C00C
ENDCHAR
STARTCHAR 00C2
ENCODING 194
SWIDTH 800 0
DWIDTH 16 0
BBX 14 19 1 0
BITMAP
0300
0780
0DC0
0CC0
1860
0780
0FC0
0FC0
1CC0
1CE0
1860
3870
3070
3030
7038
6038
E018
E01C
C00C
ENDCHAR
STARTCHAR 00C3
ENCODING 195
SWIDTH 800 0
DWIDTH 16 0
BBX 14 18 1 0
BITMAP
3FE0
3FE0
0000
0000
0780
0FC0
0FC0
1CC0
1CE0
1860
3870
3070
3030
7038
6038
E018
E01C
C00C
ENDCHAR
STARTCHAR 00C4
ENCODING 196
SWIDTH 800 0
DWIDTH 16 0
BBX 14 18 1 0
BITMAP
1CC0
1CC0
0000
0000
0780
0FC0
0FC0
1CC0
1CE0
1860
3870
3070
3030
7038
6038
E018
E01C
C00C
ENDCHAR
STARTCHAR 00C5
ENCODING 197
SWIDTH 800 0
DWIDTH 16 0
BBX 14 19 1 0
BITMAP
0780
0880
08C0
0880
0780
0780
0FC0
0FC0
1CC0
1CE0
1860
3870
3070
3030
7038
6038
E018
E01C
C00C
ENDCHAR
STARTCHAR 00C6
ENCODING 198
SWIDTH 1000 0
DWIDTH 20 0
BBX 18 14 1 0
BITMAP
07FFC0
0FFFC0
0CC000
1CC000
18C000
18C000
38FFC0
30FFC0
70C000
70C000
60C000
E0F000
C07FC0
C03FC0
ENDCHAR
STARTCHAR 00C7
ENCODING 199
SWIDTH 700 0
DWIDTH 14 0
BBX 11 19 1 -5
BITMAP
1FE0
3FE0
7800
6000
E000
E000
E000
E000
E000
E000
6000
7800
3FE0
1FE0
0300
0300
0300
0700
0600
ENDCHAR
STARTCHAR 00C8
ENCODING 200
SWIDTH 700 0
DWIDTH 14 0
BBX 11 19 1 0
BITMAP
0600
0600
0300
0300
0000
3FE0
7FE0
F000
E000
E000
E000
7FE0
7FE0
E000
E000
E000
F000
7FE0
3FE0
ENDCHAR
STARTCHAR 00C9
ENCODING 201
SWIDTH 700 0
DWIDTH 14 0
BBX 11 19 1 0
BITMAP
0180
0300
0300
0600
0000
3FE0
7FE0
F000
E000
E000
E000
7FE0
7FE0
E000
E000
E000
F000
7FE0
3FE0
ENDCHAR
STARTCHAR 00CA
ENCODING 202
SWIDTH 700 0
DWIDTH 14 0
BBX 11 19 1 0
BITMAP
0700
0F80
0DC0
18C0
0000
3FE0
7FE0
F000
E000
E000
E000
7FE0
7FE0
E000
E000
E000
F000
7FE0
3FE0
ENDCHAR
STARTCHAR 00CB
ENCODING 203
SWIDTH 700 0
DWIDTH 14 0
BBX 11 18 1 0
BITMAP
18C0
18C0
0000
0000
3FE0
7FE0
F000
E000
E000
E000
7FE0
7FE0
E000
E000
E000
F000
7FE0
3FE0
ENDCHAR
STARTCHAR 00CC
ENCODING 204
SWIDTH 300 0
DWIDTH 6 0
BBX 4 19 1 0
BITMAP
C0
E0
60
30
00
60
60
60
60
60
60
60
60
60
60
60
60
60
60
ENDCHAR
STARTCHAR 00CD
ENCODING 205
SWIDTH 300 0
DWIDTH 6 0
BBX 4 19 1 0
BITMAP
30
60
60
C0
00
60
60
60
60
60
60
60
60
60
60
60
60
60
60
ENDCHAR
STARTCHAR 00CE
ENCODING 206
SWIDTH 350 0
DWIDTH 7 0
BBX 7 19 0 0
BITMAP
38
7C
6E
C6
00
38
38
38
38
38
38
38
38
38
38
38
38
38
38
ENDCHAR
STARTCHAR 00CF
ENCODING 207
SWIDTH 300 0
DWIDTH 6 0
BBX 7 18 0 0
BITMAP
CE
CE
00
00
30
30
30
30
30
30
30
30
30
30
30
30
30
30
ENDCHAR
STARTCHAR 00D0
ENCODING 208
SWIDTH 750 0
DWIDTH 15 0
BBX 14 14 0 0
BITMAP
3FC0
3FF0
3078
3038
3018
301C
FF1C
FF1C
301C
3018
3038
3078
3FF0
3FC0
ENDCHAR
STARTCHAR 00D1
ENCODING 209
SWIDTH 900 0
DWIDTH 18 0
BBX 14 18 2 0
BITMAP
3FE0
3FE0
0000
0000
780C
FC0C
DC0C
CE0C
CE0C
C60C
C70C
C30C
C38C
C18C
C1CC
C0DC
C0FC
C078
ENDCHAR
STARTCHAR 00D2
ENCODING 210
SWIDTH 800 0
DWIDTH 16 0
BBX 14 19 1 0
BITMAP
0600
0700
0300
0180
0000
1FE0
3FF0
7878
601C
E01C
E00C
E00C
E00C
E00C
E01C
601C
7878
3FF0
1FE0
ENDCHAR
STARTCHAR 00D3
ENCODING 211
SWIDTH 800 0
DWIDTH 16 0
BBX 14 19 1 0
BITMAP
0180
0180
0300
0300
0000
1FE0
3FF0
7878
601C
E01C
E00C
E00C
E00C
E00C
E01C
601C
7878
3FF0
1FE0
ENDCHAR
STARTCHAR 00D4
ENCODING 212
SWIDTH 800 0
DWIDTH 16 0
BBX 14 19 1 0
BITMAP
0780
07C0
0CC0
0CE0
0000
1FE0
3FF0
7878
601C
E01C
E00C
E00C
E00C
E00C
E01C
601C
7878
3FF0
1FE0
ENDCHAR
STARTCHAR 00D5
ENCODING 213
SWIDTH 800 0
DWIDTH 16 0
BBX 14 18 1 0
BITMAP
1FF0
1FF0
0000
0000
1FE0
3FF0
7878
601C
E01C
E00C
E00C
E00C
E00C
E01C
601C
7878
3FF0
1FE0
ENDCHAR
STARTCHAR 00D6
ENCODING 214
SWIDTH 800 0
DWIDTH 16 0
BBX 14 18 1 0
BITMAP
0CE0
0CE0
0000
0000
1FE0
3FF0
7878
601C
E01C
E00C
E00C
E00C
E00C
E01C
601C
7878
3FF0
1FE0
ENDCHAR
STARTCHAR 00D7
ENCODING 215
SWIDTH 600 0
DWIDTH 12 0
BBX 9 9 2 2
BITMAP
8180
C300
6600
3C00
1800
3C00
6600
C300
8100
ENDCHAR
STARTCHAR 00D8
ENCODING 216
SWIDTH 800 0
DWIDTH 16 0
BBX 14 16 1 -1
BITMAP
0010
1FF0
3FF0
7878
60DC
E09C
E18C
E10C
E30C
E60C
E61C
6C1C
7878
3FF0
1FE0
3000
ENDCHAR
STARTCHAR 00D9
ENCODING 217
SWIDTH 750 0
DWIDTH 15 0
BBX 11 19 2 0
BITMAP
1800
0C00
0C00
0600
0000
C060
C060
C060
C060
C060
C060
C060
C060
C060
C060
C060
E0E0
FFC0
7F80
ENDCHAR
STARTCHAR 00DA
ENCODING 218
SWIDTH 750 0
DWIDTH 15 0
BBX 11 19 2 0
BITMAP
0700
0600
0C00
0C00
0000
C060
C060
C060
C060
C060
C060
C060
C060
C060
C060
C060
E0E0
FFC0
7F80
ENDCHAR
STARTCHAR 00DB
ENCODING 219
SWIDTH 750 0
DWIDTH 15 0
BBX 11 19 2 0
BITMAP
0E00
1F00
3B00
3180
0000
C060
C060
C060
C060
C060
C060
C060
C060
C060
C060
C060
E0E0
FFC0
7F80
ENDCHAR
STARTCHAR 00DC
ENCODING 220
SWIDTH 750 0
DWIDTH 15 0
BBX 11 18 2 0
BITMAP
3180
3180
0000
0000
C060
C060
C060
C060
C060
C060
C060
C060
C060
C060
C060
E0E0
FFC0
7F80
ENDCHAR
STARTCHAR 00DD
ENCODING 221
SWIDTH 700 0
DWIDTH 14 0
BBX 12 19 1 0
BITMAP
0300
0700
0600
0C00
0000
C070
E060
70E0
31C0
3980
1F80
0F00
0E00
0600
0600
0600
0600
0600
0600
ENDCHAR
STARTCHAR 00DE
ENCODING 222
SWIDTH 700 0
DWIDTH 14 0
BBX 11 14 2 0
BITMAP
C000
C000
C000
FF80
FFC0
00E0
00E0
00E0
00E0
FFC0
FF80
C000
C000
C000
ENDCHAR
STARTCHAR 00DF
ENCODING 223
SWIDTH 850 0
DWIDTH 17 0
BBX 14 15 2 0
BITMAP
7E00
FF00
C300
C300
C300
C300
C3F0
C1F8
C01C
C00C
C00C
C00C
C01C
C7F8
C7F0
ENDCHAR
STARTCHAR 00E0
ENCODING 224
SWIDTH 650 0
DWIDTH 13 0
BBX 11 15 1 0
BITMAP
0C00
0E00
0600
0700
0000
7FC0
7FE0
0060
0060
7FE0
7FE0
C060
E060
7FE0
3FE0
ENDCHAR
STARTCHAR 00E1
ENCODING 225
SWIDTH 650 0
DWIDTH 13 0
BBX 11 15 1 0
BITMAP
0700
0600
0E00
0C00
0000
7FC0
7FE0
0060
0060
7FE0
7FE0
C060
E060
7FE0
3FE0
ENDCHAR
STARTCHAR 00E2
ENCODING 226
SWIDTH 650 0
DWIDTH 13 0
BBX 11 16 1 0
BITMAP
0600
0F00
1B80
3980
0000
7F80
7FC0
00E0
0060
0060
7FE0
7FE0
C060
E060
7FE0
3FE0
ENDCHAR
STARTCHAR 00E3
ENCODING 227
SWIDTH 650 0
DWIDTH 13 0
BBX 11 14 1 0
BITMAP
7FC0
7FC0
0000
7F80
7FC0
00E0
0060
0060
7FE0
7FE0
C060
E060
7FE0
3FE0
ENDCHAR
STARTCHAR 00E4
ENCODING 228
SWIDTH 650 0
DWIDTH 13 0
BBX 11 14 1 0
BITMAP
3180
3180
0000
7F80
7FC0
00E0
0060
0060
7FE0
7FE0
C060
E060
7FE0
3FE0
ENDCHAR
STARTCHAR 00E5
ENCODING 229
SWIDTH 650 0
DWIDTH 13 0
BBX 11 16 1 0
BITMAP
0F00
1100
1100
0F00
0000
7F80
7FC0
00E0
0060
0060
7FE0
7FE0
C060
E060
7FE0
3FE0
ENDCHAR
STARTCHAR 00E6
ENCODING 230
SWIDTH 1100 0
DWIDTH 22 0
BBX 20 11 1 0
BITMAP
7FBFC0
7FFFE0
00E070
006030
006060
7FFFE0
7FFFC0
C06000
E06000
7FFFE0
3FFFE0
ENDCHAR
STARTCHAR 00E7
ENCODING 231
SWIDTH 600 0
DWIDTH 12 0
BBX 10 16 1 -5
BITMAP
3FC0
7FC0
6000
C000
C000
C000
C000
C000
6000
7FC0
3FC0
0600
0600
0600
0E00
0C00
ENDCHAR
STARTCHAR 00E8
ENCODING 232
SWIDTH 650 0
DWIDTH 13 0
BBX 11 15 1 0
BITMAP
0C00
0C00
0600
0600
0000
3FC0
7FE0
E060
C060
FFE0
FF80
C000
E000
7FC0
3FC0
ENDCHAR
STARTCHAR 00E9
ENCODING 233
SWIDTH 650 0
DWIDTH 13 0
BBX 11 15 1 0
BITMAP
0700
0600
0E00
0C00
0000
3FC0
7FE0
E060
C060
FFE0
FF80
C000
E000
7FC0
3FC0
ENDCHAR
STARTCHAR 00EA
ENCODING 234
SWIDTH 650 0
DWIDTH 13 0
BBX 11 16 1 0
BITMAP
0400
1F00
1B00
3180
0000
3FC0
7FE0
E060
C060
C060
FFC0
FF80
C000
E000
7FC0
3FC0
ENDCHAR
STARTCHAR 00EB
ENCODING 235
SWIDTH 650 0
DWIDTH 13 0
BBX 11 14 1 0
BITMAP
3180
3180
0000
3FC0
7FE0
E060
C060
C060
FFC0
FF80
C000
E000
7FC0
3FC0
ENDCHAR
STARTCHAR 00EC
ENCODING 236
SWIDTH 300 0
DWIDTH 6 0
BBX 4 15 1 0
BITMAP
C0
E0
60
30
00
60
60
60
60
60
60
60
60
60
60
ENDCHAR
STARTCHAR 00ED
ENCODING 237
SWIDTH 300 0
DWIDTH 6 0
BBX 4 15 1 0
BITMAP
70
60
E0
C0
00
60
60
60
60
60
60
60
60
60
60
ENDCHAR
STARTCHAR 00EE
ENCODING 238
SWIDTH 350 0
DWIDTH 7 0
BBX 8 16 0 0
BITMAP
18
7C
6C
E6
C7
18
18
18
18
18
18
18
18
18
18
18
ENDCHAR
STARTCHAR 00EF
ENCODING 239
SWIDTH 350 0
DWIDTH 7 0
BBX 7 14 0 0
BITMAP
C6
C6
00
00
38
38
38
38
38
38
38
38
38
38
ENDCHAR
STARTCHAR 00F0
ENCODING 240
SWIDTH 700 0
DWIDTH 14 0
BBX 11 16 1 0
BITMAP
0600
1FC0
1FE0
0860
1860
0060
1FE0
7FE0
6060
C060
C060
C060
C060
E060
7FE0
3FC0
ENDCHAR
STARTCHAR 00F1
ENCODING 241
SWIDTH 700 0
DWIDTH 14 0
BBX 11 14 2 0
BITMAP
FFC0
FFC0
0000
FF00
FFC0
C1C0
C0E0
C060
C060
C060
C060
C060
C060
C060
ENDCHAR
STARTCHAR 00F2
ENCODING 242
SWIDTH 650 0
DWIDTH 13 0
BBX 11 15 1 0
BITMAP
0C00
0C00
0600
0600
0000
3F80
7FC0
E0E0
C060
C060
C060
C060
E0E0
7FC0
3F80
ENDCHAR
STARTCHAR 00F3
ENCODING 243
SWIDTH 650 0
DWIDTH 13 0
BBX 11 15 1 0
BITMAP
0700
0600
0E00
0C00
0000
3F80
7FC0
E0E0
C060
C060
C060
C060
E0E0
7FC0
3F80
ENDCHAR
STARTCHAR 00F4
ENCODING 244
SWIDTH 650 0
DWIDTH 13 0
BBX 11 16 1 0
BITMAP
0600
1F00
1B80
3980
0000
3F80
7FC0
60E0
C060
C060
C060
C060
C060
60E0
7FC0
3F80
ENDCHAR
STARTCHAR 00F5
ENCODING 245
SWIDTH 650 0
DWIDTH 13 0
BBX 11 14 1 0
BITMAP
7FC0
7FC0
0000
3F80
7FC0
60E0
C060
C060
C060
C060
C060
60E0
7FC0
3F80
ENDCHAR
STARTCHAR 00F6
ENCODING 246
SWIDTH 650 0
DWIDTH 13 0
BBX 11 14 1 0
BITMAP
3180
3180
0000
3F80
7FC0
60E0
C060
C060
C060
C060
C060
60E0
7FC0
3F80
ENDCHAR
STARTCHAR 00F7
ENCODING 247
SWIDTH 600 0
DWIDTH 12 0
BBX 11 13 1 0
BITMAP
0C00
0C00
0C00
0000
0000
0000
FFE0
0000
0000
0000
0C00
0C00
0C00
ENDCHAR
STARTCHAR 00F8
ENCODING 248
SWIDTH 650 0
DWIDTH 13 0
BBX 11 14 1 -1
BITMAP
0060
00C0
3FC0
7FC0
61E0
C360
C660
C460
CC60
C860
78E0
7FC0
3F80
6000
ENDCHAR
STARTCHAR 00F9
ENCODING 249
SWIDTH 700 0
DWIDTH 14 0
BBX 12 15 1 0
BITMAP
0C00
0600
0600
0300
0000
E070
E070
E070
E070
E070
E070
E070
6060
7FE0
1F80
ENDCHAR
STARTCHAR 00FA
ENCODING 250
SWIDTH 700 0
DWIDTH 14 0
BBX 12 15 1 0
BITMAP
0300
0700
0600
0C00
0000
E070
E070
E070
E070
E070
E070
E070
6060
7FE0
1F80
ENDCHAR
STARTCHAR 00FB
ENCODING 251
SWIDTH 700 0
DWIDTH 14 0
BBX 12 16 1 0
BITMAP
0600
0F00
1980
1980
30C0
E070
E070
E070
E070
E070
E070
E070
E070
6060
7FE0
1F80
ENDCHAR
STARTCHAR 00FC
ENCODING 252
SWIDTH 700 0
DWIDTH 14 0
BBX 12 14 1 0
BITMAP
1980
1980
0000
0000
E070
E070
E070
E070
E070
E070
E070
6060
7FE0
1F80
ENDCHAR
STARTCHAR 00FD
ENCODING 253
SWIDTH 650 0
DWIDTH 13 0
BBX 11 20 1 -5
BITMAP
0600
0600
0C00
0C00
0000
C060
C060
E0C0
60C0
7180
3180
3380
3B00
1F00
1E00
0600
0C00
0C00
1C00
1800
ENDCHAR
STARTCHAR 00FE
ENCODING 254
SWIDTH 700 0
DWIDTH 14 0
BBX 11 20 2 -4
BITMAP
C000
C000
C000
C000
C000
FF80
FFC0
00C0
00E0
0060
0060
0060
00E0
00C0
FFC0
FF80
C000
C000
C000
C000
ENDCHAR
STARTCHAR 00FF
ENCODING 255
SWIDTH 650 0
DWIDTH 13 0
BBX 11 19 1 -5
BITMAP
3180
3180
0000
0000
C060
C0E0
60C0
60C0
7180
3180
3380
3B00
1F00
1E00
0600
0C00
0C00
1C00
1800
ENDCHAR
STARTCHAR 0100
ENCODING 256
SWIDTH 800 0
DWIDTH 16 0
BBX 14 18 1 0
BITMAP
3FE0
3FE0
0000
0000
0780
0FC0
0FC0
1CC0
1CE0
1860
3870
3070
3030
7038
6038
E018
E01C
C00C
ENDCHAR
STARTCHAR 0101
ENCODING 257
SWIDTH 650 0
DWIDTH 13 0
BBX 11 14 1 0
BITMAP
7FC0
7FC0
0000
7F80
7FC0
00E0
0060
0060
7FE0
7FE0
C060
E060
7FE0
3FE0
ENDCHAR
STARTCHAR 0102
ENCODING 258
SWIDTH 800 0
DWIDTH 16 0
BBX 14 19 1 0
BITMAP
1860
1860
1860
1FC0
0000
0780
0FC0
0FC0
1CC0
1CE0
1860
3870
3070
3030
7038
6038
E018
E01C
C00C
ENDCHAR
STARTCHAR 0103
ENCODING 259
SWIDTH 650 0
DWIDTH 13 0
BBX 11 15 1 0
BITMAP
30C0
30C0
39C0
1F80
0000
7FC0
7FE0
0060
0060
7FE0
7FE0
C060
E060
7FE0
3FE0
ENDCHAR
STARTCHAR 0104
ENCODING 260
SWIDTH 800 0
DWIDTH 16 0
BBX 15 19 1 -5
BITMAP
0780
0FC0
0FC0
1CC0
1CE0
1860
3870
3070
3030
7038
6038
E018
E01C
C00C
0008
0030
0030
003E
003E
ENDCHAR
STARTCHAR 0105
ENCODING 261
SWIDTH 650 0
DWIDTH 13 0
BBX 11 16 1 -5
BITMAP
7F80
7FC0
00E0
0060
0060
7FE0
7FE0
C060
E060
7FE0
3FE0
0200
0C00
0C00
0F80
0780
ENDCHAR
STARTCHAR 0106
ENCODING 262
SWIDTH 700 0
DWIDTH 14 0
BBX 11 19 1 0
BITMAP
0180
0380
0300
0700
0000
1FE0
3FE0
7800
6000
E000
E000
E000
E000
E000
E000
6000
7800
3FE0
1FE0
ENDCHAR
STARTCHAR 0107
ENCODING 263
SWIDTH 600 0
DWIDTH 12 0
BBX 10 15 1 0
BITMAP
0300
0600
0600
0C00
0000
3FC0
7FC0
E000
C000
C000
C000
C000
E000
7FC0
3FC0
ENDCHAR
STARTCHAR 010A
ENCODING 266
SWIDTH 700 0
DWIDTH 14 0
BBX 11 18 1 0
BITMAP
0300
0300
0000
0000
1FE0
3FE0
7800
6000
E000
E000
E000
E000
E000
E000
6000
7800
3FE0
1FE0
ENDCHAR
STARTCHAR 010B
ENCODING 267
SWIDTH 600 0
DWIDTH 12 0
BBX 10 14 1 0
BITMAP
0600
0600
0000
3FC0
7FC0
6000
C000
C000
C000
C000
C000
6000
7FC0
3FC0
ENDCHAR
STARTCHAR 010C
ENCODING 268
SWIDTH 700 0
DWIDTH 14 0
BBX 11 19 1 0
BITMAP
1CC0
0CC0
0F80
0780
0000
1FE0
3FE0
7800
6000
E000
E000
E000
E000
E000
E000
6000
7800
3FE0
1FE0
ENDCHAR
STARTCHAR 010D
ENCODING 269
SWIDTH 600 0
DWIDTH 12 0
BBX 10 16 1 0
BITMAP
31C0
3980
1B80
0F00
0600
0000
3FC0
7FC0
E000
C000
C000
C000
C000
E000
7FC0
3FC0
ENDCHAR
STARTCHAR 010E
ENCODING 270
SWIDTH 750 0
DWIDTH 15 0
BBX 12 19 2 0
BITMAP
6300
3700
3E00
1C00
0000
FF00
FFC0
C1E0
C0E0
C060
C070
C070
C070
C070
C060
C0E0
C1E0
FFC0
FF00
ENDCHAR
STARTCHAR 010F
ENCODING 271
SWIDTH 800 0
DWIDTH 16 0
BBX 15 16 1 0
BITMAP
0064
0066
0066
0066
006E
3FEC
7FE0
6060
C060
C060
C060
C060
C060
6060
7FE0
3FC0
ENDCHAR
STARTCHAR 0110
ENCODING 272
SWIDTH 750 0
DWIDTH 15 0
BBX 14 14 0 0
BITMAP
3FC0
3FF0
3078
3038
3018
301C
FF1C
FF1C
301C
3018
3038
3078
3FF0
3FC0
ENDCHAR
STARTCHAR 0111
ENCODING 273
SWIDTH 700 0
DWIDTH 14 0
BBX 11 15 1 0
BITMAP
0060
3FE0
3FE0
0060
3FE0
7FE0
6060
C060
C060
C060
C060
C060
6060
7FE0
3FC0
ENDCHAR
STARTCHAR 0112
ENCODING 274
SWIDTH 700 0
DWIDTH 14 0
BBX 11 18 1 0
BITMAP
3FE0
3FE0
0000
0000
3FE0
7FE0
F000
E000
E000
E000
7FE0
7FE0
E000
E000
E000
F000
7FE0
3FE0
ENDCHAR
STARTCHAR 0113
ENCODING 275
SWIDTH 650 0
DWIDTH 13 0
BBX 11 14 1 0
BITMAP
7FC0
7FC0
0000
3FC0
7FE0
E060
C060
C060
FFC0
FF80
C000
E000
7FC0
3FC0
ENDCHAR
STARTCHAR 0116
ENCODING 278
SWIDTH 700 0
DWIDTH 14 0
BBX 11 18 1 0
BITMAP
0300
0300
0000
0000
3FE0
7FE0
F000
E000
E000
E000
7FE0
7FE0
E000
E000
E000
F000
7FE0
3FE0
ENDCHAR
STARTCHAR 0117
ENCODING 279
SWIDTH 650 0
DWIDTH 13 0
BBX 11 14 1 0
BITMAP
0600
0600
0000
3FC0
7FE0
E060
C060
C060
FFC0
FF80
C000
E000
7FC0
3FC0
ENDCHAR
STARTCHAR 0118
ENCODING 280
SWIDTH 700 0
DWIDTH 14 0
BBX 12 19 1 -5
BITMAP
3FE0
7FE0
F000
E000
E000
E000
7FE0
7FE0
E000
E000
E000
F000
7FE0
3FE0
0040
0180
0180
01F0
01F0
ENDCHAR
STARTCHAR 0119
ENCODING 281
SWIDTH 650 0
DWIDTH 13 0
BBX 11 16 1 -5
BITMAP
3FC0
7FE0
E060
C060
C060
FFC0
FF80
C000
E000
7FC0
3FC0
0080
0300
0300
03E0
03E0
ENDCHAR
STARTCHAR 011A
ENCODING 282
SWIDTH 700 0
DWIDTH 14 0
BBX 11 19 1 0
BITMAP
18C0
0DC0
0F80
0700
0000
3FE0
7FE0
F000
E000
E000
E000
7FE0
7FE0
E000
E000
E000
F000
7FE0
3FE0
ENDCHAR
STARTCHAR 011B
ENCODING 283
SWIDTH 650 0
DWIDTH 13 0
BBX 11 16 1 0
BITMAP
3180
3180
1B00
1F00
0E00
0000
3FC0
7FE0
E060
C060
FFE0
FF80
C000
E000
7FC0
3FC0
ENDCHAR
STARTCHAR 011E
ENCODING 286
SWIDTH 750 0
DWIDTH 15 0
BBX 13 19 1 0
BITMAP
1860
1860
1860
1FC0
0000
1FF0
3FF0
7800
6000
E000
E000
E3E0
E3F0
E030
E038
6030
7870
3FF0
1FE0
ENDCHAR
STARTCHAR 011F
ENCODING 287
SWIDTH 700 0
DWIDTH 14 0
BBX 11 19 1 -4
BITMAP
30C0
30C0
39C0
1F80
0000
3FC0
7FE0
E060
C060
C060
C060
C060
E060
7FE0
3FE0
0060
0060
7FE0
7FC0
ENDCHAR
STARTCHAR 0120
ENCODING 288
SWIDTH 750 0
DWIDTH 15 0
BBX 13 18 1 0
BITMAP
0300
0300
0000
0000
1FF0
3FF0
7800
6000
E000
E000
E3E0
E3F0
E030
E038
6030
7870
3FF0
1FE0
ENDCHAR
STARTCHAR 0121
ENCODING 289
SWIDTH 700 0
DWIDTH 14 0
BBX 11 18 1 -4
BITMAP
0600
0600
0000
3FC0
7FE0
60E0
C060
C060
C060
C060
C060
6060
7FE0
3FE0
0060
0060
7FE0
7FC0
ENDCHAR
STARTCHAR 0122
ENCODING 290
SWIDTH 750 0
DWIDTH 15 0
BBX 13 19 1 -5
BITMAP
1FF0
3FF0
7800
6000
E000
E000
E3E0
E3F0
E030
E038
6030
7870
3FF0
1FE0
0300
0300
0300
0700
0600
ENDCHAR
STARTCHAR 0123
ENCODING 291
SWIDTH 700 0
DWIDTH 14 0
BBX 11 21 1 -4
BITMAP
0300
0700
0600
0600
0600
0000
3FC0
7FE0
60E0
C060
C060
C060
C060
C060
6060
7FE0
3FE0
0060
0060
7FE0
7FC0
ENDCHAR
STARTCHAR 0126
ENCODING 294
SWIDTH 750 0
DWIDTH 15 0
BBX 15 14 0 0
BITMAP
3018
FFFE
FFFE
3018
3018
3018
3FF8
3FF8
3018
3018
3018
3018
3018
3018
ENDCHAR
STARTCHAR 0127
ENCODING 295
SWIDTH 700 0
DWIDTH 14 0
BBX 11 15 2 0
BITMAP
C000
FF80
FF80
C000
FF00
FFC0
C1C0
C0E0
C060
C060
C060
C060
C060
C060
C060
ENDCHAR
STARTCHAR 0128
ENCODING 296
SWIDTH 350 0
DWIDTH 7 0
BBX 9 18 -1 0
BITMAP
FF80
FF80
0000
0000
1C00
1C00
1C00
1C00
1C00
1C00
1C00
1C00
1C00
1C00
1C00
1C00
1C00
1C00
ENDCHAR
STARTCHAR 0129
ENCODING 297
SWIDTH 400 0
DWIDTH 8 0
BBX 10 14 -1 0
BITMAP
FFC0
FFC0
0000
0000
0C00
0C00
0C00
0C00
0C00
0C00
0C00
0C00
0C00
0C00
ENDCHAR
STARTCHAR 012A
ENCODING 298
SWIDTH 350 0
DWIDTH 7 0
BBX 9 18 -1 0
BITMAP
FF80
FF80
0000
0000
1C00
1C00
1C00
1C00
1C00
1C00
1C00
1C00
1C00
1C00
1C00
1C00
1C00
1C00
ENDCHAR
STARTCHAR 012B
ENCODING 299
SWIDTH 400 0
DWIDTH 8 0
BBX 10 14 -1 0
BITMAP
FFC0
FFC0
0000
0000
0C00
0C00
0C00
0C00
0C00
0C00
0C00
0C00
0C00
0C00
ENDCHAR
STARTCHAR 012C
ENCODING 300
SWIDTH 400 0
DWIDTH 8 0
BBX 8 19 0 0
BITMAP
83
83
C3
FE
00
18
18
18
18
18
18
18
18
18
18
18
18
18
18
ENDCHAR
STARTCHAR 012D
ENCODING 301
SWIDTH 400 0
DWIDTH 8 0
BBX 8 15 0 0
BITMAP
83
C3
E7
7E
00
18
18
18
18
18
18
18
18
18
18
ENDCHAR
STARTCHAR 012E
ENCODING 302
SWIDTH 300 0
DWIDTH 6 0
BBX 6 19 -1 -5
BITMAP
18
18
18
18
18
18
18
18
18
18
18
18
18
18
30
40
C0
FC
7C
ENDCHAR
STARTCHAR 012F
ENCODING 303
SWIDTH 300 0
DWIDTH 6 0
BBX 5 19 -1 -5
BITMAP
18
18
00
00
18
18
18
18
18
18
18
18
18
18
30
40
C0
F8
78
ENDCHAR
STARTCHAR 0130
ENCODING 304
SWIDTH 300 0
DWIDTH 6 0
BBX 2 18 2 0
BITMAP
C0
C0
00
00
C0
C0
C0
C0
C0
C0
C0
C0
C0
C0
C0
C0
C0
C0
ENDCHAR
STARTCHAR 0131
ENCODING 305
SWIDTH 250 0
DWIDTH 5 0
BBX 2 11 2 0
BITMAP
C0
C0
C0
C0
C0
C0
C0
C0
C0
C0
C0
ENDCHAR
STARTCHAR 0132
ENCODING 306
SWIDTH 850 0
DWIDTH 17 0
BBX 13 14 2 0
BITMAP
C018
C018
C018
C018
C018
C018
C018
C018
C018
C018
C038
C078
DFF0
DFE0
ENDCHAR
STARTCHAR 0133
ENCODING 307
SWIDTH 500 0
DWIDTH 10 0
BBX 7 18 2 -4
BITMAP
C6
C6
00
00
C6
C6
C6
C6
C6
C6
C6
C6
C6
C6
06
06
3E
3C
ENDCHAR
STARTCHAR 0136
ENCODING 310
SWIDTH 700 0
DWIDTH 14 0
BBX 12 19 2 -5
BITMAP
C060
C0E0
C0C0
C1C0
C180
C380
FF00
FF00
C380
C1C0
C1C0
C0E0
C0E0
C070
0C00
0C00
0C00
1C00
1C00
ENDCHAR
STARTCHAR 0137
ENCODING 311
SWIDTH 600 0
DWIDTH 12 0
BBX 9 20 2 -5
BITMAP
C000
C000
C000
C000
C000
C180
C300
C700
C600
FC00
FE00
C700
C300
C380
C180
1800
1800
1800
3800
3800
ENDCHAR
STARTCHAR 0139
ENCODING 313
SWIDTH 600 0
DWIDTH 12 0
BBX 11 19 1 0
BITMAP
3800
3000
6000
6000
0000
E000
E000
E000
E000
E000
E000
E000
E000
E000
6000
6000
7000
7FE0
1FE0
ENDCHAR
STARTCHAR 013A
ENCODING 314
SWIDTH 250 0
DWIDTH 5 0
BBX 4 18 1 0
BITMAP
30
70
60
E0
00
60
60
60
60
60
60
60
60
60
60
60
60
60
ENDCHAR
STARTCHAR 013B
ENCODING 315
SWIDTH 600 0
DWIDTH 12 0
BBX 11 19 1 -5
BITMAP
E000
E000
E000
E000
E000
E000
E000
E000
E000
6000
6000
7000
7FE0
1FE0
0600
0600
0600
0E00
0C00
ENDCHAR
STARTCHAR 013C
ENCODING 316
SWIDTH 250 0
DWIDTH 5 0
BBX 3 20 1 -5
BITMAP
60
60
60
60
60
60
60
60
60
60
60
60
60
60
60
60
60
60
E0
C0
ENDCHAR
STARTCHAR 013D
ENCODING 317
SWIDTH 600 0
DWIDTH 12 0
BBX 11 16 1 0
BITMAP
0180
0180
E180
E380
E300
E000
E000
E000
E000
E000
E000
6000
6000
7000
7FE0
1FE0
ENDCHAR
STARTCHAR 013E
ENCODING 318
SWIDTH 350 0
DWIDTH 7 0
BBX 6 15 2 0
BITMAP
CC
CC
DC
D8
D0
C0
C0
C0
C0
C0
C0
C0
C0
C0
C0
ENDCHAR
STARTCHAR 0141
ENCODING 321
SWIDTH 600 0
DWIDTH 12 0
BBX 12 14 0 0
BITMAP
7000
7000
7300
7F00
7C00
F000
F000
7000
7000
3000
3000
3800
3FF0
0FF0
ENDCHAR
STARTCHAR 0142
ENCODING 322
SWIDTH 350 0
DWIDTH 7 0
BBX 7 15 0 0
BITMAP
18
18
1A
1E
7C
F8
98
18
18
18
18
18
18
18
18
ENDCHAR
STARTCHAR 0143
ENCODING 323
SWIDTH 900 0
DWIDTH 18 0
BBX 14 19 2 0
BITMAP
0180
0380
0300
0600
0000
780C
FC0C
DC0C
CE0C
CE0C
C60C
C70C
C30C
C38C
C18C
C1CC
C0DC
C0FC
C078
ENDCHAR
STARTCHAR 0144
ENCODING 324
SWIDTH 700 0
DWIDTH 14 0
BBX 11 15 2 0
BITMAP
0600
0C00
0C00
1800
0000
FF00
FFC0
C0C0
C0E0
C060
C060
C060
C060
C060
C060
ENDCHAR
STARTCHAR 0145
ENCODING 325
SWIDTH 900 0
DWIDTH 18 0
BBX 14 19 2 -5
BITMAP
780C
FC0C
DC0C
CE0C
CE0C
C60C
C70C
C30C
C38C
C18C
C1CC
C0DC
C0FC
C078
0600
0600
0600
0E00
0E00
ENDCHAR
STARTCHAR 0146
ENCODING 326
SWIDTH 700 0
DWIDTH 14 0
BBX 11 16 2 -5
BITMAP
FF00
FFC0
C1C0
C0E0
C060
C060
C060
C060
C060
C060
C060
0C00
0C00
0C00
1C00
1800
ENDCHAR
STARTCHAR 0147
ENCODING 327
SWIDTH 900 0
DWIDTH 18 0
BBX 14 19 2 0
BITMAP
1CC0
0CC0
0F80
0780
0000
780C
FC0C
DC0C
CE0C
CE0C
C60C
C70C
C30C
C38C
C18C
C1CC
C0DC
C0FC
C078
ENDCHAR
STARTCHAR 0148
ENCODING 328
SWIDTH 700 0
DWIDTH 14 0
BBX 11 16 2 0
BITMAP
6180
3300
3300
1E00
0C00
0000
FF00
FFC0
C0C0
C0E0
C060
C060
C060
C060
C060
C060
ENDCHAR
STARTCHAR 014A
ENCODING 330
SWIDTH 800 0
DWIDTH 16 0
BBX 12 18 2 -4
BITMAP
FF80
FFE0
C1E0
C070
C030
C030
C030
C030
C030
C030
C030
C030
C030
C030
0030
0070
07F0
07E0
ENDCHAR
STARTCHAR 014B
ENCODING 331
SWIDTH 700 0
DWIDTH 14 0
BBX 11 15 2 -4
BITMAP
FF00
FFC0
C1C0
C0E0
C060
C060
C060
C060
C060
C060
C060
0060
00E0
03C0
03C0
ENDCHAR
STARTCHAR 014C
ENCODING 332
SWIDTH 800 0
DWIDTH 16 0
BBX 14 18 1 0
BITMAP
1FF0
1FF0
0000
0000
1FE0
3FF0
7878
601C
E01C
E00C
E00C
E00C
E00C
E01C
601C
7878
3FF0
1FE0
ENDCHAR
STARTCHAR 014D
ENCODING 333
SWIDTH 650 0
DWIDTH 13 0
BBX 11 14 1 0
BITMAP
7FC0
7FC0
0000
3F80
7FC0
60E0
C060
C060
C060
C060
C060
60E0
7FC0
3F80
ENDCHAR
STARTCHAR 0150
ENCODING 336
SWIDTH 800 0
DWIDTH 16 0
BBX 14 19 1 0
BITMAP
0670
0E60
0CC0
18C0
0000
1FE0
3FF0
7878
601C
E01C
E00C
E00C
E00C
E00C
E01C
601C
7878
3FF0
1FE0
ENDCHAR
STARTCHAR 0151
ENCODING 337
SWIDTH 650 0
DWIDTH 13 0
BBX 11 15 1 0
BITMAP
1CC0
1980
3180
3300
0000
3F80
7FC0
E0E0
C060
C060
C060
C060
E0E0
7FC0
3F80
ENDCHAR
STARTCHAR 0152
ENCODING 338
SWIDTH 1200 0
DWIDTH 24 0
BBX 21 14 1 0
BITMAP
1FFFF8
3FFFF8
787800
601C00
E01C00
E00C00
E00FF8
E00FF8
E00C00
E01C00
601C00
787800
3FFFF8
1FFFF8
ENDCHAR
STARTCHAR 0153
ENCODING 339
SWIDTH 1100 0
DWIDTH 22 0
BBX 20 11 1 0
BITMAP
3F9FE0
7FFFF0
60F030
C06030
C06030
C07FE0
C07FC0
C06000
60F000
7FFFE0
3F9FE0
ENDCHAR
STARTCHAR 0154
ENCODING 340
SWIDTH 700 0
DWIDTH 14 0
BBX 11 19 2 0
BITMAP
0600
0E00
0C00
1C00
0000
FF80
FFC0
00E0
0060
0060
00E0
FFE0
FFC0
C380
C380
C1C0
C0C0
C0E0
C060
ENDCHAR
STARTCHAR 0155
ENCODING 341
SWIDTH 450 0
DWIDTH 9 0
BBX 8 15 1 0
BITMAP
0C
0C
18
38
00
7F
7F
60
E0
E0
E0
E0
E0
E0
E0
ENDCHAR
STARTCHAR 0156
ENCODING 342
SWIDTH 700 0
DWIDTH 14 0
BBX 11 19 2 -5
BITMAP
FF80
FFC0
00E0
0060
0060
00E0
FFE0
FFC0
C380
C380
C1C0
C0C0
C0E0
C060
0C00
0C00
0C00
1C00
1800
ENDCHAR
STARTCHAR 0157
ENCODING 343
SWIDTH 450 0
DWIDTH 9 0
BBX 9 16 0 -5
BITMAP
3F80
3F80
3000
7000
7000
7000
7000
7000
7000
7000
7000
7000
7000
7000
E000
E000
ENDCHAR
STARTCHAR 0158
ENCODING 344
SWIDTH 700 0
DWIDTH 14 0
BBX 11 19 2 0
BITMAP
7380
3300
1E00
1E00
0000
FF80
FFC0
00E0
0060
0060
00E0
FFE0
FFC0
C380
C380
C1C0
C0C0
C0E0
C060
ENDCHAR
STARTCHAR 0159
ENCODING 345
SWIDTH 500 0
DWIDTH 10 0
BBX 8 16 1 0
BITMAP
E3
63
36
3E
18
00
7F
7F
60
E0
E0
E0
E0
E0
E0
E0
ENDCHAR
STARTCHAR 015A
ENCODING 346
SWIDTH 700 0
DWIDTH 14 0
BBX 12 19 1 0
BITMAP
0300
0700
0600
0E00
0000
3FE0
7FE0
E000
C000
C000
E000
7FE0
3FF0
0070
0030
0030
0070
FFE0
FFC0
ENDCHAR
STARTCHAR 015B
ENCODING 347
SWIDTH 600 0
DWIDTH 12 0
BBX 10 15 1 0
BITMAP
0600
0C00
0C00
1800
0000
7F80
FF80
C000
C000
FF80
3F80
00C0
00C0
FF80
FF00
ENDCHAR
STARTCHAR 015E
ENCODING 350
SWIDTH 700 0
DWIDTH 14 0
BBX 12 19 1 -5
BITMAP
3FE0
7FE0
E000
C000
C000
E000
7FE0
3FF0
0070
0030
0030
0070
FFE0
FFC0
0600
0600
0600
0E00
0C00
ENDCHAR
STARTCHAR 015F
ENCODING 351
SWIDTH 600 0
DWIDTH 12 0
BBX 10 16 1 -5
BITMAP
7F80
FF80
C000
C000
C000
7F80
3F80
00C0
00C0
FF80
FF00
0C00
0C00
0C00
1C00
1800
ENDCHAR
STARTCHAR 0160
ENCODING 352
SWIDTH 700 0
DWIDTH 14 0
BBX 12 19 1 0
BITMAP
19C0
1980
0F80
0F00
0000
3FE0
7FE0
E000
C000
C000
E000
7FE0
3FF0
0070
0030
0030
0070
FFE0
FFC0
ENDCHAR
STARTCHAR 0161
ENCODING 353
SWIDTH 600 0
DWIDTH 12 0
BBX 10 16 1 0
BITMAP
6180
3300
3300
1E00
0C00
0000
7F80
FF80
C000
C000
FF80
3F80
00C0
00C0
FF80
FF00
ENDCHAR
STARTCHAR 0164
ENCODING 356
SWIDTH 550 0
DWIDTH 11 0
BBX 10 19 1 0
BITMAP
6300
3700
3E00
1C00
0000
FFC0
FFC0
0C00
0C00
0C00
0C00
0C00
0C00
0C00
0C00
0C00
0C00
0C00
0C00
ENDCHAR
STARTCHAR 0165
ENCODING 357
SWIDTH 500 0
DWIDTH 10 0
BBX 10 15 0 0
BITMAP
00C0
00C0
30C0
31C0
31C0
FE00
FE00
3000
3000
3000
3000
3000
3000
3E00
1E00
ENDCHAR
STARTCHAR 0166
ENCODING 358
SWIDTH 550 0
DWIDTH 11 0
BBX 10 14 1 0
BITMAP
FFC0
FFC0
0C00
0C00
0C00
0C00
FF80
FF80
0C00
0C00
0C00
0C00
0C00
0C00
ENDCHAR
STARTCHAR 0167
ENCODING 359
SWIDTH 400 0
DWIDTH 8 0
BBX 7 14 0 0
BITMAP
30
30
30
FE
FE
30
30
30
FE
FE
30
30
3E
1E
ENDCHAR
STARTCHAR 0168
ENCODING 360
SWIDTH 750 0
DWIDTH 15 0
BBX 11 18 2 0
BITMAP
7FC0
7FC0
0000
0000
C060
C060
C060
C060
C060
C060
C060
C060
C060
C060
C060
E0E0
FFC0
7F80
ENDCHAR
STARTCHAR 0169
ENCODING 361
SWIDTH 700 0
DWIDTH 14 0
BBX 12 14 1 0
BITMAP
7FE0
7FE0
0000
0000
E070
E070
E070
E070
E070
E070
E070
6060
7FE0
1F80
ENDCHAR
STARTCHAR 016A
ENCODING 362
SWIDTH 750 0
DWIDTH 15 0
BBX 11 18 2 0
BITMAP
7FC0
7FC0
0000
0000
C060
C060
C060
C060
C060
C060
C060
C060
C060
C060
C060
E0E0
FFC0
7F80
ENDCHAR
STARTCHAR 016B
ENCODING 363
SWIDTH 700 0
DWIDTH 14 0
BBX 12 14 1 0
BITMAP
7FE0
7FE0
0000
0000
E070
E070
E070
E070
E070
E070
E070
6060
7FE0
1F80
ENDCHAR
STARTCHAR 016E
ENCODING 366
SWIDTH 750 0
DWIDTH 15 0
BBX 11 19 2 0
BITMAP
1E00
1100
1100
1E00
0000
C060
C060
C060
C060
C060
C060
C060
C060
C060
C060
C060
E0E0
FFC0
7F80
ENDCHAR
STARTCHAR 016F
ENCODING 367
SWIDTH 700 0
DWIDTH 14 0
BBX 12 16 1 0
BITMAP
0F00
1880
1880
0F00
0000
E070
E070
E070
E070
E070
E070
E070
6070
7060
7FE0
1F80
ENDCHAR
STARTCHAR 0170
ENCODING 368
SWIDTH 750 0
DWIDTH 15 0
BBX 11 19 2 0
BITMAP
19C0
1980
3380
7300
0000
C060
C060
C060
C060
C060
C060
C060
C060
C060
C060
C060
E0E0
FFC0
7F80
ENDCHAR
STARTCHAR 0171
ENCODING 369
SWIDTH 700 0
DWIDTH 14 0
BBX 12 15 1 0
BITMAP
0CC0
19C0
1980
3380
0000
E070
E070
E070
E070
E070
E070
E070
6060
7FE0
1F80
ENDCHAR
STARTCHAR 0172
ENCODING 370
SWIDTH 750 0
DWIDTH 15 0
BBX 11 19 2 -5
BITMAP
C060
C060
C060
C060
C060
C060
C060
C060
C060
C060
C060
E0E0
FFC0
7F80
0C00
3000
3000
3E00
1E00
ENDCHAR
STARTCHAR 0173
ENCODING 371
SWIDTH 700 0
DWIDTH 14 0
BBX 12 16 1 -5
BITMAP
E070
E070
E070
E070
E070
E070
E070
E070
6060
7FE0
1FC0
0400
1800
1800
1F00
1F00
ENDCHAR
STARTCHAR 0174
ENCODING 372
SWIDTH 1050 0
DWIDTH 21 0
BBX 19 19 1 0
BITMAP
00C000
01F000
01B000
031800
000000
C0E060
C1F060
C3B860
C3B8E0
E318E0
E318E0
E318E0
E718C0
671CC0
661CC0
660CC0
660DC0
7E0FC0
3C0780
ENDCHAR
STARTCHAR 0175
ENCODING 373
SWIDTH 1000 0
DWIDTH 20 0
BBX 18 16 1 0
BITMAP
00C000
01E000
037000
073000
063800
C1E0C0
C3E1C0
C331C0
C33180
C63180
C63180
E63980
661980
6E1980
7C1F80
380F00
ENDCHAR
STARTCHAR 0176
ENCODING 374
SWIDTH 700 0
DWIDTH 14 0
BBX 12 19 1 0
BITMAP
0F00
1F00
1980
3980
0000
C070
E060
70E0
31C0
3980
1F80
0F00
0E00
0600
0600
0600
0600
0600
0600
ENDCHAR
STARTCHAR 0177
ENCODING 375
SWIDTH 650 0
DWIDTH 13 0
BBX 13 21 0 -5
BITMAP
0600
0F80
0D80
19C0
18C0
E038
6030
6070
3060
3060
38C0
18C0
19C0
1D80
0F80
0F00
0300
0600
0600
0E00
0C00
ENDCHAR
STARTCHAR 0178
ENCODING 376
SWIDTH 700 0
DWIDTH 14 0
BBX 12 18 1 0
BITMAP
3980
3980
0000
0000
C070
E060
70E0
31C0
3980
1F80
0F00
0E00
0600
0600
0600
0600
0600
0600
ENDCHAR
STARTCHAR 0179
ENCODING 377
SWIDTH 750 0
DWIDTH 15 0
BBX 13 19 1 0
BITMAP
0380
0300
0700
0600
0000
7FF0
7FF0
0038
0038
0070
01F0
07C0
1F00
7C00
F000
E000
E000
FFF0
7FF0
ENDCHAR
STARTCHAR 017A
ENCODING 378
SWIDTH 600 0
DWIDTH 12 0
BBX 10 15 1 0
BITMAP
0600
0E00
0C00
1C00
0000
FFC0
FFC0
00C0
01C0
0F80
7C00
E000
C000
FFC0
7FC0
ENDCHAR
STARTCHAR 017B
ENCODING 379
SWIDTH 750 0
DWIDTH 15 0
BBX 13 18 1 0
BITMAP
0700
0700
0000
0000
7FF0
7FF0
0038
0038
0070
01F0
07C0
1F00
7C00
F000
E000
E000
FFF0
7FF0
ENDCHAR
STARTCHAR 017C
ENCODING 380
SWIDTH 600 0
DWIDTH 12 0
BBX 10 14 1 0
BITMAP
0C00
0C00
0000
FFC0
FFC0
00C0
00C0
07C0
1F00
7800
E000
C000
FFC0
7FC0
ENDCHAR
STARTCHAR 017D
ENCODING 381
SWIDTH 750 0
DWIDTH 15 0
BBX 13 19 1 0
BITMAP
18C0
0D80
0F80
0700
0000
7FF0
7FF0
0038
0038
0070
01F0
07C0
1F00
7C00
F000
E000
E000
FFF0
7FF0
ENDCHAR
STARTCHAR 017E
ENCODING 382
SWIDTH 600 0
DWIDTH 12 0
BBX 10 16 1 0
BITMAP
7180
3380
3B00
1E00
0C00
0000
FFC0
FFC0
00C0
01C0
0F80
7C00
E000
C000
FFC0
7FC0
ENDCHAR
STARTCHAR 0180
ENCODING 384
SWIDTH 700 0
DWIDTH 14 0
BBX 11 15 2 0
BITMAP
C000
FF80
FF80
C000
FF80
FFC0
C0C0
C0E0
C060
C060
C060
C0E0
C0C0
FFC0
7F80
ENDCHAR
STARTCHAR 0181
ENCODING 385
SWIDTH 900 0
DWIDTH 18 0
BBX 17 14 0 0
BITMAP
7FFE00
7FFF00
C70780
C70380
C70380
070380
07FF00
07FF00
070380
070380
070380
070780
07FF00
07FE00
ENDCHAR
STARTCHAR 0187
ENCODING 391
SWIDTH 750 0
DWIDTH 15 0
BBX 14 17 1 0
BITMAP
001C
003C
0070
1FE0
3FE0
7860
6000
E000
E000
E000
E000
E000
E000
6000
7800
3FE0
1FE0
ENDCHAR
STARTCHAR 0188
ENCODING 392
SWIDTH 700 0
DWIDTH 14 0
BBX 13 13 1 0
BITMAP
00F8
00F8
3FC0
7FC0
61C0
C000
C000
C000
C000
C000
6000
7FC0
3FC0
ENDCHAR
STARTCHAR 018A
ENCODING 394
SWIDTH 900 0
DWIDTH 18 0
BBX 17 14 0 0
BITMAP
7FFC00
FFFE00
C70F00
C70380
C70380
070180
070180
070180
070180
070380
070380
070F00
07FE00
07FC00
ENDCHAR
STARTCHAR 018E
ENCODING 398
SWIDTH 700 0
DWIDTH 14 0
BBX 12 14 1 0
BITMAP
FFC0
FFE0
00F0
0070
0070
0060
7FE0
7FE0
0060
0070
0070
00F0
FFE0
FFC0
ENDCHAR
STARTCHAR 018F
ENCODING 399
SWIDTH 750 0
DWIDTH 15 0
BBX 13 14 1 0
BITMAP
7F80
7FE0
00E0
0070
0030
0030
3FF0
7FF8
E030
C030
C070
E0F0
7FE0
3F80
ENDCHAR
STARTCHAR 0192
ENCODING 402
SWIDTH 400 0
DWIDTH 8 0
BBX 8 19 -1 -4
BITMAP
0F
1F
18
18
7F
7F
18
18
18
18
18
18
18
18
18
18
18
F8
F0
ENDCHAR
STARTCHAR 0194
ENCODING 404
SWIDTH 800 0
DWIDTH 16 0
BBX 14 19 1 -5
BITMAP
C01C
E018
6038
7030
3870
18E0
1CC0
0DC0
0780
0780
0700
0780
0F80
0CC0
1CC0
1860
1860
1840
0FC0
ENDCHAR
STARTCHAR 0198
ENCODING 408
SWIDTH 750 0
DWIDTH 15 0
BBX 13 15 2 0
BITMAP
0078
C0F8
C0E0
C1C0
C1C0
C180
C380
FF00
FF00
C380
C1C0
C1C0
C0E0
C0E0
C070
ENDCHAR
STARTCHAR 0199
ENCODING 409
SWIDTH 600 0
DWIDTH 12 0
BBX 9 15 2 0
BITMAP
7800
F800
C000
C000
C000
C180
C300
C700
C600
FC00
FE00
C700
C300
C380
C180
ENDCHAR
STARTCHAR 019D
ENCODING 413
SWIDTH 900 0
DWIDTH 18 0
BBX 17 18 -1 -4
BITMAP
0F0180
1F8180
1B8180
19C180
19C180
18C180
18E180
186180
187180
183180
183980
181B80
181F80
180F00
180000
380000
F80000
F00000
ENDCHAR
STARTCHAR 01A0
ENCODING 416
SWIDTH 800 0
DWIDTH 16 0
BBX 15 18 1 0
BITMAP
0006
0006
0006
0006
1FFE
3FFC
7878
601C
E01C
E00C
E00C
E00C
E00C
E01C
601C
7878
3FF0
1FE0
ENDCHAR
STARTCHAR 01A1
ENCODING 417
SWIDTH 700 0
DWIDTH 14 0
BBX 13 15 1 0
BITMAP
0018
0018
0018
0018
3FF8
7FF0
60E0
C060
C060
C060
C060
C060
60E0
7FC0
3F80
ENDCHAR
STARTCHAR 01AF
ENCODING 431
SWIDTH 850 0
DWIDTH 17 0
BBX 15 18 2 0
BITMAP
0006
0006
0006
0006
C07E
C07C
C060
C060
C060
C060
C060
C060
C060
C060
C060
E0E0
FFC0
7F80
ENDCHAR
STARTCHAR 01B0
ENCODING 432
SWIDTH 850 0
DWIDTH 17 0
BBX 16 15 1 0
BITMAP
0003
0003
0003
0007
E07F
E07E
E070
E070
E070
E070
E070
6070
7060
7FE0
1F80
ENDCHAR
STARTCHAR 01B3
ENCODING 435
SWIDTH 750 0
DWIDTH 15 0
BBX 14 15 1 0
BITMAP
003C
C07C
E060
70E0
31C0
3980
1F80
0F00
0E00
0600
0600
0600
0600
0600
0600
ENDCHAR
STARTCHAR 01B4
ENCODING 436
SWIDTH 750 0
DWIDTH 15 0
BBX 15 18 0 -5
BITMAP
000E
001E
E038
6030
6070
3060
3060
38C0
18C0
19C0
1D80
0F80
0F00
0300
0600
0600
0E00
0C00
ENDCHAR
STARTCHAR 01C4
ENCODING 452
SWIDTH 1500 0
DWIDTH 30 0
BBX 26 19 2 0
BITMAP
00006300
00006600
00003E00
00003C00
00000000
FF03FF80
FFC3FFC0
C1E000C0
C0E000C0
C06001C0
C07007C0
C0701F00
C070FC00
C071F000
C0638000
C0E30000
C1E38000
FFC3FFC0
FF01FFC0
ENDCHAR
STARTCHAR 01C5
ENCODING 453
SWIDTH 1350 0
DWIDTH 27 0
BBX 24 16 2 0
BITMAP
0001CE
0000CC
FF0078
FFC078
C1E000
C0E3FE
C063FF
C07003
C07003
C0701E
C070FC
C061E0
C0E300
C1E300
FFC3FF
FF01FF
ENDCHAR
STARTCHAR 01C6
ENCODING 454
SWIDTH 1300 0
DWIDTH 26 0
BBX 24 16 1 0
BITMAP
000186
0060CC
0060EC
006078
006030
006000
3FE3FF
7FE3FF
E06003
C06007
C0603E
C061F0
C06380
E06300
7FE3FF
3FC1FF
ENDCHAR
STARTCHAR 01DD
ENCODING 477
SWIDTH 650 0
DWIDTH 13 0
BBX 11 11 1 0
BITMAP
7F80
7FC0
00E0
0060
0060
7FE0
7FE0
C060
E060
7FE0
3FC0
ENDCHAR
STARTCHAR 01E6
ENCODING 486
SWIDTH 750 0
DWIDTH 15 0
BBX 13 19 1 0
BITMAP
1CE0
0CC0
0780
0780
0000
1FF0
3FF0
7800
6000
E000
E000
E3E0
E3F0
E030
E038
6030
7870
3FF0
1FE0
ENDCHAR
STARTCHAR 01E7
ENCODING 487
SWIDTH 700 0
DWIDTH 14 0
BBX 11 20 1 -4
BITMAP
30C0
1980
1B80
0F00
0600
0000
3FC0
7FE0
E060
C060
C060
C060
C060
E060
7FE0
3FE0
0060
0060
7FE0
7FC0
ENDCHAR
STARTCHAR 01F0
ENCODING 496
SWIDTH 350 0
DWIDTH 7 0
BBX 7 20 0 -4
BITMAP
C6
C6
6C
7C
38
18
18
18
18
18
18
18
18
18
18
18
18
38
F0
F0
ENDCHAR
STARTCHAR 01F1
ENCODING 497
SWIDTH 1500 0
DWIDTH 30 0
BBX 26 14 2 0
BITMAP
FF03FF80
FFC3FFC0
C1E000C0
C0E000C0
C06001C0
C07007C0
C0701F00
C070FC00
C071F000
C0638000
C0E30000
C1E38000
FFC3FFC0
FF01FFC0
ENDCHAR
STARTCHAR 01F2
ENCODING 498
SWIDTH 1350 0
DWIDTH 27 0
BBX 24 14 2 0
BITMAP
FF0000
FFC000
C1E000
C0E3FE
C063FF
C07003
C07003
C0701E
C070FC
C061E0
C0E300
C1E300
FFC3FF
FF01FF
ENDCHAR
STARTCHAR 01F3
ENCODING 499
SWIDTH 1300 0
DWIDTH 26 0
BBX 24 16 1 0
BITMAP
006000
006000
006000
006000
006000
3FE3FF
7FE3FF
606003
C06003
C0601F
C0607C
C061E0
C06380
606300
7FE3FF
3FC1FF
ENDCHAR
STARTCHAR 01F4
ENCODING 500
SWIDTH 750 0
DWIDTH 15 0
BBX 13 19 1 0
BITMAP
0180
0380
0300
0700
0000
1FF0
3FF0
7800
6000
E000
E000
E3E0
E3F0
E030
E038
6030
7870
3FF0
1FE0
ENDCHAR
STARTCHAR 01F5
ENCODING 501
SWIDTH 700 0
DWIDTH 14 0
BBX 11 19 1 -4
BITMAP
0300
0600
0600
0C00
0000
3FC0
7FE0
E060
C060
C060
C060
C060
E060
7FE0
3FE0
0060
0060
7FE0
7FC0
ENDCHAR
STARTCHAR 01F8
ENCODING 504
SWIDTH 900 0
DWIDTH 18 0
BBX 14 19 2 0
BITMAP
0600
0600
0300
0300
0000
780C
FC0C
DC0C
CE0C
CE0C
C60C
C70C
C30C
C38C
C18C
C1CC
C0DC
C0FC
C078
ENDCHAR
STARTCHAR 01F9
ENCODING 505
SWIDTH 700 0
DWIDTH 14 0
BBX 11 15 2 0
BITMAP
1800
0C00
0C00
0600
0000
FF00
FFC0
C0C0
C0E0
C060
C060
C060
C060
C060
C060
ENDCHAR
STARTCHAR 0218
ENCODING 536
SWIDTH 700 0
DWIDTH 14 0
BBX 12 19 1 -5
BITMAP
3FE0
7FE0
E000
C000
C000
E000
7FE0
3FF0
0070
0030
0030
0070
FFE0
FFC0
0600
0600
0600
0E00
0C00
ENDCHAR
STARTCHAR 0219
ENCODING 537
SWIDTH 600 0
DWIDTH 12 0
BBX 10 16 1 -5
BITMAP
7F80
FF80
C000
C000
C000
7F80
3F80
00C0
00C0
FF80
FF00
0C00
0C00
0C00
1C00
1800
ENDCHAR
STARTCHAR 021A
ENCODING 538
SWIDTH 550 0
DWIDTH 11 0
BBX 10 19 1 -5
BITMAP
FFC0
FFC0
0C00
0C00
0C00
0C00
0C00
0C00
0C00
0C00
0C00
0C00
0C00
0C00
0C00
0C00
0C00
1C00
1800
ENDCHAR
STARTCHAR 021B
ENCODING 539
SWIDTH 400 0
DWIDTH 8 0
BBX 7 19 0 -5
BITMAP
30
30
30
FE
FE
30
30
30
30
30
30
30
3E
1E
18
18
18
38
30
ENDCHAR
STARTCHAR 0237
ENCODING 567
SWIDTH 250 0
DWIDTH 5 0
BBX 5 15 -1 -4
BITMAP
18
18
18
18
18
18
18
18
18
18
18
18
18
F8
F0
ENDCHAR
STARTCHAR 0241
ENCODING 577
SWIDTH 500 0
DWIDTH 10 0
BBX 8 15 1 0
BITMAP
FE
FF
03
03
03
3F
7E
70
70
70
70
70
70
70
70
ENDCHAR
STARTCHAR 0242
ENCODING 578
SWIDTH 500 0
DWIDTH 10 0
BBX 8 11 1 0
BITMAP
FE
FF
03
03
03
3F
3E
70
70
70
70
ENDCHAR
STARTCHAR 024C
ENCODING 588
SWIDTH 750 0
DWIDTH 15 0
BBX 14 14 0 0
BITMAP
1FF0
1FFC
001C
000C
000C
001C
FFFC
FFF8
1870
1830
1838
1818
181C
180C
ENDCHAR
STARTCHAR 024D
ENCODING 589
SWIDTH 500 0
DWIDTH 10 0
BBX 10 11 0 0
BITMAP
1FC0
1FC0
3800
3800
3800
FFC0
FFC0
3800
3800
3800
3800
ENDCHAR
STARTCHAR 0253
ENCODING 595
SWIDTH 700 0
DWIDTH 14 0
BBX 11 15 2 0
BITMAP
7800
F800
C000
C000
FF80
FFC0
C0C0
C0E0
C060
C060
C060
C0E0
C0C0
FFC0
7F80
ENDCHAR
STARTCHAR 0257
ENCODING 599
SWIDTH 750 0
DWIDTH 15 0
BBX 14 15 1 0
BITMAP
003C
003C
0070
0060
3FE0
7FE0
6060
C060
C060
C060
C060
C060
6060
7FE0
3FC0
ENDCHAR
STARTCHAR 0263
ENCODING 611
SWIDTH 700 0
DWIDTH 14 0
BBX 12 16 1 -6
BITMAP
C070
6060
70C0
31C0
1980
1B00
0F00
0E00
0E00
0F00
1B00
1980
1180
3180
1F80
0600
ENDCHAR
STARTCHAR 0272
ENCODING 626
SWIDTH 700 0
DWIDTH 14 0
BBX 14 15 -1 -4
BITMAP
1FE0
1FF8
1838
181C
180C
180C
180C
180C
180C
180C
180C
1800
3800
F000
F000
ENDCHAR
STARTCHAR 02C6
ENCODING 710
SWIDTH 500 0
DWIDTH 10 0
BBX 8 5 1 11
BITMAP
18
3C
66
66
C3
ENDCHAR
STARTCHAR 02C7
ENCODING 711
SWIDTH 500 0
DWIDTH 10 0
BBX 8 5 1 11
BITMAP
C3
66
66
3C
18
ENDCHAR
STARTCHAR 02D8
ENCODING 728
SWIDTH 500 0
DWIDTH 10 0
BBX 8 4 1 11
BITMAP
C3
C3
E7
7E
ENDCHAR
STARTCHAR 02D9
ENCODING 729
SWIDTH 200 0
DWIDTH 4 0
BBX 2 2 1 12
BITMAP
C0
C0
ENDCHAR
STARTCHAR 02DA
ENCODING 730
SWIDTH 400 0
DWIDTH 8 0
BBX 5 5 1 11
BITMAP
78
88
88
88
78
ENDCHAR
STARTCHAR 02DB
ENCODING 731
SWIDTH 350 0
DWIDTH 7 0
BBX 5 5 1 -5
BITMAP
30
C0
C0
F8
78
ENDCHAR
STARTCHAR 02DC
ENCODING 732
SWIDTH 550 0
DWIDTH 11 0
BBX 9 2 1 12
BITMAP
FF80
FF80
ENDCHAR
STARTCHAR 02DD
ENCODING 733
SWIDTH 550 0
DWIDTH 11 0
BBX 8 4 1 11
BITMAP
73
66
C6
CC
ENDCHAR
STARTCHAR 0300
ENCODING 768
SWIDTH 0 0
DWIDTH 0 0
BBX 4 4 -9 11
BITMAP
C0
E0
60
70
ENDCHAR
STARTCHAR 0301
ENCODING 769
SWIDTH 0 0
DWIDTH 0 0
BBX 4 4 -9 11
BITMAP
30
60
E0
C0
ENDCHAR
STARTCHAR 0302
ENCODING 770
SWIDTH 0 0
DWIDTH 0 0
BBX 8 5 -11 11
BITMAP
18
3C
6E
66
C3
ENDCHAR
STARTCHAR 0303
ENCODING 771
SWIDTH 0 0
DWIDTH 0 0
BBX 9 2 -12 12
BITMAP
FF80
FF80
ENDCHAR
STARTCHAR 0304
ENCODING 772
SWIDTH 0 0
DWIDTH 0 0
BBX 10 2 -12 12
BITMAP
FFC0
FFC0
ENDCHAR
STARTCHAR 0306
ENCODING 774
SWIDTH 0 0
DWIDTH 0 0
BBX 8 4 -11 11
BITMAP
C3
C3
E7
7E
ENDCHAR
STARTCHAR 0307
ENCODING 775
SWIDTH 0 0
DWIDTH 0 0
BBX 2 2 -8 12
BITMAP
C0
C0
ENDCHAR
STARTCHAR 0308
ENCODING 776
SWIDTH 0 0
DWIDTH 0 0
BBX 7 2 -11 12
BITMAP
E6
E6
ENDCHAR
STARTCHAR 0309
ENCODING 777
SWIDTH 0 0
DWIDTH 0 0
BBX 6 7 -9 11
BITMAP
F8
FC
0C
1C
78
40
40
ENDCHAR
STARTCHAR 030A
ENCODING 778
SWIDTH 0 0
DWIDTH 0 0
BBX 6 5 -10 11
BITMAP
78
88
8C
88
78
ENDCHAR
STARTCHAR 030B
ENCODING 779
SWIDTH 0 0
DWIDTH 0 0
BBX 8 4 -11 11
BITMAP
33
67
66
CE
ENDCHAR
STARTCHAR 030C
ENCODING 780
SWIDTH 0 0
DWIDTH 0 0
BBX 8 5 -11 11
BITMAP
C3
66
6E
3C
18
ENDCHAR
STARTCHAR 0313
ENCODING 787
SWIDTH 0 0
DWIDTH 0 0
BBX 3 6 -8 11
BITMAP
60
E0
C0
C0
C0
C0
ENDCHAR
STARTCHAR 031B
ENCODING 795
SWIDTH 150 0
DWIDTH 3 0
BBX 6 6 -3 9
BITMAP
0C
0C
0C
0C
FC
F8
ENDCHAR
STARTCHAR 0323
ENCODING 803
SWIDTH 0 0
DWIDTH 0 0
BBX 2 2 -8 -4
BITMAP
C0
C0
ENDCHAR
STARTCHAR 0326
ENCODING 806
SWIDTH 0 0
DWIDTH 0 0
BBX 3 5 -9 -5
BITMAP
60
60
60
E0
C0
ENDCHAR
STARTCHAR 0328
ENCODING 808
SWIDTH 0 0
DWIDTH 0 0
BBX 6 5 -11 -5
BITMAP
30
40
E0
7C
7C
ENDCHAR
STARTCHAR 032D
ENCODING 813
SWIDTH 0 0
DWIDTH 0 0
BBX 7 4 -11 -5
BITMAP
3C
7C
66
C6
ENDCHAR
STARTCHAR 0384
ENCODING 900
SWIDTH 250 0
DWIDTH 5 0
BBX 2 4 1 11
BITMAP
C0
C0
C0
C0
ENDCHAR
STARTCHAR 0385
ENCODING 901
SWIDTH 550 0
DWIDTH 11 0
BBX 9 4 1 11
BITMAP
0C00
D980
D980
1800
ENDCHAR
STARTCHAR 0386
ENCODING 902
SWIDTH 850 0
DWIDTH 17 0
BBX 15 16 1 0
BITMAP
6000
6000
63C0
C7E0
06E0
0E60
0E70
0C70
1C30
1838
3838
3FF8
3FFC
700C
600E
E00E
ENDCHAR
STARTCHAR 0387
ENCODING 903
SWIDTH 250 0
DWIDTH 5 0
BBX 3 3 1 5
BITMAP
E0
E0
E0
ENDCHAR
STARTCHAR 0388
ENCODING 904
SWIDTH 800 0
DWIDTH 16 0
BBX 14 16 1 0
BITMAP
C000
C000
CFF8
DFF8
3C00
3800
3800
1800
1FF8
1FF8
3800
3800
3800
3C00
1FFC
0FFC
ENDCHAR
STARTCHAR 0389
ENCODING 905
SWIDTH 850 0
DWIDTH 17 0
BBX 15 16 1 0
BITMAP
C000
C000
DC0E
DC0E
1C0E
1C0E
1C0E
1C0E
1FFE
1FFE
1C0E
1C0E
1C0E
1C0E
1C0E
1C0E
ENDCHAR
STARTCHAR 038A
ENCODING 906
SWIDTH 400 0
DWIDTH 8 0
BBX 6 16 1 0
BITMAP
C0
C0
DC
DC
1C
1C
1C
1C
1C
1C
1C
1C
1C
1C
1C
1C
ENDCHAR
STARTCHAR 038C
ENCODING 908
SWIDTH 900 0
DWIDTH 18 0
BBX 16 16 1 0
BITMAP
C000
C000
C7F0
DFFC
3C1C
380E
3006
3006
7007
7007
3006
3006
380E
3C1E
1FFC
07F0
ENDCHAR
STARTCHAR 038E
ENCODING 910
SWIDTH 900 0
DWIDTH 18 0
BBX 16 16 1 0
BITMAP
C000
C000
DC07
CE0E
060E
071C
0398
01B0
01F0
00E0
00E0
00E0
00E0
00E0
00E0
00E0
ENDCHAR
STARTCHAR 038F
ENCODING 911
SWIDTH 900 0
DWIDTH 18 0
BBX 16 16 1 0
BITMAP
C000
C000
CFF8
DFFE
3C1E
3807
3007
3007
3006
3806
1C1C
0E38
0330
0330
7F3F
7E3F
ENDCHAR
STARTCHAR 0390
ENCODING 912
SWIDTH 450 0
DWIDTH 9 0
BBX 9 15 0 0
BITMAP
1C00
D980
D980
1800
0000
1800
1800
1800
1800
1800
1800
1800
1800
1F00
0F00
ENDCHAR
STARTCHAR 0391
ENCODING 913
SWIDTH 800 0
DWIDTH 16 0
BBX 14 14 1 0
BITMAP
0780
0FC0
0FC0
1CC0
1CE0
1860
3870
3870
3030
7FF8
7FF8
E018
E01C
C01C
ENDCHAR
STARTCHAR 0392
ENCODING 914
SWIDTH 700 0
DWIDTH 14 0
BBX 11 14 2 0
BITMAP
FF80
FFE0
C0E0
C060
C060
C0E0
FFC0
FFC0
C0E0
C060
C060
C0E0
FFE0
FF80
ENDCHAR
STARTCHAR 0393
ENCODING 915
SWIDTH 600 0
DWIDTH 12 0
BBX 11 14 1 0
BITMAP
1FE0
7FE0
7800
6000
6000
E000
E000
E000
E000
E000
E000
E000
E000
E000
ENDCHAR
STARTCHAR 0394
ENCODING 916
SWIDTH 800 0
DWIDTH 16 0
BBX 14 14 1 0
BITMAP
0780
0FC0
0FC0
1CC0
1CE0
1860
3870
3070
7030
7038
6018
E018
FFFC
FFFC
ENDCHAR
STARTCHAR 0395
ENCODING 917
SWIDTH 700 0
DWIDTH 14 0
BBX 11 14 1 0
BITMAP
3FE0
7FE0
F000
E000
E000
E000
7FE0
7FE0
E000
E000
E000
F000
7FE0
3FE0
ENDCHAR
STARTCHAR 0396
ENCODING 918
SWIDTH 750 0
DWIDTH 15 0
BBX 13 14 1 0
BITMAP
7FF0
7FF0
0038
0038
0070
01F0
07C0
1F00
7C00
F000
E000
E000
FFF0
7FF0
ENDCHAR
STARTCHAR 0397
ENCODING 919
SWIDTH 750 0
DWIDTH 15 0
BBX 11 14 2 0
BITMAP
C060
C060
C060
C060
C060
C060
FFE0
FFE0
C060
C060
C060
C060
C060
C060
ENDCHAR
STARTCHAR 0398
ENCODING 920
SWIDTH 800 0
DWIDTH 16 0
BBX 14 14 1 0
BITMAP
1FE0
3FF0
7878
601C
E01C
E00C
EFCC
EFCC
E00C
E01C
601C
7878
3FF0
1FE0
ENDCHAR
STARTCHAR 0399
ENCODING 921
SWIDTH 300 0
DWIDTH 6 0
BBX 2 14 2 0
BITMAP
C0
C0
C0
C0
C0
C0
C0
C0
C0
C0
C0
C0
C0
C0
ENDCHAR
STARTCHAR 039A
ENCODING 922
SWIDTH 700 0
DWIDTH 14 0
BBX 12 14 2 0
BITMAP
C060
C0E0
C0C0
C1C0
C180
C380
FF00
FF00
C380
C1C0
C1C0
C0E0
C0E0
C070
ENDCHAR
STARTCHAR 039B
ENCODING 923
SWIDTH 800 0
DWIDTH 16 0
BBX 14 14 1 0
BITMAP
0780
0FC0
0FC0
1CC0
1CE0
1860
3870
3070
3030
7038
6038
E018
E01C
C00C
ENDCHAR
STARTCHAR 039C
ENCODING 924
SWIDTH 1100 0
DWIDTH 22 0
BBX 18 14 2 0
BITMAP
780780
FC0FC0
CC0CC0
CC0CC0
CE1CC0
CE1CC0
C618C0
C618C0
C718C0
C738C0
C330C0
C330C0
C3F0C0
C1E0C0
ENDCHAR
STARTCHAR 039D
ENCODING 925
SWIDTH 900 0
DWIDTH 18 0
BBX 14 14 2 0
BITMAP
780C
FC0C
DC0C
CE0C
CE0C
C60C
C70C
C30C
C38C
C18C
C1CC
C0DC
C0FC
C078
ENDCHAR
STARTCHAR 039E
ENCODING 926
SWIDTH 700 0
DWIDTH 14 0
BBX 11 14 1 0
BITMAP
FFE0
FFE0
0000
0000
0000
0000
7FE0
7FE0
0000
0000
0000
0000
FFE0
FFE0
ENDCHAR
STARTCHAR 039F
ENCODING 927
SWIDTH 800 0
DWIDTH 16 0
BBX 14 14 1 0
BITMAP
1FE0
3FF0
7878
601C
E01C
E00C
E00C
E00C
E00C
E01C
601C
7878
3FF0
1FE0
ENDCHAR
STARTCHAR 03A0
ENCODING 928
SWIDTH 750 0
DWIDTH 15 0
BBX 11 14 2 0
BITMAP
FFE0
FFE0
C060
C060
C060
C060
C060
C060
C060
C060
C060
C060
C060
C060
ENDCHAR
STARTCHAR 03A1
ENCODING 929
SWIDTH 700 0
DWIDTH 14 0
BBX 11 14 2 0
BITMAP
FF80
FFC0
01E0
00E0
00E0
00E0
FFC0
FF80
C000
C000
C000
C000
C000
C000
ENDCHAR
STARTCHAR 03A3
ENCODING 931
SWIDTH 700 0
DWIDTH 14 0
BBX 11 14 1 0
BITMAP
7FE0
FFE0
E000
E000
7800
3E00
0F80
0780
3E00
7800
E000
E000
FFE0
7FE0
ENDCHAR
STARTCHAR 03A4
ENCODING 932
SWIDTH 550 0
DWIDTH 11 0
BBX 10 14 1 0
BITMAP
FFC0
FFC0
0C00
0C00
0C00
0C00
0C00
0C00
0C00
0C00
0C00
0C00
0C00
0C00
ENDCHAR
STARTCHAR 03A5
ENCODING 933
SWIDTH 700 0
DWIDTH 14 0
BBX 12 14 1 0
BITMAP
C070
E060
70E0
31C0
3980
1F80
0F00
0E00
0600
0600
0600
0600
0600
0600
ENDCHAR
STARTCHAR 03A6
ENCODING 934
SWIDTH 850 0
DWIDTH 17 0
BBX 15 14 1 0
BITMAP
0380
07C0
3FF8
7FFC
F39C
E38E
E38E
E38E
E38E
F39E
7FFC
3FF8
07C0
0380
ENDCHAR
STARTCHAR 03A7
ENCODING 935
SWIDTH 800 0
DWIDTH 16 0
BBX 14 14 1 0
BITMAP
E01C
7038
3870
1CE0
0CC0
0FC0
0780
0780
0FC0
1CE0
3860
7070
7038
E01C
ENDCHAR
STARTCHAR 03A8
ENCODING 936
SWIDTH 850 0
DWIDTH 17 0
BBX 15 14 1 0
BITMAP
E38E
E38E
E38E
E38E
E38E
E38E
E38E
638E
739C
7FFC
1FF8
0380
0380
0380
ENDCHAR
STARTCHAR 03A9
ENCODING 937
SWIDTH 800 0
DWIDTH 16 0
BBX 14 14 1 0
BITMAP
1FE0
7FF8
F038
E01C
C01C
C01C
E01C
6018
7038
3860
0CC0
0CC0
FCFC
F87C
ENDCHAR
STARTCHAR 03AA
ENCODING 938
SWIDTH 300 0
DWIDTH 6 0
BBX 7 18 -1 0
BITMAP
E6
E6
00
00
18
18
18
18
18
18
18
18
18
18
18
18
18
18
ENDCHAR
STARTCHAR 03AB
ENCODING 939
SWIDTH 700 0
DWIDTH 14 0
BBX 12 18 1 0
BITMAP
3980
3980
0000
0000
C070
E060
70E0
31C0
3980
1F80
0F00
0E00
0600
0600
0600
0600
0600
0600
ENDCHAR
STARTCHAR 03AC
ENCODING 940
SWIDTH 750 0
DWIDTH 15 0
BBX 13 15 1 0
BITMAP
0600
0600
0600
0C00
0000
3F18
7FF0
E0F0
C0F0
C060
C060
C0F0
E0F0
7FF8
3F18
ENDCHAR
STARTCHAR 03AD
ENCODING 941
SWIDTH 650 0
DWIDTH 13 0
BBX 10 15 1 0
BITMAP
0600
0600
0600
0C00
0000
7FC0
FFC0
E000
C000
7F00
7F00
C000
E000
FFC0
7FC0
ENDCHAR
STARTCHAR 03AE
ENCODING 942
SWIDTH 700 0
DWIDTH 14 0
BBX 11 19 2 -4
BITMAP
0C00
0C00
0C00
0800
0000
FF00
FFC0
C0C0
C0E0
C060
C060
C060
C060
C060
C060
0060
0060
0060
0060
ENDCHAR
STARTCHAR 03AF
ENCODING 943
SWIDTH 350 0
DWIDTH 7 0
BBX 5 15 1 0
BITMAP
70
60
60
60
00
E0
E0
E0
E0
E0
E0
E0
60
78
78
ENDCHAR
STARTCHAR 03B0
ENCODING 944
SWIDTH 700 0
DWIDTH 14 0
BBX 12 15 1 0
BITMAP
0600
36C0
36C0
0400
0000
E070
E070
E070
E070
E070
E070
E070
6060
7FE0
1F80
ENDCHAR
STARTCHAR 03B1
ENCODING 945
SWIDTH 750 0
DWIDTH 15 0
BBX 13 11 1 0
BITMAP
3F18
7FB8
61F0
C0F0
C070
C060
C070
C0F0
61F0
7FF8
3F18
ENDCHAR
STARTCHAR 03B2
ENCODING 946
SWIDTH 650 0
DWIDTH 13 0
BBX 10 19 2 -4
BITMAP
7F00
FF80
C180
C1C0
C1C0
C180
CF00
CF80
C1C0
C0C0
C0C0
C0C0
C1C0
FF80
FF00
C000
C000
C000
C000
ENDCHAR
STARTCHAR 03B3
ENCODING 947
SWIDTH 700 0
DWIDTH 14 0
BBX 12 15 1 -4
BITMAP
C030
C070
E060
60E0
70C0
31C0
3980
1B80
1F00
0F00
0E00
0600
0600
0600
0600
ENDCHAR
STARTCHAR 03B4
ENCODING 948
SWIDTH 650 0
DWIDTH 13 0
BBX 11 15 1 0
BITMAP
3FC0
7FC0
6000
6000
7F00
3FC0
60C0
E0E0
C060
C060
C060
C0E0
E0C0
7FC0
3F80
ENDCHAR
STARTCHAR 03B5
ENCODING 949
SWIDTH 650 0
DWIDTH 13 0
BBX 10 11 1 0
BITMAP
7FC0
7FC0
E000
C000
E000
7F00
7F00
C000
E000
FFC0
7FC0
ENDCHAR
STARTCHAR 03B6
ENCODING 950
SWIDTH 600 0
DWIDTH 12 0
BBX 10 19 1 -4
BITMAP
FFC0
FFC0
00C0
01C0
0380
0F00
1C00
3800
6000
C000
C000
C000
E000
7F80
3FC0
00C0
00C0
00C0
00C0
ENDCHAR
STARTCHAR 03B7
ENCODING 951
SWIDTH 700 0
DWIDTH 14 0
BBX 11 15 2 -4
BITMAP
FF00
FFC0
C1C0
C0E0
C060
C060
C060
C060
C060
C060
C060
0060
0060
0060
0060
ENDCHAR
STARTCHAR 03B8
ENCODING 952
SWIDTH 700 0
DWIDTH 14 0
BBX 12 15 1 0
BITMAP
1FC0
7FE0
6060
6070
E030
E030
FFF0
FFF0
E030
E030
E030
6070
7060
3FE0
1FC0
ENDCHAR
STARTCHAR 03B9
ENCODING 953
SWIDTH 350 0
DWIDTH 7 0
BBX 5 11 1 0
BITMAP
E0
E0
E0
E0
E0
E0
E0
E0
60
78
38
ENDCHAR
STARTCHAR 03BA
ENCODING 954
SWIDTH 600 0
DWIDTH 12 0
BBX 9 10 2 0
BITMAP
C180
C300
C700
C600
FC00
FE00
C700
C300
C380
C180
ENDCHAR
STARTCHAR 03BB
ENCODING 955
SWIDTH 650 0
DWIDTH 13 0
BBX 11 15 1 0
BITMAP
1800
1C00
0C00
0E00
0600
1E00
1F00
3B00
3380
3180
61C0
60C0
E0C0
C060
C060
ENDCHAR
STARTCHAR 03BC
ENCODING 956
SWIDTH 750 0
DWIDTH 15 0
BBX 13 15 2 -4
BITMAP
C0C0
C0C0
C0C0
C0C0
C0C0
C0C0
C0C0
C0C0
C1C0
FFF8
FF78
C000
C000
C000
C000
ENDCHAR
STARTCHAR 03BD
ENCODING 957
SWIDTH 700 0
DWIDTH 14 0
BBX 13 11 0 0
BITMAP
E018
6038
7030
3070
3060
1860
18C0
1CC0
0DC0
0F80
0700
ENDCHAR
STARTCHAR 03BE
ENCODING 958
SWIDTH 600 0
DWIDTH 12 0
BBX 10 19 1 -4
BITMAP
3F80
7F80
6000
E000
6000
6000
3F80
7F80
E000
C000
C000
C000
E000
7F80
3FC0
00C0
00C0
00C0
00C0
ENDCHAR
STARTCHAR 03BF
ENCODING 959
SWIDTH 650 0
DWIDTH 13 0
BBX 11 11 1 0
BITMAP
3F80
7FC0
60E0
C060
C060
C060
C060
C060
60E0
7FC0
3F80
ENDCHAR
STARTCHAR 03C0
ENCODING 960
SWIDTH 750 0
DWIDTH 15 0
BBX 15 11 0 0
BITMAP
FFFE
FFFE
1830
1830
1830
1830
1830
1830
1830
183E
181E
ENDCHAR
STARTCHAR 03C1
ENCODING 961
SWIDTH 700 0
DWIDTH 14 0
BBX 12 15 1 -4
BITMAP
3FC0
7FE0
6060
6070
E030
E030
E030
E070
E060
FFE0
FFC0
E000
E000
E000
E000
ENDCHAR
STARTCHAR 03C2
ENCODING 962
SWIDTH 600 0
DWIDTH 12 0
BBX 10 15 1 -4
BITMAP
3FC0
7FC0
6000
C000
C000
C000
C000
C000
6000
7F80
3FC0
00C0
00C0
00C0
00C0
ENDCHAR
STARTCHAR 03C3
ENCODING 963
SWIDTH 700 0
DWIDTH 14 0
BBX 13 11 1 0
BITMAP
3FF8
7FF8
60E0
C060
C060
C060
C060
C060
60E0
7FC0
3F80
ENDCHAR
STARTCHAR 03C4
ENCODING 964
SWIDTH 600 0
DWIDTH 12 0
BBX 10 11 1 0
BITMAP
FFC0
FFC0
0C00
0C00
0C00
0C00
0C00
0C00
0C00
0F80
0780
ENDCHAR
STARTCHAR 03C5
ENCODING 965
SWIDTH 700 0
DWIDTH 14 0
BBX 12 11 1 0
BITMAP
E070
E070
E070
E070
E070
E070
E070
E070
6060
7FE0
1F80
ENDCHAR
STARTCHAR 03C6
ENCODING 966
SWIDTH 800 0
DWIDTH 16 0
BBX 14 19 1 -4
BITMAP
0300
0300
0300
0300
3FF0
7FF8
631C
C30C
C30C
C30C
C30C
C30C
631C
7FF8
3FF0
0300
0300
0300
0300
ENDCHAR
STARTCHAR 03C7
ENCODING 967
SWIDTH 650 0
DWIDTH 13 0
BBX 12 15 1 -4
BITMAP
C070
6060
70C0
31C0
1980
1F00
0F00
0E00
0F00
1B00
3B80
31C0
60C0
E0E0
C070
ENDCHAR
STARTCHAR 03C8
ENCODING 968
SWIDTH 800 0
DWIDTH 16 0
BBX 13 17 1 -4
BITMAP
0300
0300
E318
E318
E318
E318
E318
E318
E318
E318
6338
7FF8
1FE0
0300
0300
0300
0300
ENDCHAR
STARTCHAR 03C9
ENCODING 969
SWIDTH 950 0
DWIDTH 19 0
BBX 16 11 1 0
BITMAP
E003
E003
E003
E183
E183
E183
E183
E1C3
61C3
7FFF
3E7E
ENDCHAR
STARTCHAR 03CA
ENCODING 970
SWIDTH 400 0
DWIDTH 8 0
BBX 7 14 0 0
BITMAP
C6
C6
00
00
30
30
30
30
30
30
30
30
3E
1E
ENDCHAR
STARTCHAR 03CB
ENCODING 971
SWIDTH 700 0
DWIDTH 14 0
BBX 12 14 1 0
BITMAP
1980
1980
0000
0000
E070
E070
E070
E070
E070
E070
E070
6060
7FE0
1F80
ENDCHAR
STARTCHAR 03CC
ENCODING 972
SWIDTH 650 0
DWIDTH 13 0
BBX 11 15 1 0
BITMAP
0600
0600
0600
0C00
0000
3F80
7FC0
E0E0
C060
C060
C060
C060
E0E0
7FC0
3F80
ENDCHAR
STARTCHAR 03CD
ENCODING 973
SWIDTH 700 0
DWIDTH 14 0
BBX 12 15 1 0
BITMAP
0300
0600
0600
0600
0000
E070
E070
E070
E070
E070
E070
E070
6060
7FE0
1F80
ENDCHAR
STARTCHAR 03CE
ENCODING 974
SWIDTH 950 0
DWIDTH 19 0
BBX 16 15 1 0
BITMAP
00C0
00C0
0180
0180
0000
E003
E003
E183
E183
E183
E183
E1C3
61C3
7FFF
3E7E
ENDCHAR
STARTCHAR 0400
ENCODING 1024
SWIDTH 700 0
DWIDTH 14 0
BBX 11 19 1 0
BITMAP
0E00
0600
0300
0300
0000
3FE0
7FE0
F000
E000
E000
E000
7FE0
7FE0
E000
E000
E000
F000
7FE0
3FE0
ENDCHAR
STARTCHAR 0401
ENCODING 1025
SWIDTH 700 0
DWIDTH 14 0
BBX 11 18 1 0
BITMAP
18C0
18C0
0000
0000
3FE0
7FE0
F000
E000
E000
E000
7FE0
7FE0
E000
E000
E000
F000
7FE0
3FE0
ENDCHAR
STARTCHAR 0402
ENCODING 1026
SWIDTH 800 0
DWIDTH 16 0
BBX 14 18 1 -4
BITMAP
FFE0
FFE0
1C00
1C00
1C00
1FF0
1FF8
1C38
1C1C
1C1C
1C1C
1C1C
1C1C
1C1C
001C
0038
01F8
01F0
ENDCHAR
STARTCHAR 0403
ENCODING 1027
SWIDTH 600 0
DWIDTH 12 0
BBX 11 19 1 0
BITMAP
0380
0300
0700
0600
0000
1FE0
7FE0
7800
6000
6000
E000
E000
E000
E000
E000
E000
E000
E000
E000
ENDCHAR
STARTCHAR 0404
ENCODING 1028
SWIDTH 700 0
DWIDTH 14 0
BBX 11 14 1 0
BITMAP
1FE0
3FE0
7800
6000
E000
E000
FFC0
FFC0
E000
E000
6000
7800
3FE0
1FE0
ENDCHAR
STARTCHAR 0405
ENCODING 1029
SWIDTH 700 0
DWIDTH 14 0
BBX 12 14 1 0
BITMAP
3FE0
7FE0
E000
C000
C000
E000
7FE0
3FF0
0070
0030
0030
0070
FFE0
FFC0
ENDCHAR
STARTCHAR 0406
ENCODING 1030
SWIDTH 300 0
DWIDTH 6 0
BBX 2 14 2 0
BITMAP
C0
C0
C0
C0
C0
C0
C0
C0
C0
C0
C0
C0
C0
C0
ENDCHAR
STARTCHAR 0407
ENCODING 1031
SWIDTH 300 0
DWIDTH 6 0
BBX 7 18 0 0
BITMAP
CE
CE
00
00
30
30
30
30
30
30
30
30
30
30
30
30
30
30
ENDCHAR
STARTCHAR 0408
ENCODING 1032
SWIDTH 600 0
DWIDTH 12 0
BBX 9 14 1 0
BITMAP
0180
0180
0180
0180
0180
0180
0180
0180
0180
0180
0180
0780
FF00
FE00
ENDCHAR
STARTCHAR 0409
ENCODING 1033
SWIDTH 1100 0
DWIDTH 22 0
BBX 20 14 1 0
BITMAP
03C000
03E000
076000
066000
0E6000
0C6000
1C7FC0
187FE0
180070
380030
300030
700070
E07FE0
C07FC0
ENDCHAR
STARTCHAR 040A
ENCODING 1034
SWIDTH 1100 0
DWIDTH 22 0
BBX 19 14 2 0
BITMAP
C0E000
C0E000
C0E000
C0E000
C0E000
C0E000
FFFFC0
FFFFE0
C00060
C00060
C00060
C000E0
C0FFE0
C0FF80
ENDCHAR
STARTCHAR 040B
ENCODING 1035
SWIDTH 800 0
DWIDTH 16 0
BBX 14 14 1 0
BITMAP
FFE0
FFE0
1C00
1C00
1C00
1FF0
1FF8
1C38
1C1C
1C1C
1C1C
1C1C
1C1C
1C1C
ENDCHAR
STARTCHAR 040C
ENCODING 1036
SWIDTH 700 0
DWIDTH 14 0
BBX 12 19 2 0
BITMAP
0E00
0C00
1C00
1800
0000
C060
C0E0
C0C0
C1C0
C180
C380
FF00
FF00
C380
C1C0
C1C0
C0E0
C0E0
C070
ENDCHAR
STARTCHAR 040D
ENCODING 1037
SWIDTH 900 0
DWIDTH 18 0
BBX 14 19 2 0
BITMAP
0E00
0600
0700
0300
0000
C078
C0FC
C0DC
C1CC
C18C
C38C
C30C
C70C
C60C
CE0C
CC0C
DC0C
FC0C
780C
ENDCHAR
STARTCHAR 040E
ENCODING 1038
SWIDTH 750 0
DWIDTH 15 0
BBX 13 19 1 0
BITMAP
30C0
30C0
30C0
3F80
0000
C038
E030
6070
7060
30E0
38C0
19C0
1F80
0F80
0700
0600
0E00
FC00
F800
ENDCHAR
STARTCHAR 040F
ENCODING 1039
SWIDTH 750 0
DWIDTH 15 0
BBX 11 18 2 -4
BITMAP
C060
C060
C060
C060
C060
C060
C060
C060
C060
C060
C060
C060
FFE0
FFE0
0E00
0E00
0E00
0E00
ENDCHAR
STARTCHAR 0410
ENCODING 1040
SWIDTH 800 0
DWIDTH 16 0
BBX 14 14 1 0
BITMAP
0780
0FC0
0FC0
1CC0
1CE0
1860
3870
3870
3030
7FF8
7FF8
E018
E01C
C01C
ENDCHAR
STARTCHAR 0411
ENCODING 1041
SWIDTH 700 0
DWIDTH 14 0
BBX 11 14 2 0
BITMAP
FF00
FF00
C000
C000
C000
C000
FF80
FFC0
00E0
00E0
00E0
01E0
FFC0
FF80
ENDCHAR
STARTCHAR 0412
ENCODING 1042
SWIDTH 700 0
DWIDTH 14 0
BBX 11 14 2 0
BITMAP
FF80
FFE0
C0E0
C060
C060
C0E0
FFC0
FFC0
C0E0
C060
C060
C0E0
FFE0
FF80
ENDCHAR
STARTCHAR 0413
ENCODING 1043
SWIDTH 600 0
DWIDTH 12 0
BBX 11 14 1 0
BITMAP
1FE0
7FE0
7800
6000
6000
E000
E000
E000
E000
E000
E000
E000
E000
E000
ENDCHAR
STARTCHAR 0414
ENCODING 1044
SWIDTH 850 0
DWIDTH 17 0
BBX 15 18 1 -4
BITMAP
01E0
01F0
03B0
0330
0730
0630
0E30
0C30
0C30
1C30
1830
3830
FFFE
FFFE
C006
C006
C006
C006
ENDCHAR
STARTCHAR 0415
ENCODING 1045
SWIDTH 700 0
DWIDTH 14 0
BBX 11 14 1 0
BITMAP
3FE0
7FE0
F000
E000
E000
E000
7FE0
7FE0
E000
E000
E000
F000
7FE0
3FE0
ENDCHAR
STARTCHAR 0416
ENCODING 1046
SWIDTH 1150 0
DWIDTH 23 0
BBX 21 14 1 0
BITMAP
E07038
E07030
707070
707060
3870E0
1871C0
1FFF80
1FFFC0
3871C0
3070E0
707070
607070
E07038
C07038
ENDCHAR
STARTCHAR 0417
ENCODING 1047
SWIDTH 700 0
DWIDTH 14 0
BBX 11 14 1 0
BITMAP
FFC0
FFE0
00E0
0060
0060
00E0
1FC0
1FC0
0060
0060
0060
00E0
FFE0
FFC0
ENDCHAR
STARTCHAR 0418
ENCODING 1048
SWIDTH 900 0
DWIDTH 18 0
BBX 14 14 2 0
BITMAP
C078
C0FC
C0DC
C1CC
C18C
C38C
C30C
C70C
C60C
CE0C
CC0C
DC0C
FC0C
780C
ENDCHAR
STARTCHAR 0419
ENCODING 1049
SWIDTH 900 0
DWIDTH 18 0
BBX 14 19 2 0
BITMAP
1060
1060
1860
1FC0
0000
C078
C0FC
C0DC
C1CC
C18C
C38C
C30C
C70C
C60C
CE0C
CC0C
DC0C
FC0C
780C
ENDCHAR
STARTCHAR 041A
ENCODING 1050
SWIDTH 700 0
DWIDTH 14 0
BBX 12 14 2 0
BITMAP
C060
C0E0
C0C0
C1C0
C180
C380
FF00
FF00
C380
C1C0
C1C0
C0E0
C0E0
C070
ENDCHAR
STARTCHAR 041B
ENCODING 1051
SWIDTH 700 0
DWIDTH 14 0
BBX 11 14 1 0
BITMAP
03C0
03E0
0760
0660
0E60
0C60
1C60
1860
1860
3860
3060
7060
E060
C060
ENDCHAR
STARTCHAR 041C
ENCODING 1052
SWIDTH 1100 0
DWIDTH 22 0
BBX 18 14 2 0
BITMAP
780780
FC0FC0
CC0CC0
CC0CC0
CE1CC0
CE1CC0
C618C0
C618C0
C718C0
C738C0
C330C0
C330C0
C3F0C0
C1E0C0
ENDCHAR
STARTCHAR 041D
ENCODING 1053
SWIDTH 750 0
DWIDTH 15 0
BBX 11 14 2 0
BITMAP
C060
C060
C060
C060
C060
C060
FFE0
FFE0
C060
C060
C060
C060
C060
C060
ENDCHAR
STARTCHAR 041E
ENCODING 1054
SWIDTH 800 0
DWIDTH 16 0
BBX 14 14 1 0
BITMAP
1FE0
3FF0
7878
601C
E01C
E00C
E00C
E00C
E00C
E01C
601C
7878
3FF0
1FE0
ENDCHAR
STARTCHAR 041F
ENCODING 1055
SWIDTH 750 0
DWIDTH 15 0
BBX 11 14 2 0
BITMAP
FFE0
FFE0
C060
C060
C060
C060
C060
C060
C060
C060
C060
C060
C060
C060
ENDCHAR
STARTCHAR 0420
ENCODING 1056
SWIDTH 700 0
DWIDTH 14 0
BBX 11 14 2 0
BITMAP
FF80
FFC0
01E0
00E0
00E0
00E0
FFC0
FF80
C000
C000
C000
C000
C000
C000
ENDCHAR
STARTCHAR 0421
ENCODING 1057
SWIDTH 700 0
DWIDTH 14 0
BBX 11 14 1 0
BITMAP
1FE0
3FE0
7800
6000
E000
E000
E000
E000
E000
E000
6000
7800
3FE0
1FE0
ENDCHAR
STARTCHAR 0422
ENCODING 1058
SWIDTH 550 0
DWIDTH 11 0
BBX 10 14 1 0
BITMAP
FFC0
FFC0
0C00
0C00
0C00
0C00
0C00
0C00
0C00
0C00
0C00
0C00
0C00
0C00
ENDCHAR
STARTCHAR 0423
ENCODING 1059
SWIDTH 750 0
DWIDTH 15 0
BBX 13 14 1 0
BITMAP
C038
E030
6070
7060
30E0
38C0
19C0
1F80
0F80
0700
0600
0E00
FC00
F800
ENDCHAR
STARTCHAR 0424
ENCODING 1060
SWIDTH 850 0
DWIDTH 17 0
BBX 15 14 1 0
BITMAP
0380
07C0
3FF8
7FFC
F39C
E38E
E38E
E38E
E38E
F39E
7FFC
3FF8
07C0
0380
ENDCHAR
STARTCHAR 0425
ENCODING 1061
SWIDTH 800 0
DWIDTH 16 0
BBX 14 14 1 0
BITMAP
E01C
7038
3870
1CE0
0CC0
0FC0
0780
0780
0FC0
1CE0
3860
7070
7038
E01C
ENDCHAR
STARTCHAR 0426
ENCODING 1062
SWIDTH 850 0
DWIDTH 17 0
BBX 14 18 2 -4
BITMAP
C060
C060
C060
C060
C060
C060
C060
C060
C060
C060
C060
C060
FFFC
FFFC
000C
000C
000C
000C
ENDCHAR
STARTCHAR 0427
ENCODING 1063
SWIDTH 700 0
DWIDTH 14 0
BBX 11 14 2 0
BITMAP
C0E0
C0E0
C0E0
C0E0
C0E0
C0E0
C0E0
E0E0
FFE0
3FE0
00E0
00E0
00E0
00E0
ENDCHAR
STARTCHAR 0428
ENCODING 1064
SWIDTH 1000 0
DWIDTH 20 0
BBX 16 14 2 0
BITMAP
C183
C183
C183
C183
C183
C183
C183
C183
C183
C183
C183
C183
FFFF
FFFF
ENDCHAR
STARTCHAR 0429
ENCODING 1065
SWIDTH 1100 0
DWIDTH 22 0
BBX 19 18 2 -4
BITMAP
C18300
C18300
C18300
C18300
C18300
C18300
C18300
C18300
C18300
C18300
C18300
C18300
FFFFE0
FFFFE0
000060
000060
000060
000060
ENDCHAR
STARTCHAR 042A
ENCODING 1066
SWIDTH 800 0
DWIDTH 16 0
BBX 14 14 1 0
BITMAP
F800
F800
1800
1800
1800
1800
1FF0
1FF8
001C
000C
000C
001C
1FF8
1FF0
ENDCHAR
STARTCHAR 042B
ENCODING 1067
SWIDTH 900 0
DWIDTH 18 0
BBX 15 14 2 0
BITMAP
C00E
C00E
C00E
C00E
C00E
C00E
FF8E
FFCE
00EE
00EE
00EE
01EE
FFCE
FF8E
ENDCHAR
STARTCHAR 042C
ENCODING 1068
SWIDTH 700 0
DWIDTH 14 0
BBX 11 14 2 0
BITMAP
C000
C000
C000
C000
C000
C000
FF80
FFC0
00E0
00E0
00E0
01E0
FFC0
FF80
ENDCHAR
STARTCHAR 042D
ENCODING 1069
SWIDTH 700 0
DWIDTH 14 0
BBX 11 14 1 0
BITMAP
FF00
FFC0
01C0
00E0
0060
0060
3FE0
3FE0
0060
0060
00E0
01C0
FFC0
FF00
ENDCHAR
STARTCHAR 042E
ENCODING 1070
SWIDTH 1050 0
DWIDTH 21 0
BBX 18 14 2 0
BITMAP
C1FE00
C3FF00
C78780
C601C0
CE00C0
CE00C0
FE00C0
FE00C0
CE00C0
CE00C0
C601C0
C78780
C3FF00
C1FE00
ENDCHAR
STARTCHAR 042F
ENCODING 1071
SWIDTH 700 0
DWIDTH 14 0
BBX 12 14 1 0
BITMAP
3FF0
7FF0
E000
C000
C000
E000
7FE0
3FF0
1870
3870
3070
7070
6070
E070
ENDCHAR
STARTCHAR 0430
ENCODING 1072
SWIDTH 650 0
DWIDTH 13 0
BBX 11 11 1 0
BITMAP
7F80
7FC0
00E0
0060
0060
7FE0
7FE0
C060
E060
7FE0
3FE0
ENDCHAR
STARTCHAR 0431
ENCODING 1073
SWIDTH 700 0
DWIDTH 14 0
BBX 11 16 2 0
BITMAP
00C0
7FC0
FFC0
C000
C000
C000
FF00
FFC0
C0C0
C060
C060
C060
C060
C0C0
FFC0
7F80
ENDCHAR
STARTCHAR 0432
ENCODING 1074
SWIDTH 650 0
DWIDTH 13 0
BBX 9 11 2 0
BITMAP
FF00
FF80
C180
C180
C180
FF00
FF80
C180
C180
FF80
FF00
ENDCHAR
STARTCHAR 0433
ENCODING 1075
SWIDTH 450 0
DWIDTH 9 0
BBX 8 11 1 0
BITMAP
3F
7F
60
E0
E0
E0
E0
E0
E0
E0
E0
ENDCHAR
STARTCHAR 0434
ENCODING 1076
SWIDTH 650 0
DWIDTH 13 0
BBX 12 15 1 -4
BITMAP
0380
07C0
0EC0
0CC0
1CC0
18C0
30C0
30C0
60C0
FFF0
FFF0
C030
C030
C030
C030
ENDCHAR
STARTCHAR 0435
ENCODING 1077
SWIDTH 650 0
DWIDTH 13 0
BBX 11 11 1 0
BITMAP
3FC0
7FE0
E060
C060
C060
FFC0
FF80
C000
E000
7FC0
3FC0
ENDCHAR
STARTCHAR 0436
ENCODING 1078
SWIDTH 950 0
DWIDTH 19 0
BBX 17 10 1 0
BITMAP
C1C380
61C300
71C700
31C600
1FFC00
3FFE00
71C600
61C300
E1C380
C1C180
ENDCHAR
STARTCHAR 0437
ENCODING 1079
SWIDTH 650 0
DWIDTH 13 0
BBX 10 11 1 0
BITMAP
FF80
FFC0
00C0
00C0
00C0
1F80
1FC0
00C0
00C0
FFC0
FF80
ENDCHAR
STARTCHAR 0438
ENCODING 1080
SWIDTH 750 0
DWIDTH 15 0
BBX 11 11 2 0
BITMAP
C1C0
C3E0
C360
C660
C660
CC60
CC60
D860
D860
F060
F060
ENDCHAR
STARTCHAR 0439
ENCODING 1081
SWIDTH 750 0
DWIDTH 15 0
BBX 11 16 2 0
BITMAP
6080
6080
6180
3F80
0000
C1C0
C3E0
C360
C660
C660
CC60
CC60
D860
D860
F060
F060
ENDCHAR
STARTCHAR 043A
ENCODING 1082
SWIDTH 600 0
DWIDTH 12 0
BBX 9 10 2 0
BITMAP
C180
C300
C700
C600
FC00
FE00
C700
C300
C380
C180
ENDCHAR
STARTCHAR 043B
ENCODING 1083
SWIDTH 650 0
DWIDTH 13 0
BBX 10 11 1 0
BITMAP
0380
07C0
0EC0
0CC0
1CC0
18C0
30C0
30C0
60C0
E0C0
C0C0
ENDCHAR
STARTCHAR 043C
ENCODING 1084
SWIDTH 950 0
DWIDTH 19 0
BBX 15 11 2 0
BITMAP
F01C
F03E
D826
D866
C866
CC66
CC46
C4C6
C4C6
C786
C386
ENDCHAR
STARTCHAR 043D
ENCODING 1085
SWIDTH 700 0
DWIDTH 14 0
BBX 11 10 2 0
BITMAP
C0E0
C0E0
C0E0
C0E0
FFE0
FFE0
C0E0
C0E0
C0E0
C0E0
ENDCHAR
STARTCHAR 043E
ENCODING 1086
SWIDTH 650 0
DWIDTH 13 0
BBX 11 11 1 0
BITMAP
3F80
7FC0
60E0
C060
C060
C060
C060
C060
60E0
7FC0
3F80
ENDCHAR
STARTCHAR 043F
ENCODING 1087
SWIDTH 700 0
DWIDTH 14 0
BBX 11 11 2 0
BITMAP
FFC0
FFE0
C0E0
C0E0
C0E0
C0E0
C0E0
C0E0
C0E0
C0E0
C0E0
ENDCHAR
STARTCHAR 0440
ENCODING 1088
SWIDTH 700 0
DWIDTH 14 0
BBX 12 15 1 -4
BITMAP
3FC0
7FE0
6060
6070
E030
E030
E030
E070
E060
FFE0
FFC0
E000
E000
E000
E000
ENDCHAR
STARTCHAR 0441
ENCODING 1089
SWIDTH 600 0
DWIDTH 12 0
BBX 10 11 1 0
BITMAP
3FC0
7FC0
6000
C000
C000
C000
C000
C000
6000
7FC0
3FC0
ENDCHAR
STARTCHAR 0442
ENCODING 1090
SWIDTH 550 0
DWIDTH 11 0
BBX 10 11 1 0
BITMAP
FFC0
FFC0
0C00
0C00
0C00
0C00
0C00
0C00
0C00
0C00
0C00
ENDCHAR
STARTCHAR 0443
ENCODING 1091
SWIDTH 650 0
DWIDTH 13 0
BBX 11 15 1 -5
BITMAP
C060
C060
E0C0
60C0
7180
3180
3380
3B00
1F00
1E00
0600
0C00
0C00
1C00
1800
ENDCHAR
STARTCHAR 0444
ENCODING 1092
SWIDTH 800 0
DWIDTH 16 0
BBX 14 19 1 -4
BITMAP
0300
0300
0300
0300
3FF0
7FF8
631C
C30C
C30C
C30C
C30C
C30C
631C
7FF8
3FF0
0300
0300
0300
0300
ENDCHAR
STARTCHAR 0445
ENCODING 1093
SWIDTH 700 0
DWIDTH 14 0
BBX 12 11 1 0
BITMAP
C070
6060
30C0
1980
0F00
0600
0F00
1B80
31C0
60E0
C070
ENDCHAR
STARTCHAR 0446
ENCODING 1094
SWIDTH 800 0
DWIDTH 16 0
BBX 13 15 2 -4
BITMAP
C0E0
C0E0
C0E0
C0E0
C0E0
C0E0
C0E0
C0E0
C0E0
FFF8
FFF8
0018
0018
0018
0018
ENDCHAR
STARTCHAR 0447
ENCODING 1095
SWIDTH 700 0
DWIDTH 14 0
BBX 11 11 1 0
BITMAP
E060
E060
E060
E060
6060
7FE0
3FE0
0060
0060
0060
0060
ENDCHAR
STARTCHAR 0448
ENCODING 1096
SWIDTH 900 0
DWIDTH 18 0
BBX 15 11 2 0
BITMAP
C30E
C30E
C30E
C30E
C30E
C30E
C30E
C30E
C30E
FFFE
FFFC
ENDCHAR
STARTCHAR 0449
ENCODING 1097
SWIDTH 1000 0
DWIDTH 20 0
BBX 17 15 2 -4
BITMAP
C30E00
C30E00
C30E00
C30E00
C30E00
C30E00
C30E00
C30E00
C30E00
FFFF80
FFFF80
000180
000180
000180
000180
ENDCHAR
STARTCHAR 044A
ENCODING 1098
SWIDTH 750 0
DWIDTH 15 0
BBX 13 11 1 0
BITMAP
F800
F800
1800
1800
1FE0
0FF0
0038
0018
0038
1FF0
1FE0
ENDCHAR
STARTCHAR 044B
ENCODING 1099
SWIDTH 800 0
DWIDTH 16 0
BBX 13 11 2 0
BITMAP
C038
C038
C038
C038
FE38
FF38
01B8
01B8
01B8
FF38
FF38
ENDCHAR
STARTCHAR 044C
ENCODING 1100
SWIDTH 600 0
DWIDTH 12 0
BBX 9 11 2 0
BITMAP
C000
C000
C000
C000
FE00
FF00
0180
0180
0180
FF00
FF00
ENDCHAR
STARTCHAR 044D
ENCODING 1101
SWIDTH 600 0
DWIDTH 12 0
BBX 10 11 1 0
BITMAP
FF00
FF80
0180
00C0
00C0
3FC0
00C0
00C0
01C0
FF80
FF00
ENDCHAR
STARTCHAR 044E
ENCODING 1102
SWIDTH 900 0
DWIDTH 18 0
BBX 15 11 2 0
BITMAP
C3F8
C7FC
CE0E
CC06
CC06
FC06
FC06
CC06
CE0E
C7FC
C3F8
ENDCHAR
STARTCHAR 044F
ENCODING 1103
SWIDTH 600 0
DWIDTH 12 0
BBX 10 11 1 0
BITMAP
7FC0
FFC0
E000
C000
C000
FF80
7FC0
30C0
70C0
60C0
C0C0
ENDCHAR
STARTCHAR 0450
ENCODING 1104
SWIDTH 650 0
DWIDTH 13 0
BBX 11 15 1 0
BITMAP
1C00
0C00
0600
0600
0000
3FC0
7FE0
E060
C060
FFE0
FF80
C000
E000
7FC0
3FC0
ENDCHAR
STARTCHAR 0451
ENCODING 1105
SWIDTH 650 0
DWIDTH 13 0
BBX 11 14 1 0
BITMAP
3180
3180
0000
3FC0
7FE0
E060
C060
C060
FFC0
FF80
C000
E000
7FC0
3FC0
ENDCHAR
STARTCHAR 0452
ENCODING 1106
SWIDTH 700 0
DWIDTH 14 0
BBX 11 19 2 -4
BITMAP
C000
FF80
FF80
C000
FF00
FFC0
C1C0
C0E0
C060
C060
C060
C060
C060
C060
C060
0060
00E0
03C0
03C0
ENDCHAR
STARTCHAR 0453
ENCODING 1107
SWIDTH 450 0
DWIDTH 9 0
BBX 8 15 1 0
BITMAP
0E
0C
18
18
00
3F
7F
60
E0
E0
E0
E0
E0
E0
E0
ENDCHAR
STARTCHAR 0454
ENCODING 1108
SWIDTH 600 0
DWIDTH 12 0
BBX 10 11 1 0
BITMAP
1FC0
7FC0
6000
E000
C000
FF00
C000
C000
E000
7FC0
3FC0
ENDCHAR
STARTCHAR 0455
ENCODING 1109
SWIDTH 600 0
DWIDTH 12 0
BBX 10 11 1 0
BITMAP
7F80
FF80
C000
C000
C000
7F80
3F80
00C0
00C0
FF80
FF00
ENDCHAR
STARTCHAR 0456
ENCODING 1110
SWIDTH 250 0
DWIDTH 5 0
BBX 2 14 2 0
BITMAP
C0
C0
00
00
C0
C0
C0
C0
C0
C0
C0
C0
C0
C0
ENDCHAR
STARTCHAR 0457
ENCODING 1111
SWIDTH 350 0
DWIDTH 7 0
BBX 7 14 0 0
BITMAP
C6
C6
00
00
38
38
38
38
38
38
38
38
38
38
ENDCHAR
STARTCHAR 0458
ENCODING 1112
SWIDTH 250 0
DWIDTH 5 0
BBX 5 18 -1 -4
BITMAP
18
18
00
18
18
18
18
18
18
18
18
18
18
18
18
18
F8
F0
ENDCHAR
STARTCHAR 0459
ENCODING 1113
SWIDTH 950 0
DWIDTH 19 0
BBX 17 11 1 0
BITMAP
038000
07C000
0EC000
0CC000
18FF00
18FF80
300180
300180
600180
E0FF80
C0FF00
ENDCHAR
STARTCHAR 045A
ENCODING 1114
SWIDTH 1000 0
DWIDTH 20 0
BBX 17 11 2 0
BITMAP
C0C000
C0C000
C0C000
C0C000
FFFF00
FFFF80
C00180
C00180
C00180
C0FF80
C0FF00
ENDCHAR
STARTCHAR 045B
ENCODING 1115
SWIDTH 700 0
DWIDTH 14 0
BBX 11 15 2 0
BITMAP
C000
FF80
FF80
C000
FF00
FFC0
C1C0
C0E0
C060
C060
C060
C060
C060
C060
C060
ENDCHAR
STARTCHAR 045C
ENCODING 1116
SWIDTH 600 0
DWIDTH 12 0
BBX 9 15 2 0
BITMAP
0C00
1800
1800
3000
0000
C180
C300
C700
C600
FC00
FE00
C700
C300
C380
C180
ENDCHAR
STARTCHAR 045D
ENCODING 1117
SWIDTH 750 0
DWIDTH 15 0
BBX 11 16 2 0
BITMAP
1800
0C00
0C00
0600
0000
C1C0
C3E0
C360
C660
C660
CC60
CC60
D860
D860
F060
F060
ENDCHAR
STARTCHAR 045E
ENCODING 1118
SWIDTH 650 0
DWIDTH 13 0
BBX 11 20 1 -5
BITMAP
6080
6080
3380
3F00
0000
C060
C060
E0C0
60C0
7180
3180
3380
3B00
1F00
1E00
0600
0C00
0C00
1C00
1800
ENDCHAR
STARTCHAR 045F
ENCODING 1119
SWIDTH 700 0
DWIDTH 14 0
BBX 11 15 2 -4
BITMAP
C0E0
C0E0
C0E0
C0E0
C0E0
C0E0
C0E0
C0E0
C0E0
FFE0
FFC0
0C00
0C00
0C00
0C00
ENDCHAR
STARTCHAR 0490
ENCODING 1168
SWIDTH 600 0
DWIDTH 12 0
BBX 11 18 1 0
BITMAP
0060
0060
0060
0060
1FE0
7FE0
7800
6000
6000
E000
E000
E000
E000
E000
E000
E000
E000
E000
ENDCHAR
STARTCHAR 0491
ENCODING 1169
SWIDTH 450 0
DWIDTH 9 0
BBX 8 15 1 0
BITMAP
03
03
03
03
3F
7F
60
E0
E0
E0
E0
E0
E0
E0
E0
ENDCHAR
STARTCHAR 0492
ENCODING 1170
SWIDTH 650 0
DWIDTH 13 0
BBX 12 14 0 0
BITMAP
0FF0
1FF0
3C00
3000
3000
3000
FF80
FF80
3000
3000
3000
3000
3000
3000
ENDCHAR
STARTCHAR 0493
ENCODING 1171
SWIDTH 500 0
DWIDTH 10 0
BBX 9 11 0 0
BITMAP
1F80
3F80
3000
3000
3000
FF80
FF80
3000
3000
3000
3000
ENDCHAR
STARTCHAR 0496
ENCODING 1174
SWIDTH 1250 0
DWIDTH 25 0
BBX 23 18 1 -4
BITMAP
E07038
E07030
707070
707060
3870E0
1871C0
1FFF80
1FFFC0
3871C0
3070E0
707070
607070
E0703E
C0703E
000006
000006
000006
000006
ENDCHAR
STARTCHAR 0497
ENCODING 1175
SWIDTH 1050 0
DWIDTH 21 0
BBX 19 14 1 -4
BITMAP
C1C380
61C300
71C700
31C600
1FFC00
3FFE00
71C600
61C300
E1C3E0
C1C1E0
000060
000060
000060
000060
ENDCHAR
STARTCHAR 049A
ENCODING 1178
SWIDTH 800 0
DWIDTH 16 0
BBX 14 18 2 -4
BITMAP
C060
C0E0
C0C0
C1C0
C180
C380
FF00
FF00
C380
C1C0
C1C0
C0C0
C0FC
C07C
001C
001C
001C
001C
ENDCHAR
STARTCHAR 049B
ENCODING 1179
SWIDTH 700 0
DWIDTH 14 0
BBX 11 14 2 -4
BITMAP
C180
C300
C700
C600
FC00
FE00
C700
C300
C3E0
C1E0
0060
0060
0060
0060
ENDCHAR
STARTCHAR 04A2
ENCODING 1186
SWIDTH 850 0
DWIDTH 17 0
BBX 14 18 2 -4
BITMAP
C060
C060
C060
C060
C060
C060
FFE0
FFE0
C060
C060
C060
C060
C07C
C07C
000C
000C
000C
000C
ENDCHAR
STARTCHAR 04A3
ENCODING 1187
SWIDTH 800 0
DWIDTH 16 0
BBX 13 14 2 -4
BITMAP
C0E0
C0E0
C0E0
C0E0
FFE0
FFE0
C0E0
C0E0
C0F8
C0F8
0018
0018
0018
0018
ENDCHAR
STARTCHAR 04AE
ENCODING 1198
SWIDTH 700 0
DWIDTH 14 0
BBX 12 14 1 0
BITMAP
C070
E060
70E0
31C0
3980
1F80
0F00
0E00
0600
0600
0600
0600
0600
0600
ENDCHAR
STARTCHAR 04AF
ENCODING 1199
SWIDTH 700 0
DWIDTH 14 0
BBX 12 15 1 -4
BITMAP
C030
C070
E060
60E0
70C0
31C0
3980
1B80
1F00
0F00
0E00
0600
0600
0600
0600
ENDCHAR
STARTCHAR 04B0
ENCODING 1200
SWIDTH 700 0
DWIDTH 14 0
BBX 12 14 1 0
BITMAP
C070
E070
70E0
30C0
39C0
1B80
0F00
0F00
0600
7FC0
7FC0
0600
0600
0600
ENDCHAR
STARTCHAR 04B1
ENCODING 1201
SWIDTH 700 0
DWIDTH 14 0
BBX 12 14 1 -4
BITMAP
C070
E060
6060
60C0
30C0
3180
1980
1B00
0F00
0E00
7FC0
7FC0
0600
0600
ENDCHAR
STARTCHAR 04B2
ENCODING 1202
SWIDTH 900 0
DWIDTH 18 0
BBX 16 18 1 -4
BITMAP
E01C
7038
3870
1CE0
0CC0
0FC0
0780
0780
0FC0
1CE0
3860
7070
703F
E01F
0003
0003
0003
0003
ENDCHAR
STARTCHAR 04B3
ENCODING 1203
SWIDTH 800 0
DWIDTH 16 0
BBX 14 15 1 -4
BITMAP
C070
6060
30C0
1980
0F00
0600
0F00
1B80
31C0
60FC
C07C
000C
000C
000C
000C
ENDCHAR
STARTCHAR 04B6
ENCODING 1206
SWIDTH 800 0
DWIDTH 16 0
BBX 14 18 2 -4
BITMAP
C0E0
C0E0
C0E0
C0E0
C0E0
C0E0
C0E0
E0E0
FFE0
3FE0
00E0
00E0
00FC
00FC
001C
001C
001C
001C
ENDCHAR
STARTCHAR 04B7
ENCODING 1207
SWIDTH 750 0
DWIDTH 15 0
BBX 14 15 1 -4
BITMAP
E060
E060
E060
E060
6060
7FE0
3FE0
0060
0060
007C
007C
000C
000C
000C
000C
ENDCHAR
STARTCHAR 04BA
ENCODING 1210
SWIDTH 700 0
DWIDTH 14 0
BBX 11 14 2 0
BITMAP
C000
C000
C000
C000
FF80
FFC0
C1E0
C0E0
C0E0
C060
C060
C060
C060
C060
ENDCHAR
STARTCHAR 04BB
ENCODING 1211
SWIDTH 700 0
DWIDTH 14 0
BBX 10 11 2 0
BITMAP
C000
C000
C000
C000
FF00
FFC0
C1C0
C0C0
C0C0
C0C0
C0C0
ENDCHAR
STARTCHAR 04C0
ENCODING 1216
SWIDTH 300 0
DWIDTH 6 0
BBX 2 14 2 0
BITMAP
C0
C0
C0
C0
C0
C0
C0
C0
C0
C0
C0
C0
C0
C0
ENDCHAR
STARTCHAR 04C3
ENCODING 1219
SWIDTH 700 0
DWIDTH 14 0
BBX 12 18 2 -4
BITMAP
C060
C0E0
C0C0
C1C0
C180
C380
FF00
FF00
C380
C1C0
C1C0
C0E0
C0E0
C070
0070
0070
01E0
01E0
ENDCHAR
STARTCHAR 04C4
ENCODING 1220
SWIDTH 600 0
DWIDTH 12 0
BBX 10 14 2 -4
BITMAP
C180
C300
C700
C600
FC00
FE00
C700
C300
C380
C180
00C0
01C0
0780
0780
ENDCHAR
STARTCHAR 04C7
ENCODING 1223
SWIDTH 750 0
DWIDTH 15 0
BBX 11 18 2 -4
BITMAP
C060
C060
C060
C060
C060
C060
FFE0
FFE0
C060
C060
C060
C060
C060
C060
0060
0060
03E0
03C0
ENDCHAR
STARTCHAR 04C8
ENCODING 1224
SWIDTH 700 0
DWIDTH 14 0
BBX 11 14 2 -4
BITMAP
C0E0
C0E0
C0E0
C0E0
FFE0
FFE0
C0E0
C0E0
C0E0
C0E0
00E0
00E0
03C0
03C0
ENDCHAR
STARTCHAR 04CF
ENCODING 1231
SWIDTH 250 0
DWIDTH 5 0
BBX 2 14 2 0
BITMAP
C0
C0
C0
C0
C0
C0
C0
C0
C0
C0
C0
C0
C0
C0
ENDCHAR
STARTCHAR 04D8
ENCODING 1240
SWIDTH 750 0
DWIDTH 15 0
BBX 13 14 1 0
BITMAP
7F80
7FE0
00E0
0070
0030
0030
3FF0
7FF8
E030
C030
C070
E0F0
7FE0
3F80
ENDCHAR
STARTCHAR 04D9
ENCODING 1241
SWIDTH 650 0
DWIDTH 13 0
BBX 11 11 1 0
BITMAP
7F80
7FC0
00E0
0060
0060
7FE0
7FE0
C060
E060
7FE0
3FC0
ENDCHAR
STARTCHAR 04E8
ENCODING 1256
SWIDTH 800 0
DWIDTH 16 0
BBX 14 14 1 0
BITMAP
1FE0
3FF0
7878
601C
E01C
E00C
FFFC
FFFC
E00C
E01C
601C
7878
3FF0
1FE0
ENDCHAR
STARTCHAR 04E9
ENCODING 1257
SWIDTH 650 0
DWIDTH 13 0
BBX 11 11 1 0
BITMAP
3F80
7FC0
60E0
E060
C060
FFE0
FFE0
C060
E0E0
7FC0
3F80
ENDCHAR
STARTCHAR 04EE
ENCODING 1262
SWIDTH 750 0
DWIDTH 15 0
BBX 13 18 1 0
BITMAP
3FE0
3FE0
0000
0000
C038
E030
6070
7060
30E0
38C0
19C0
1F80
0F80
0700
0600
0E00
FC00
F800
ENDCHAR
STARTCHAR 04EF
ENCODING 1263
SWIDTH 650 0
DWIDTH 13 0
BBX 11 19 1 -5
BITMAP
7FC0
7FC0
0000
0000
C060
C060
E0C0
60C0
71C0
3180
3380
3B00
1F00
1E00
0600
0C00
0C00
1C00
1800
ENDCHAR
STARTCHAR 0512
ENCODING 1298
SWIDTH 700 0
DWIDTH 14 0
BBX 11 18 1 -4
BITMAP
03C0
03E0
0760
0660
0E60
0C60
1C60
1860
1860
3860
3060
7060
E060
C060
0060
0060
03E0
03C0
ENDCHAR
STARTCHAR 0513
ENCODING 1299
SWIDTH 650 0
DWIDTH 13 0
BBX 10 15 1 -4
BITMAP
0380
07C0
0EC0
0CC0
1CC0
18C0
30C0
30C0
60C0
E0C0
C0C0
00C0
00C0
07C0
0780
ENDCHAR
STARTCHAR 1E0C
ENCODING 7692
SWIDTH 750 0
DWIDTH 15 0
BBX 12 18 2 -4
BITMAP
FF00
FFC0
C1E0
C0E0
C060
C070
C070
C070
C070
C060
C0E0
C1E0
FFC0
FF00
0000
0000
0C00
0C00
ENDCHAR
STARTCHAR 1E0D
ENCODING 7693
SWIDTH 700 0
DWIDTH 14 0
BBX 11 20 1 -4
BITMAP
0060
0060
0060
0060
0060
3FE0
7FE0
6060
C060
C060
C060
C060
C060
6060
7FE0
3FC0
0000
0000
0600
0600
ENDCHAR
STARTCHAR 1E12
ENCODING 7698
SWIDTH 750 0
DWIDTH 15 0
BBX 12 19 2 -5
BITMAP
FF00
FFC0
C1E0
C0E0
C060
C070
C070
C070
C070
C060
C0E0
C1E0
FFC0
FF00
0000
1C00
3E00
3300
6300
ENDCHAR
STARTCHAR 1E13
ENCODING 7699
SWIDTH 700 0
DWIDTH 14 0
BBX 11 21 1 -5
BITMAP
0060
0060
0060
0060
0060
3FE0
7FE0
6060
C060
C060
C060
C060
C060
6060
7FE0
3FC0
0000
0F00
1F00
1980
3980
ENDCHAR
STARTCHAR 1E24
ENCODING 7716
SWIDTH 750 0
DWIDTH 15 0
BBX 11 18 2 -4
BITMAP
C060
C060
C060
C060
C060
C060
FFE0
FFE0
C060
C060
C060
C060
C060
C060
0000
0000
0E00
0E00
ENDCHAR
STARTCHAR 1E25
ENCODING 7717
SWIDTH 700 0
DWIDTH 14 0
BBX 11 20 2 -4
BITMAP
C000
C000
C000
C000
C000
FF00
FFC0
C1C0
C0E0
C060
C060
C060
C060
C060
C060
C060
0000
0000
0C00
0C00
ENDCHAR
STARTCHAR 1E3C
ENCODING 7740
SWIDTH 600 0
DWIDTH 12 0
BBX 11 19 1 -5
BITMAP
E000
E000
E000
E000
E000
E000
E000
E000
E000
6000
6000
7000
7FE0
1FE0
0000
0E00
1F00
1B80
3180
ENDCHAR
STARTCHAR 1E3D
ENCODING 7741
SWIDTH 300 0
DWIDTH 6 0
BBX 7 20 -1 -5
BITMAP
18
18
18
18
18
18
18
18
18
18
18
18
18
18
18
00
3C
7C
66
C6
ENDCHAR
STARTCHAR 1E44
ENCODING 7748
SWIDTH 900 0
DWIDTH 18 0
BBX 14 18 2 0
BITMAP
0300
0300
0000
0000
780C
FC0C
DC0C
CE0C
CE0C
C60C
C70C
C30C
C38C
C18C
C1CC
C0DC
C0FC
C078
ENDCHAR
STARTCHAR 1E45
ENCODING 7749
SWIDTH 700 0
DWIDTH 14 0
BBX 11 14 2 0
BITMAP
0C00
0C00
0000
FF00
FFC0
C1C0
C0E0
C060
C060
C060
C060
C060
C060
C060
ENDCHAR
STARTCHAR 1E4A
ENCODING 7754
SWIDTH 900 0
DWIDTH 18 0
BBX 14 19 2 -5
BITMAP
780C
FC0C
DC0C
CE0C
CE0C
C60C
C70C
C30C
C38C
C18C
C1CC
C0DC
C0FC
C078
0000
0700
0F80
0DC0
18C0
ENDCHAR
STARTCHAR 1E4B
ENCODING 7755
SWIDTH 700 0
DWIDTH 14 0
BBX 11 16 2 -5
BITMAP
FF00
FFC0
C1C0
C0E0
C060
C060
C060
C060
C060
C060
C060
0000
1E00
3E00
3300
7300
ENDCHAR
STARTCHAR 1E5A
ENCODING 7770
SWIDTH 700 0
DWIDTH 14 0
BBX 11 18 2 -4
BITMAP
FF80
FFC0
00E0
0060
0060
00E0
FFE0
FFC0
C380
C380
C1C0
C0C0
C0E0
C060
0000
0000
0C00
0C00
ENDCHAR
STARTCHAR 1E5B
ENCODING 7771
SWIDTH 450 0
DWIDTH 9 0
BBX 8 15 1 -4
BITMAP
7F
7F
60
E0
E0
E0
E0
E0
E0
E0
E0
00
00
E0
E0
ENDCHAR
STARTCHAR 1E62
ENCODING 7778
SWIDTH 700 0
DWIDTH 14 0
BBX 12 18 1 -4
BITMAP
3FE0
7FE0
E000
C000
C000
E000
7FE0
3FF0
0070
0030
0030
0070
FFE0
FFC0
0000
0000
0600
0600
ENDCHAR
STARTCHAR 1E63
ENCODING 7779
SWIDTH 600 0
DWIDTH 12 0
BBX 10 15 1 -4
BITMAP
7F80
FF80
C000
C000
C000
7F80
3F80
00C0
00C0
FF80
FF00
0000
0000
0C00
0C00
ENDCHAR
STARTCHAR 1E6C
ENCODING 7788
SWIDTH 550 0
DWIDTH 11 0
BBX 10 18 1 -4
BITMAP
FFC0
FFC0
0C00
0C00
0C00
0C00
0C00
0C00
0C00
0C00
0C00
0C00
0C00
0C00
0000
0000
0C00
0C00
ENDCHAR
STARTCHAR 1E6D
ENCODING 7789
SWIDTH 400 0
DWIDTH 8 0
BBX 7 18 0 -4
BITMAP
30
30
30
FE
FE
30
30
30
30
30
30
30
3E
1E
00
00
18
18
ENDCHAR
STARTCHAR 1E80
ENCODING 7808
SWIDTH 1050 0
DWIDTH 21 0
BBX 19 19 1 0
BITMAP
01C000
00C000
00E000
006000
000000
C0E060
C1F060
C3B860
C3B8E0
E318E0
E318E0
E318E0
E718C0
671CC0
661CC0
660CC0
660DC0
7E0FC0
3C0780
ENDCHAR
STARTCHAR 1E81
ENCODING 7809
SWIDTH 1000 0
DWIDTH 20 0
BBX 18 16 1 0
BITMAP
018000
018000
00C000
00C000
000000
C1E0C0
C3E1C0
C331C0
C33180
C63180
C63180
E63980
661980
6E1980
7C1F80
380F00
ENDCHAR
STARTCHAR 1E82
ENCODING 7810
SWIDTH 1050 0
DWIDTH 21 0
BBX 19 19 1 0
BITMAP
007000
006000
00E000
00C000
000000
C0E060
C1F060
C3B860
C3B8E0
E318E0
E318E0
E318E0
E718C0
671CC0
661CC0
660CC0
660DC0
7E0FC0
3C0780
ENDCHAR
STARTCHAR 1E83
ENCODING 7811
SWIDTH 1000 0
DWIDTH 20 0
BBX 18 16 1 0
BITMAP
006000
00C000
00C000
018000
000000
C1E0C0
C3E1C0
C331C0
C33180
C63180
C63180
E63980
661980
6E1980
7C1F80
380F00
ENDCHAR
STARTCHAR 1E84
ENCODING 7812
SWIDTH 1050 0
DWIDTH 21 0
BBX 19 18 1 0
BITMAP
031800
031800
000000
000000
C0E060
C1F060
C3B860
C3B8E0
E318E0
E318E0
E318E0
E718C0
671CC0
661CC0
660CC0
660DC0
7E0FC0
3C0780
ENDCHAR
STARTCHAR 1E85
ENCODING 7813
SWIDTH 1000 0
DWIDTH 20 0
BBX 18 15 1 0
BITMAP
063000
063000
000000
000000
C1E0C0
C3E1C0
C331C0
C33180
C63180
C63180
E63980
661980
6E1980
7C1F80
380F00
ENDCHAR
STARTCHAR 1E92
ENCODING 7826
SWIDTH 750 0
DWIDTH 15 0
BBX 13 18 1 -4
BITMAP
7FF0
7FF0
0038
0038
0070
01F0
07C0
1F00
7C00
F000
E000
E000
FFF0
7FF0
0000
0000
0600
0600
ENDCHAR
STARTCHAR 1E93
ENCODING 7827
SWIDTH 600 0
DWIDTH 12 0
BBX 10 15 1 -4
BITMAP
FFC0
FFC0
00C0
00C0
07C0
1F00
7800
E000
C000
FFC0
7FC0
0000
0000
0C00
0C00
ENDCHAR
STARTCHAR 1EA0
ENCODING 7840
SWIDTH 800 0
DWIDTH 16 0
BBX 14 18 1 -4
BITMAP
0780
0FC0
0FC0
1CC0
1CE0
1860
3870
3870
3030
7FF8
7FF8
E018
E01C
C01C
0000
0000
0300
0300
ENDCHAR
STARTCHAR 1EA1
ENCODING 7841
SWIDTH 650 0
DWIDTH 13 0
BBX 11 15 1 -4
BITMAP
7F80
7FC0
00E0
0060
0060
7FE0
7FE0
C060
E060
7FE0
3FE0
0000
0000
0600
0600
ENDCHAR
STARTCHAR 1EA2
ENCODING 7842
SWIDTH 800 0
DWIDTH 16 0
BBX 14 22 1 0
BITMAP
07C0
07E0
0020
0020
00E0
03E0
0300
0300
0780
0FC0
0FC0
1CC0
1CE0
1860
3870
3870
3030
7FF8
7FF8
E018
E01C
C01C
ENDCHAR
STARTCHAR 1EA3
ENCODING 7843
SWIDTH 650 0
DWIDTH 13 0
BBX 11 18 1 0
BITMAP
0F80
0FC0
00C0
01C0
0780
0400
0000
7F80
7FC0
00E0
0060
0060
7FE0
7FE0
C060
E060
7FE0
3FE0
ENDCHAR
STARTCHAR 1EA4
ENCODING 7844
SWIDTH 800 0
DWIDTH 16 0
BBX 15 21 1 0
BITMAP
000E
000C
031C
0798
0DC0
1CC0
1860
0780
0FC0
0FC0
1CC0
1CE0
1860
3870
3870
3030
7FF8
7FF8
E018
E01C
C01C
ENDCHAR
STARTCHAR 1EA5
ENCODING 7845
SWIDTH 650 0
DWIDTH 13 0
BBX 13 18 1 0
BITMAP
0018
0038
0630
1F70
1B80
3980
0000
7F80
7FC0
00E0
0060
0060
7FE0
7FE0
C060
E060
7FE0
3FE0
ENDCHAR
STARTCHAR 1EA6
ENCODING 7846
SWIDTH 800 0
DWIDTH 16 0
BBX 15 21 0 0
BITMAP
C000
E000
6180
33C0
06E0
0E60
0C30
03C0
07E0
07E0
0E60
0E70
0C30
1C38
1C38
1818
3FFC
3FFC
700C
700E
600E
ENDCHAR
STARTCHAR 1EA7
ENCODING 7847
SWIDTH 650 0
DWIDTH 13 0
BBX 13 18 -1 0
BITMAP
C000
6000
6180
37C0
06E0
0E60
0000
1FE0
1FF0
0038
0018
0018
1FF8
1FF8
3018
3818
1FF8
0FF8
ENDCHAR
STARTCHAR 1EA8
ENCODING 7848
SWIDTH 800 0
DWIDTH 16 0
BBX 16 23 1 0
BITMAP
003C
003F
0003
0003
031F
079C
0DD0
1CC0
1860
0780
0FC0
0FC0
1CC0
1CE0
1860
3870
3870
3030
7FF8
7FF8
E018
E01C
C01C
ENDCHAR
STARTCHAR 1EA9
ENCODING 7849
SWIDTH 650 0
DWIDTH 13 0
BBX 14 21 1 0
BITMAP
00F8
00FC
0004
0004
003C
0670
1F60
1B80
3980
0000
7F80
7FC0
00E0
0060
0060
7FE0
7FE0
C060
E060
7FE0
3FE0
ENDCHAR
STARTCHAR 1EAA
ENCODING 7850
SWIDTH 800 0
DWIDTH 16 0
BBX 14 21 1 0
BITMAP
3FE0
3FE0
0300
0780
0DC0
0CC0
1860
0780
0FC0
0FC0
1CC0
1CE0
1860
3870
3870
3030
7FF8
7FF8
E018
E01C
C01C
ENDCHAR
STARTCHAR 1EAB
ENCODING 7851
SWIDTH 650 0
DWIDTH 13 0
BBX 11 19 1 0
BITMAP
7FC0
7FC0
0000
0600
0F00
1B80
3980
0000
7F80
7FC0
00E0
0060
0060
7FE0
7FE0
C060
E060
7FE0
3FE0
ENDCHAR
STARTCHAR 1EAC
ENCODING 7852
SWIDTH 800 0
DWIDTH 16 0
BBX 14 23 1 -4
BITMAP
0300
0780
0DC0
0CC0
1860
0780
0FC0
0FC0
1CC0
1CE0
1860
3870
3870
3030
7FF8
7FF8
E018
E01C
C01C
0000
0000
0600
0600
ENDCHAR
STARTCHAR 1EAD
ENCODING 7853
SWIDTH 650 0
DWIDTH 13 0
BBX 11 20 1 -4
BITMAP
0600
1F00
1B80
3980
0000
7F80
7FC0
00E0
0060
0060
7FE0
7FE0
C060
E060
7FE0
3FE0
0000
0000
0C00
0C00
ENDCHAR
STARTCHAR 1EAE
ENCODING 7854
SWIDTH 800 0
DWIDTH 16 0
BBX 14 23 1 0
BITMAP
0180
0180
0300
0300
1860
1860
1860
1FC0
0000
0780
0FC0
0FC0
1CC0
1CE0
1860
3870
3870
3030
7FF8
7FF8
E018
E01C
C01C
ENDCHAR
STARTCHAR 1EAF
ENCODING 7855
SWIDTH 650 0
DWIDTH 13 0
BBX 11 20 1 0
BITMAP
0380
0300
0700
0600
0000
30C0
30C0
39C0
1F80
0000
7FC0
7FE0
0060
0060
7FE0
7FE0
C060
E060
7FE0
3FE0
ENDCHAR
STARTCHAR 1EB0
ENCODING 7856
SWIDTH 800 0
DWIDTH 16 0
BBX 14 23 1 0
BITMAP
0600
0600
0300
0300
1860
1860
1860
1FC0
0000
0780
0FC0
0FC0
1CC0
1CE0
1860
3870
3870
3030
7FF8
7FF8
E018
E01C
C01C
ENDCHAR
STARTCHAR 1EB1
ENCODING 7857
SWIDTH 650 0
DWIDTH 13 0
BBX 11 20 1 0
BITMAP
1C00
0C00
0E00
0600
0000
30C0
30C0
39C0
1F80
0000
7FC0
7FE0
0060
0060
7FE0
7FE0
C060
E060
7FE0
3FE0
ENDCHAR
STARTCHAR 1EB2
ENCODING 7858
SWIDTH 800 0
DWIDTH 16 0
BBX 14 25 1 0
BITMAP
07C0
07E0
0020
00E0
03E0
0300
1B60
1860
1860
1FC0
0000
0780
0FC0
0FC0
1CC0
1CE0
1860
3870
3870
3030
7FF8
7FF8
E018
E01C
C01C
ENDCHAR
STARTCHAR 1EB3
ENCODING 7859
SWIDTH 650 0
DWIDTH 13 0
BBX 11 23 1 0
BITMAP
0F80
0FC0
0040
0040
07C0
0700
0600
20C0
20C0
30C0
39C0
1F80
0000
7FC0
7FE0
0060
0060
7FE0
7FE0
C060
E060
7FE0
3FE0
ENDCHAR
STARTCHAR 1EB4
ENCODING 7860
SWIDTH 800 0
DWIDTH 16 0
BBX 14 22 1 0
BITMAP
3FE0
3FE0
0000
1860
1860
1860
1FC0
0000
0780
0FC0
0FC0
1CC0
1CE0
1860
3870
3870
3030
7FF8
7FF8
E018
E01C
C01C
ENDCHAR
STARTCHAR 1EB5
ENCODING 7861
SWIDTH 650 0
DWIDTH 13 0
BBX 11 19 1 0
BITMAP
7FC0
7FC0
0000
0000
20C0
30C0
39C0
1F80
0000
7FC0
7FE0
0060
0060
7FE0
7FE0
C060
E060
7FE0
3FE0
ENDCHAR
STARTCHAR 1EB6
ENCODING 7862
SWIDTH 800 0
DWIDTH 16 0
BBX 14 23 1 -4
BITMAP
1860
1860
1860
1FC0
0000
0780
0FC0
0FC0
1CC0
1CE0
1860
3870
3870
3030
7FF8
7FF8
E018
E01C
C01C
0000
0000
0300
0300
ENDCHAR
STARTCHAR 1EB7
ENCODING 7863
SWIDTH 650 0
DWIDTH 13 0
BBX 11 19 1 -4
BITMAP
20C0
20C0
39C0
1F80
0000
7FC0
7FE0
0060
0060
7FE0
7FE0
C060
E060
7FE0
3FE0
0000
0000
0600
0600
ENDCHAR
STARTCHAR 1EB8
ENCODING 7864
SWIDTH 700 0
DWIDTH 14 0
BBX 11 18 1 -4
BITMAP
3FE0
7FE0
F000
E000
E000
E000
7FE0
7FE0
E000
E000
E000
F000
7FE0
3FE0
0000
0000
0600
0600
ENDCHAR
STARTCHAR 1EB9
ENCODING 7865
SWIDTH 650 0
DWIDTH 13 0
BBX 11 15 1 -4
BITMAP
3FC0
7FE0
E060
C060
C060
FFC0
FF80
C000
E000
7FC0
3FC0
0000
0000
0E00
0E00
ENDCHAR
STARTCHAR 1EBA
ENCODING 7866
SWIDTH 700 0
DWIDTH 14 0
BBX 11 22 1 0
BITMAP
0F80
0FC0
0060
0060
01E0
03C0
0600
0000
3FE0
7FE0
F000
E000
E000
E000
7FE0
7FE0
E000
E000
E000
F000
7FE0
3FE0
ENDCHAR
STARTCHAR 1EBB
ENCODING 7867
SWIDTH 650 0
DWIDTH 13 0
BBX 11 18 1 0
BITMAP
0F80
0FC0
0040
01C0
0780
0400
0000
3FC0
7FE0
E060
C060
C060
FFC0
FF80
C000
E000
7FC0
3FC0
ENDCHAR
STARTCHAR 1EBE
ENCODING 7870
SWIDTH 700 0
DWIDTH 14 0
BBX 15 21 1 0
BITMAP
000E
000C
079C
0F98
0CC0
18C0
0000
3FE0
7FE0
F000
E000
E000
E000
7FE0
7FE0
E000
E000
E000
F000
7FE0
3FE0
ENDCHAR
STARTCHAR 1EBF
ENCODING 7871
SWIDTH 650 0
DWIDTH 13 0
BBX 13 18 1 0
BITMAP
0018
0038
0630
1F70
1B00
3180
0000
3FC0
7FE0
E060
C060
C060
FFC0
FF80
C000
E000
7FC0
3FC0
ENDCHAR
STARTCHAR 1EC0
ENCODING 7872
SWIDTH 700 0
DWIDTH 14 0
BBX 12 21 0 0
BITMAP
C000
E000
63C0
37C0
0660
0C60
0000
1FF0
3FF0
7800
7000
7000
7000
3FF0
3FF0
7000
7000
7000
7800
3FF0
1FF0
ENDCHAR
STARTCHAR 1EC1
ENCODING 7873
SWIDTH 650 0
DWIDTH 13 0
BBX 13 18 -1 0
BITMAP
C000
6000
6180
37C0
06C0
0C60
0000
0FF0
1FF8
3818
3018
3018
3FF0
3FE0
3000
3800
1FF0
0FF0
ENDCHAR
STARTCHAR 1EC2
ENCODING 7874
SWIDTH 700 0
DWIDTH 14 0
BBX 16 23 1 0
BITMAP
007E
007E
0003
0002
0F1E
0FB8
19B0
19C0
0000
3FE0
7FE0
F000
E000
E000
E000
7FE0
7FE0
E000
E000
E000
F000
7FE0
3FE0
ENDCHAR
STARTCHAR 1EC3
ENCODING 7875
SWIDTH 650 0
DWIDTH 13 0
BBX 14 21 1 0
BITMAP
00F0
00FC
000C
000C
007C
0470
1F40
1B00
3180
0000
3FC0
7FE0
E060
C060
C060
FFC0
FF80
C000
E000
7FC0
3FC0
ENDCHAR
STARTCHAR 1EC4
ENCODING 7876
SWIDTH 700 0
DWIDTH 14 0
BBX 11 22 1 0
BITMAP
3FE0
3FE0
0000
0700
0F80
1D80
18C0
0000
3FE0
7FE0
F000
E000
E000
E000
7FE0
7FE0
E000
E000
E000
F000
7FE0
3FE0
ENDCHAR
STARTCHAR 1EC5
ENCODING 7877
SWIDTH 650 0
DWIDTH 13 0
BBX 11 19 1 0
BITMAP
7FC0
7FC0
0000
0600
1F00
1B00
3180
0000
3FC0
7FE0
E060
C060
C060
FFC0
FF80
C000
E000
7FC0
3FC0
ENDCHAR
STARTCHAR 1EC6
ENCODING 7878
SWIDTH 700 0
DWIDTH 14 0
BBX 11 23 1 -4
BITMAP
0700
0F80
0DC0
18C0
0000
3FE0
7FE0
F000
E000
E000
E000
7FE0
7FE0
E000
E000
E000
F000
7FE0
3FE0
0000
0000
0700
0700
ENDCHAR
STARTCHAR 1EC7
ENCODING 7879
SWIDTH 650 0
DWIDTH 13 0
BBX 11 20 1 -4
BITMAP
0600
1F00
1B00
3180
0000
3FC0
7FE0
E060
C060
C060
FFC0
FF80
C000
E000
7FC0
3FC0
0000
0000
0E00
0E00
ENDCHAR
STARTCHAR 1EC8
ENCODING 7880
SWIDTH 300 0
DWIDTH 6 0
BBX 6 22 1 0
BITMAP
F0
FC
0C
0C
1C
78
40
00
60
60
60
60
60
60
60
60
60
60
60
60
60
60
ENDCHAR
STARTCHAR 1EC9
ENCODING 7881
SWIDTH 300 0
DWIDTH 6 0
BBX 6 18 1 0
BITMAP
F8
FC
0C
1C
78
40
40
60
60
60
60
60
60
60
60
60
60
60
ENDCHAR
STARTCHAR 1ECA
ENCODING 7882
SWIDTH 300 0
DWIDTH 6 0
BBX 2 18 2 -4
BITMAP
C0
C0
C0
C0
C0
C0
C0
C0
C0
C0
C0
C0
C0
C0
00
00
C0
C0
ENDCHAR
STARTCHAR 1ECB
ENCODING 7883
SWIDTH 250 0
DWIDTH 5 0
BBX 2 18 2 -4
BITMAP
C0
C0
00
00
C0
C0
C0
C0
C0
C0
C0
C0
C0
C0
00
00
C0
C0
ENDCHAR
STARTCHAR 1ECC
ENCODING 7884
SWIDTH 800 0
DWIDTH 16 0
BBX 14 18 1 -4
BITMAP
1FE0
3FF0
7878
601C
E01C
E00C
E00C
E00C
E00C
E01C
601C
7878
3FF0
1FE0
0000
0000
0300
0300
ENDCHAR
STARTCHAR 1ECD
ENCODING 7885
SWIDTH 650 0
DWIDTH 13 0
BBX 11 15 1 -4
BITMAP
3F80
7FC0
60E0
C060
C060
C060
C060
C060
60E0
7FC0
3F80
0000
0000
0600
0600
ENDCHAR
STARTCHAR 1ECE
ENCODING 7886
SWIDTH 800 0
DWIDTH 16 0
BBX 14 22 1 0
BITMAP
07C0
07E0
0030
0030
00E0
03E0
0300
0000
1FE0
3FF0
7878
601C
E01C
E00C
E00C
E00C
E00C
E01C
601C
7878
3FF0
1FE0
ENDCHAR
STARTCHAR 1ECF
ENCODING 7887
SWIDTH 650 0
DWIDTH 13 0
BBX 11 18 1 0
BITMAP
0F80
0FC0
00C0
01C0
0780
0400
0000
3F80
7FC0
60E0
C060
C060
C060
C060
C060
60E0
7FC0
3F80
ENDCHAR
STARTCHAR 1ED0
ENCODING 7888
SWIDTH 800 0
DWIDTH 16 0
BBX 15 21 1 0
BITMAP
0006
000E
078C
07D8
0CC0
0CE0
0000
1FE0
3FF0
7878
601C
E01C
E00C
E00C
E00C
E00C
E01C
601C
7878
3FF0
1FE0
ENDCHAR
STARTCHAR 1ED1
ENCODING 7889
SWIDTH 650 0
DWIDTH 13 0
BBX 13 18 1 0
BITMAP
0018
0018
0630
1F70
1B80
3980
0000
3F80
7FC0
60E0
C060
C060
C060
C060
C060
60E0
7FC0
3F80
ENDCHAR
STARTCHAR 1ED2
ENCODING 7890
SWIDTH 800 0
DWIDTH 16 0
BBX 15 21 0 0
BITMAP
E000
6000
73C0
33E0
0660
0670
0000
0FF0
1FF8
3C3C
300E
700E
7006
7006
7006
7006
700E
300E
3C3C
1FF8
0FF0
ENDCHAR
STARTCHAR 1ED3
ENCODING 7891
SWIDTH 650 0
DWIDTH 13 0
BBX 13 18 -1 0
BITMAP
C000
6000
6180
37C0
06C0
0C60
0000
0FE0
1FF0
1838
3018
3018
3018
3018
3018
1838
1FF0
0FE0
ENDCHAR
STARTCHAR 1ED4
ENCODING 7892
SWIDTH 800 0
DWIDTH 16 0
BBX 17 23 1 0
BITMAP
003F00
003F00
000180
000100
078F00
07DC00
0CD800
0CE000
000000
1FE000
3FF000
787800
601C00
E01C00
E00C00
E00C00
E00C00
E00C00
E01C00
601C00
787800
3FF000
1FE000
ENDCHAR
STARTCHAR 1ED5
ENCODING 7893
SWIDTH 650 0
DWIDTH 13 0
BBX 14 21 1 0
BITMAP
00F8
00FC
0004
0004
007C
0670
1F60
1B80
3180
0000
3F80
7FC0
60E0
C060
C060
C060
C060
C060
60E0
7FC0
3F80
ENDCHAR
STARTCHAR 1ED6
ENCODING 7894
SWIDTH 800 0
DWIDTH 16 0
BBX 14 22 1 0
BITMAP
1FF0
1FF0
0000
0780
07C0
0CC0
0CE0
0000
1FE0
3FF0
7878
601C
E01C
E00C
E00C
E00C
E00C
E01C
601C
7878
3FF0
1FE0
ENDCHAR
STARTCHAR 1ED7
ENCODING 7895
SWIDTH 650 0
DWIDTH 13 0
BBX 11 19 1 0
BITMAP
7FC0
7FC0
0000
0600
1F00
1B80
3980
0000
3F80
7FC0
60E0
C060
C060
C060
C060
C060
60E0
7FC0
3F80
ENDCHAR
STARTCHAR 1ED8
ENCODING 7896
SWIDTH 800 0
DWIDTH 16 0
BBX 14 23 1 -4
BITMAP
0780
07C0
0CC0
0CE0
0000
1FE0
3FF0
7878
601C
E01C
E00C
E00C
E00C
E00C
E01C
601C
7878
3FF0
1FE0
0000
0000
0300
0300
ENDCHAR
STARTCHAR 1ED9
ENCODING 7897
SWIDTH 650 0
DWIDTH 13 0
BBX 11 20 1 -4
BITMAP
0600
1F00
1B80
3980
0000
3F80
7FC0
60E0
C060
C060
C060
C060
C060
60E0
7FC0
3F80
0000
0000
0600
0600
ENDCHAR
STARTCHAR 1EDA
ENCODING 7898
SWIDTH 800 0
DWIDTH 16 0
BBX 15 19 1 0
BITMAP
0180
0386
0306
0706
0006
1FFE
3FFC
7878
601C
E01C
E00C
E00C
E00C
E00C
E01C
601C
7878
3FF0
1FE0
ENDCHAR
STARTCHAR 1EDB
ENCODING 7899
SWIDTH 700 0
DWIDTH 14 0
BBX 13 15 1 0
BITMAP
0300
0718
0618
0C18
0018
3FF8
7FF0
E0E0
C060
C060
C060
C060
E0E0
7FC0
3F80
ENDCHAR
STARTCHAR 1EDC
ENCODING 7900
SWIDTH 800 0
DWIDTH 16 0
BBX 15 19 1 0
BITMAP
0600
0706
0306
0186
0006
1FFE
3FFC
7878
601C
E01C
E00C
E00C
E00C
E00C
E01C
601C
7878
3FF0
1FE0
ENDCHAR
STARTCHAR 1EDD
ENCODING 7901
SWIDTH 700 0
DWIDTH 14 0
BBX 13 15 1 0
BITMAP
0C00
0C18
0618
0718
0018
3FF8
7FF0
E0E0
C060
C060
C060
C060
E0E0
7FC0
3F80
ENDCHAR
STARTCHAR 1EDE
ENCODING 7902
SWIDTH 800 0
DWIDTH 16 0
BBX 15 22 1 0
BITMAP
07C0
07E0
0030
0030
00E0
03E6
0306
0006
1FFE
3FFC
7878
601C
E01C
E00C
E00C
E00C
E00C
E01C
601C
7878
3FF0
1FE0
ENDCHAR
STARTCHAR 1EDF
ENCODING 7903
SWIDTH 700 0
DWIDTH 14 0
BBX 13 18 1 0
BITMAP
0F80
0FC0
00C0
01C0
0798
0418
0018
3FF8
7FF0
60E0
C060
C060
C060
C060
C060
60E0
7FC0
3F80
ENDCHAR
STARTCHAR 1EE0
ENCODING 7904
SWIDTH 800 0
DWIDTH 16 0
BBX 15 18 1 0
BITMAP
3FE6
3FE6
0006
0006
1FFE
3FFC
7878
601C
E01C
E00C
E00C
E00C
E00C
E01C
601C
7878
3FF0
1FE0
ENDCHAR
STARTCHAR 1EE1
ENCODING 7905
SWIDTH 700 0
DWIDTH 14 0
BBX 13 14 1 0
BITMAP
7FD8
7FD8
0018
3FF8
7FF0
60E0
C060
C060
C060
C060
C060
60E0
7FC0
3F80
ENDCHAR
STARTCHAR 1EE2
ENCODING 7906
SWIDTH 800 0
DWIDTH 16 0
BBX 15 22 1 -4
BITMAP
0006
0006
0006
0006
1FFE
3FFC
7878
601C
E01C
E00C
E00C
E00C
E00C
E01C
601C
7878
3FF0
1FE0
0000
0000
0300
0300
ENDCHAR
STARTCHAR 1EE3
ENCODING 7907
SWIDTH 700 0
DWIDTH 14 0
BBX 13 19 1 -4
BITMAP
0018
0018
0018
0018
3FF8
7FF0
60E0
C060
C060
C060
C060
C060
60E0
7FC0
3F80
0000
0000
0600
0600
ENDCHAR
STARTCHAR 1EE4
ENCODING 7908
SWIDTH 750 0
DWIDTH 15 0
BBX 11 18 2 -4
BITMAP
C060
C060
C060
C060
C060
C060
C060
C060
C060
C060
C060
E0E0
FFC0
7F80
0000
0000
0C00
0C00
ENDCHAR
STARTCHAR 1EE5
ENCODING 7909
SWIDTH 700 0
DWIDTH 14 0
BBX 12 15 1 -4
BITMAP
E070
E070
E070
E070
E070
E070
E070
E070
6060
7FE0
1F80
0000
0000
0600
0600
ENDCHAR
STARTCHAR 1EE6
ENCODING 7910
SWIDTH 750 0
DWIDTH 15 0
BBX 11 22 2 0
BITMAP
0F00
0F80
00C0
00C0
01C0
0780
0C00
0000
C060
C060
C060
C060
C060
C060
C060
C060
C060
C060
C060
E0E0
FFC0
7F80
ENDCHAR
STARTCHAR 1EE7
ENCODING 7911
SWIDTH 700 0
DWIDTH 14 0
BBX 12 18 1 0
BITMAP
0FC0
0FC0
0060
01C0
07C0
0600
0600
E070
E070
E070
E070
E070
E070
E070
E070
7060
7FE0
1F80
ENDCHAR
STARTCHAR 1EE8
ENCODING 7912
SWIDTH 850 0
DWIDTH 17 0
BBX 15 19 2 0
BITMAP
0700
0606
0C06
0C06
0006
C07E
C07C
C060
C060
C060
C060
C060
C060
C060
C060
C060
E0E0
FFC0
7F80
ENDCHAR
STARTCHAR 1EE9
ENCODING 7913
SWIDTH 850 0
DWIDTH 17 0
BBX 16 15 1 0
BITMAP
0300
0703
0603
0C03
0007
E07E
E07E
E070
E070
E070
E070
E070
6060
7FE0
1F80
ENDCHAR
STARTCHAR 1EEA
ENCODING 7914
SWIDTH 850 0
DWIDTH 17 0
BBX 15 19 2 0
BITMAP
1800
0C06
0C06
0606
0006
C07E
C07C
C060
C060
C060
C060
C060
C060
C060
C060
C060
E0E0
FFC0
7F80
ENDCHAR
STARTCHAR 1EEB
ENCODING 7915
SWIDTH 850 0
DWIDTH 17 0
BBX 16 15 1 0
BITMAP
0C00
0603
0603
0303
0007
E07E
E07E
E070
E070
E070
E070
E070
6060
7FE0
1F80
ENDCHAR
STARTCHAR 1EEC
ENCODING 7916
SWIDTH 850 0
DWIDTH 17 0
BBX 15 22 2 0
BITMAP
0F00
0FC0
00C0
00C0
01C0
0786
0406
0006
C07E
C07C
C060
C060
C060
C060
C060
C060
C060
C060
C060
E0E0
FFC0
7F80
ENDCHAR
STARTCHAR 1EED
ENCODING 7917
SWIDTH 850 0
DWIDTH 17 0
BBX 16 18 1 0
BITMAP
0FC0
0FE0
0060
01E0
07C3
0603
0007
E07F
E07E
E070
E070
E070
E070
E070
6070
7060
7FE0
1F80
ENDCHAR
STARTCHAR 1EEE
ENCODING 7918
SWIDTH 850 0
DWIDTH 17 0
BBX 15 18 2 0
BITMAP
7FC6
7FC6
0006
0006
C07E
C07C
C060
C060
C060
C060
C060
C060
C060
C060
C060
E0E0
FFC0
7F80
ENDCHAR
STARTCHAR 1EEF
ENCODING 7919
SWIDTH 850 0
DWIDTH 17 0
BBX 16 14 1 0
BITMAP
7FE3
7FE3
0003
E07F
E07E
E070
E070
E070
E070
E070
6070
7060
7FE0
1F80
ENDCHAR
STARTCHAR 1EF0
ENCODING 7920
SWIDTH 850 0
DWIDTH 17 0
BBX 15 22 2 -4
BITMAP
0006
0006
0006
0006
C07E
C07C
C060
C060
C060
C060
C060
C060
C060
C060
C060
E0E0
FFC0
7F80
0000
0000
0C00
0C00
ENDCHAR
STARTCHAR 1EF1
ENCODING 7921
SWIDTH 850 0
DWIDTH 17 0
BBX 16 19 1 -4
BITMAP
0003
0003
0003
0007
E07F
E07E
E070
E070
E070
E070
E070
6070
7060
7FE0
1F80
0000
0000
0600
0600
ENDCHAR
STARTCHAR 1EF2
ENCODING 7922
SWIDTH 700 0
DWIDTH 14 0
BBX 12 19 1 0
BITMAP
0C00
0C00
0600
0700
0000
C070
E060
70E0
31C0
3980
1F80
0F00
0E00
0600
0600
0600
0600
0600
0600
ENDCHAR
STARTCHAR 1EF3
ENCODING 7923
SWIDTH 650 0
DWIDTH 13 0
BBX 11 20 1 -5
BITMAP
1C00
0C00
0E00
0600
0000
C060
C060
E0C0
60C0
7180
3180
3380
3B00
1F00
1E00
0600
0C00
0C00
1C00
1800
ENDCHAR
STARTCHAR 1EF6
ENCODING 7926
SWIDTH 700 0
DWIDTH 14 0
BBX 12 22 1 0
BITMAP
0F00
0FC0
00C0
0040
01C0
0780
0400
0000
C070
E060
70E0
31C0
3980
1F80
0F00
0E00
0600
0600
0600
0600
0600
0600
ENDCHAR
STARTCHAR 1EF7
ENCODING 7927
SWIDTH 650 0
DWIDTH 13 0
BBX 12 23 0 -5
BITMAP
07C0
07E0
0060
00E0
03C0
0200
0200
E030
6030
6070
3060
3060
38C0
18C0
19C0
1D80
0F80
0F00
0300
0600
0600
0E00
0C00
ENDCHAR
STARTCHAR 2013
ENCODING 8211
SWIDTH 600 0
DWIDTH 12 0
BBX 10 2 1 5
BITMAP
FFC0
FFC0
ENDCHAR
STARTCHAR 2014
ENCODING 8212
SWIDTH 800 0
DWIDTH 16 0
BBX 14 2 1 5
BITMAP
FFFC
FFFC
ENDCHAR
STARTCHAR 2018
ENCODING 8216
SWIDTH 250 0
DWIDTH 5 0
BBX 3 6 1 9
BITMAP
60
E0
C0
C0
C0
C0
ENDCHAR
STARTCHAR 2019
ENCODING 8217
SWIDTH 250 0
DWIDTH 5 0
BBX 3 6 1 9
BITMAP
60
60
60
60
E0
C0
ENDCHAR
STARTCHAR 201A
ENCODING 8218
SWIDTH 250 0
DWIDTH 5 0
BBX 3 6 1 -3
BITMAP
60
60
60
60
E0
C0
ENDCHAR
STARTCHAR 201C
ENCODING 8220
SWIDTH 500 0
DWIDTH 10 0
BBX 8 6 1 9
BITMAP
63
E7
C6
C6
C6
C6
ENDCHAR
STARTCHAR 201D
ENCODING 8221
SWIDTH 500 0
DWIDTH 10 0
BBX 7 6 1 9
BITMAP
66
66
66
66
EE
CE
ENDCHAR
STARTCHAR 201E
ENCODING 8222
SWIDTH 500 0
DWIDTH 10 0
BBX 7 6 1 -3
BITMAP
66
66
66
66
EE
CE
ENDCHAR
STARTCHAR 2020
ENCODING 8224
SWIDTH 500 0
DWIDTH 10 0
BBX 8 14 1 0
BITMAP
18
18
18
FF
18
18
18
18
18
18
18
18
18
18
ENDCHAR
STARTCHAR 2021
ENCODING 8225
SWIDTH 500 0
DWIDTH 10 0
BBX 8 14 1 0
BITMAP
18
18
18
FF
18
18
18
18
18
18
FF
18
18
18
ENDCHAR
STARTCHAR 2022
ENCODING 8226
SWIDTH 450 0
DWIDTH 9 0
BBX 6 5 1 4
BITMAP
7C
FC
FC
FC
7C
ENDCHAR
STARTCHAR 2026
ENCODING 8230
SWIDTH 750 0
DWIDTH 15 0
BBX 12 3 2 0
BITMAP
CE70
CE70
CE70
ENDCHAR
STARTCHAR 2030
ENCODING 8240
SWIDTH 1050 0
DWIDTH 21 0
BBX 20 18 0 -2
BITMAP
3C0000
6E0000
461800
C23000
C22000
424000
66C000
3D8000
010000
020000
06E1E0
0DB330
1B1A10
130E10
330E10
631A10
01B330
00E1E0
ENDCHAR
STARTCHAR 2032
ENCODING 8242
SWIDTH 250 0
DWIDTH 5 0
BBX 4 8 0 7
BITMAP
30
30
30
20
60
60
40
C0
ENDCHAR
STARTCHAR 2033
ENCODING 8243
SWIDTH 450 0
DWIDTH 9 0
BBX 9 8 0 7
BITMAP
3180
3300
3300
2300
6200
6600
4600
C400
ENDCHAR
STARTCHAR 2039
ENCODING 8249
SWIDTH 250 0
DWIDTH 5 0
BBX 3 11 1 0
BITMAP
20
60
40
C0
80
80
80
C0
40
60
20
ENDCHAR
STARTCHAR 203A
ENCODING 8250
SWIDTH 250 0
DWIDTH 5 0
BBX 3 11 1 0
BITMAP
80
C0
40
60
20
20
20
60
40
C0
80
ENDCHAR
STARTCHAR 2044
ENCODING 8260
SWIDTH 150 0
DWIDTH 3 0
BBX 11 14 -4 0
BITMAP
0020
0060
00C0
0180
0100
0300
0600
0C00
0800
1000
3000
6000
4000
8000
ENDCHAR
STARTCHAR 2070
ENCODING 8304
SWIDTH 400 0
DWIDTH 8 0
BBX 6 8 1 6
BITMAP
78
CC
84
84
84
84
CC
78
ENDCHAR
STARTCHAR 2074
ENCODING 8308
SWIDTH 400 0
DWIDTH 8 0
BBX 6 8 1 6
BITMAP
1C
24
64
C4
84
FC
04
04
ENDCHAR
STARTCHAR 2075
ENCODING 8309
SWIDTH 400 0
DWIDTH 8 0
BBX 6 7 1 7
BITMAP
FC
80
80
FC
04
04
FC
ENDCHAR
STARTCHAR 2076
ENCODING 8310
SWIDTH 400 0
DWIDTH 8 0
BBX 6 7 1 7
BITMAP
7C
C0
80
FC
84
84
FC
ENDCHAR
STARTCHAR 2077
ENCODING 8311
SWIDTH 400 0
DWIDTH 8 0
BBX 6 7 1 7
BITMAP
FC
04
0C
08
10
30
60
ENDCHAR
STARTCHAR 2078
ENCODING 8312
SWIDTH 400 0
DWIDTH 8 0
BBX 6 7 1 7
BITMAP
FC
84
84
FC
84
84
FC
ENDCHAR
STARTCHAR 2079
ENCODING 8313
SWIDTH 400 0
DWIDTH 8 0
BBX 6 7 1 7
BITMAP
F8
8C
84
FC
04
0C
F8
ENDCHAR
STARTCHAR 2080
ENCODING 8320
SWIDTH 400 0
DWIDTH 8 0
BBX 6 7 1 0
BITMAP
78
8C
84
84
84
CC
78
ENDCHAR
STARTCHAR 2081
ENCODING 8321
SWIDTH 400 0
DWIDTH 8 0
BBX 3 7 2 0
BITMAP
E0
20
20
20
20
20
20
ENDCHAR
STARTCHAR 2082
ENCODING 8322
SWIDTH 400 0
DWIDTH 8 0
BBX 6 7 1 0
BITMAP
FC
04
0C
F8
80
80
FC
ENDCHAR
STARTCHAR 2083
ENCODING 8323
SWIDTH 400 0
DWIDTH 8 0
BBX 6 7 1 0
BITMAP
FC
04
0C
78
04
0C
F8
ENDCHAR
STARTCHAR 2084
ENCODING 8324
SWIDTH 400 0
DWIDTH 8 0
BBX 6 7 1 0
BITMAP
3C
64
44
84
FC
04
04
ENDCHAR
STARTCHAR 2085
ENCODING 8325
SWIDTH 400 0
DWIDTH 8 0
BBX 6 7 1 0
BITMAP
FC
80
80
FC
04
0C
F8
ENDCHAR
STARTCHAR 2086
ENCODING 8326
SWIDTH 400 0
DWIDTH 8 0
BBX 6 7 1 0
BITMAP
7C
C0
80
FC
84
CC
7C
ENDCHAR
STARTCHAR 2087
ENCODING 8327
SWIDTH 400 0
DWIDTH 8 0
BBX 6 7 1 0
BITMAP
FC
04
0C
18
30
20
60
ENDCHAR
STARTCHAR 2088
ENCODING 8328
SWIDTH 400 0
DWIDTH 8 0
BBX 6 7 1 0
BITMAP
FC
84
84
FC
84
84
FC
ENDCHAR
STARTCHAR 2089
ENCODING 8329
SWIDTH 400 0
DWIDTH 8 0
BBX 6 7 1 0
BITMAP
F8
8C
84
FC
04
0C
F8
ENDCHAR
STARTCHAR 20AB
ENCODING 8363
SWIDTH 700 0
DWIDTH 14 0
BBX 13 18 1 -3
BITMAP
0060
0FF8
0060
0060
3FE0
7FE0
6060
C060
C060
C060
C060
C060
6060
7FE0
3FC0
0000
FFF0
FFF0
ENDCHAR
STARTCHAR 20AC
ENCODING 8364
SWIDTH 700 0
DWIDTH 14 0
BBX 12 14 1 0
BITMAP
0FF0
1FE0
3800
3000
7000
FFC0
6000
6000
FF00
7000
3000
3800
1FE0
0FE0
ENDCHAR
STARTCHAR 20B4
ENCODING 8372
SWIDTH 700 0
DWIDTH 14 0
BBX 12 14 1 0
BITMAP
FF80
FFC0
00E0
0060
0060
FFF0
0000
0000
FFF0
6000
6000
7000
3FF0
1FF0
ENDCHAR
STARTCHAR 20B9
ENCODING 8377
SWIDTH 700 0
DWIDTH 14 0
BBX 12 14 1 0
BITMAP
FFF0
0180
0180
01C0
FFF0
0180
0180
7F80
7F00
6000
7000
3800
1C00
0C00
ENDCHAR
STARTCHAR 20BA
ENCODING 8378
SWIDTH 700 0
DWIDTH 14 0
BBX 12 14 1 0
BITMAP
7000
71C0
7F80
7800
F000
71C0
7F80
7C00
F030
7030
7030
70F0
7FE0
7FC0
ENDCHAR
STARTCHAR 20BD
ENCODING 8381
SWIDTH 700 0
DWIDTH 14 0
BBX 12 14 1 0
BITMAP
FFC0
FFE0
0070
0030
0030
0070
FFE0
FFC0
3000
3000
FFE0
FFE0
3000
3000
ENDCHAR
STARTCHAR 2116
ENCODING 8470
SWIDTH 1450 0
DWIDTH 29 0
BBX 25 14 2 0
BITMAP
780C7F00
FC0CFF80
DC0CC180
CC0D8180
CE0D8080
C60D8080
C70D8180
C30CC180
C38CFF80
C18C7E00
C1CC0000
C0DC0000
C0FC0000
C0780000
ENDCHAR
STARTCHAR 2117
ENCODING 8471
SWIDTH 800 0
DWIDTH 16 0
BBX 14 14 1 0
BITMAP
1FE0
3830
6018
4FCC
C044
8044
8FC4
8C04
CC04
CC0C
400C
6018
3830
1FE0
ENDCHAR
STARTCHAR 2122
ENCODING 8482
SWIDTH 1050 0
DWIDTH 21 0
BBX 18 8 1 7
BITMAP
FDE1C0
31A340
31A340
31B240
31B240
319640
319640
319C40
ENDCHAR
STARTCHAR 2153
ENCODING 8531
SWIDTH 850 0
DWIDTH 17 0
BBX 15 14 1 0
BITMAP
E010
3030
3060
3040
3080
3180
3300
327E
0402
0C02
183C
1002
2006
607E
ENDCHAR
STARTCHAR 2154
ENCODING 8532
SWIDTH 850 0
DWIDTH 17 0
BBX 17 14 0 0
BITMAP
FC0400
060C00
061800
3C1000
E02000
C06000
FEDF00
008180
010080
030080
060F00
040080
080180
181F80
ENDCHAR
STARTCHAR 2155
ENCODING 8533
SWIDTH 850 0
DWIDTH 17 0
BBX 15 14 1 0
BITMAP
E018
3030
3060
3040
30C0
3180
3300
327E
0640
0C7C
1806
1002
2006
607C
ENDCHAR
STARTCHAR 2156
ENCODING 8534
SWIDTH 850 0
DWIDTH 17 0
BBX 17 14 0 0
BITMAP
FC0600
060C00
061800
3C1000
E03000
C06000
FEDF80
009000
019000
031F00
060180
040080
0C0180
181F00
ENDCHAR
STARTCHAR 2157
ENCODING 8535
SWIDTH 850 0
DWIDTH 17 0
BBX 17 14 0 0
BITMAP
FC0400
060800
061800
3C3000
062000
064000
FCC000
019F00
011000
021F00
060180
0C0180
180180
101F00
ENDCHAR
STARTCHAR 2158
ENCODING 8536
SWIDTH 850 0
DWIDTH 17 0
BBX 17 14 0 0
BITMAP
1C0400
360C00
261800
461000
C62000
FE6000
06C000
069F80
011000
031F00
060180
040080
080180
181F00
ENDCHAR
STARTCHAR 2159
ENCODING 8537
SWIDTH 850 0
DWIDTH 17 0
BBX 15 14 1 0
BITMAP
F018
3030
1020
1040
10C0
1180
1100
127E
0640
0CC0
08FE
10C2
3066
603C
ENDCHAR
STARTCHAR 215A
ENCODING 8538
SWIDTH 850 0
DWIDTH 17 0
BBX 16 14 1 0
BITMAP
F808
8018
8030
F860
0C40
0CC0
F9BE
0330
0260
0640
0C7E
1843
1063
303E
ENDCHAR
STARTCHAR 215B
ENCODING 8539
SWIDTH 850 0
DWIDTH 17 0
BBX 15 14 1 0
BITMAP
E010
3030
3060
30C0
3080
3180
337E
0646
0442
0C42
187C
3042
2042
607E
ENDCHAR
STARTCHAR 215C
ENCODING 8540
SWIDTH 850 0
DWIDTH 17 0
BBX 16 14 1 0
BITMAP
F808
0C10
0C30
7860
0C40
0C80
FDBE
0363
0643
0442
0C3E
1843
3063
203E
ENDCHAR
STARTCHAR 215D
ENCODING 8541
SWIDTH 850 0
DWIDTH 17 0
BBX 17 14 0 0
BITMAP
7C0C00
C00800
C01800
7C3000
066000
064000
7C9F00
01B180
032180
023180
041F00
0C2180
183180
101F00
ENDCHAR
STARTCHAR 215E
ENCODING 8542
SWIDTH 850 0
DWIDTH 17 0
BBX 16 14 1 0
BITMAP
FC18
0430
0C20
1860
10C0
3180
617E
0262
0643
0C42
083E
1043
3043
607E
ENDCHAR
STARTCHAR 2202
ENCODING 8706
SWIDTH 600 0
DWIDTH 12 0
BBX 10 14 1 0
BITMAP
3F80
3F80
0080
00C0
00C0
00C0
3FC0
60C0
C0C0
C0C0
C080
C080
7F80
3F00
ENDCHAR
STARTCHAR 220F
ENCODING 8719
SWIDTH 750 0
DWIDTH 15 0
BBX 11 14 2 0
BITMAP
FFE0
FFE0
C060
C060
C060
C060
C060
C060
C060
C060
C060
C060
C060
C060
ENDCHAR
STARTCHAR 2211
ENCODING 8721
SWIDTH 700 0
DWIDTH 14 0
BBX 11 14 1 0
BITMAP
7FE0
FFE0
E000
E000
7800
3E00
0F80
0780
3E00
7800
E000
E000
FFE0
7FE0
ENDCHAR
STARTCHAR 2212
ENCODING 8722
SWIDTH 600 0
DWIDTH 12 0
BBX 11 1 1 6
BITMAP
FFE0
ENDCHAR
STARTCHAR 221A
ENCODING 8730
SWIDTH 650 0
DWIDTH 13 0
BBX 12 14 1 0
BITMAP
0030
0020
0060
0040
00C0
00C0
E080
6180
2180
3100
1300
1A00
0E00
0E00
ENDCHAR
STARTCHAR 221E
ENCODING 8734
SWIDTH 1000 0
DWIDTH 20 0
BBX 18 8 1 3
BITMAP
7F3F00
FFFF80
C0C080
C0C0C0
C0C0C0
C0C080
FFFF80
7F3F00
ENDCHAR
STARTCHAR 222B
ENCODING 8747
SWIDTH 400 0
DWIDTH 8 0
BBX 6 23 1 -5
BITMAP
1C
38
30
30
30
30
30
30
30
30
30
30
30
30
30
30
30
30
30
30
30
20
E0
ENDCHAR
STARTCHAR 2248
ENCODING 8776
SWIDTH 600 0
DWIDTH 12 0
BBX 11 8 1 3
BITMAP
F020
DC60
07C0
0000
0000
F020
DC60
07C0
ENDCHAR
STARTCHAR 2260
ENCODING 8800
SWIDTH 600 0
DWIDTH 12 0
BBX 12 14 0 0
BITMAP
0030
0020
0040
00C0
7FF0
0300
0200
0600
0C00
7FF0
1000
3000
6000
C000
ENDCHAR
STARTCHAR 2264
ENCODING 8804
SWIDTH 600 0
DWIDTH 12 0
BBX 11 13 1 1
BITMAP
0060
01E0
0F00
3C00
E000
8000
E000
3C00
0F00
01E0
0060
0000
FFE0
ENDCHAR
STARTCHAR 2265
ENCODING 8805
SWIDTH 600 0
DWIDTH 12 0
BBX 11 12 1 2
BITMAP
E000
7800
0F00
03C0
0060
00C0
0780
3C00
F000
8000
0000
FFE0
ENDCHAR
STARTCHAR 25CA
ENCODING 9674
SWIDTH 550 0
DWIDTH 11 0
BBX 8 15 1 0
BITMAP
1C
14
36
22
62
43
C1
C1
C1
43
62
26
34
1C
1C
ENDCHAR
STARTCHAR E400
ENCODING 58368
SWIDTH 1150 0
DWIDTH 23 0
BBX 21 14 1 0
BITMAP
0780F0
0F81F0
0DC3B8
1DC3B8
19C338
39C738
39C638
31C638
71CE38
71CC38
61DC38
E1DC38
C0F838
C0F038
ENDCHAR
STARTCHAR E401
ENCODING 58369
SWIDTH 1150 0
DWIDTH 23 0
BBX 21 14 1 0
BITMAP
C0F038
C0F838
E1DC38
61DC38
71CC38
71CE38
31C638
39C638
39C738
19C338
1DC3B8
0DC3B8
0F81F0
0780F0
ENDCHAR
STARTCHAR E402
ENCODING 58370
SWIDTH 1150 0
DWIDTH 23 0
BBX 21 14 2 0
BITMAP
C0F038
C1F830
C1B870
C39870
C31860
C318E0
C718E0
C618C0
CE19C0
CE1980
CC1980
DC1B80
F81F00
700E00
ENDCHAR
STARTCHAR E403
ENCODING 58371
SWIDTH 1150 0
DWIDTH 23 0
BBX 21 14 2 0
BITMAP
700E00
F81F00
DC1B80
CC1980
CE1980
CE19C0
C618C0
C718E0
C718E0
C31860
C39870
C1B870
C1F830
C0F038
ENDCHAR
STARTCHAR E404
ENCODING 58372
SWIDTH 800 0
DWIDTH 16 0
BBX 15 19 1 -5
BITMAP
0780
0FC0
0FC0
1CC0
1CE0
1860
3870
3870
3030
7FF8
7FF8
E018
E01C
C01C
0008
0030
0030
003E
003E
ENDCHAR
STARTCHAR E405
ENCODING 58373
SWIDTH 800 0
DWIDTH 16 0
BBX 14 19 1 0
BITMAP
1860
1860
1860
1FC0
0000
0780
0FC0
0FC0
1CC0
1CE0
1860
3870
3870
3030
7FF8
7FF8
E018
E01C
C01C
ENDCHAR
STARTCHAR E406
ENCODING 58374
SWIDTH 800 0
DWIDTH 16 0
BBX 14 18 1 0
BITMAP
3FE0
3FE0
0000
0000
0780
0FC0
0FC0
1CC0
1CE0
1860
3870
3870
3030
7FF8
7FF8
E018
E01C
C01C
ENDCHAR
STARTCHAR E407
ENCODING 58375
SWIDTH 800 0
DWIDTH 16 0
BBX 14 19 1 0
BITMAP
0600
0600
0300
0380
0000
0780
0FC0
0FC0
1CC0
1CE0
1860
3870
3870
3030
7FF8
7FF8
E018
E01C
C01C
ENDCHAR
STARTCHAR E408
ENCODING 58376
SWIDTH 800 0
DWIDTH 16 0
BBX 14 19 1 0
BITMAP
0780
0880
08C0
0880
0780
0780
0FC0
0FC0
1CC0
1CE0
1860
3870
3870
3030
7FF8
7FF8
E018
E01C
C01C
ENDCHAR
STARTCHAR E409
ENCODING 58377
SWIDTH 800 0
DWIDTH 16 0
BBX 14 18 1 0
BITMAP
1CC0
1CC0
0000
0000
0780
0FC0
0FC0
1CC0
1CE0
1860
3870
3870
3030
7FF8
7FF8
E018
E01C
C01C
ENDCHAR
ENDFONT
